<svg width="18" height="30" viewBox="0 0 18 30" fill="none" xmlns="http://www.w3.org/2000/svg">
<path d="M5.52663 15.0154L16.6369 26.25C17.0547 26.6678 17.2438 27.124 17.2636 27.75C17.2833 28.376 17.0942 28.9159 16.6369 29.3733C16.219 29.7911 15.6873 30 15.0415 30C14.3958 30 13.8641 29.7911 13.4462 29.3733L0.683706 16.6107C0.227902 16.1549 0 15.6232 0 15.0154C0 14.4077 0.227902 13.8759 0.683706 13.4201L13.4462 0.657586C13.8641 0.239765 14.3867 0.0209784 15.0142 0.0012269C15.6417 -0.0185246 16.1826 0.200262 16.6369 0.657586C17.0547 1.07541 17.2636 1.60718 17.2636 2.2529C17.2636 2.89862 17.0547 3.4304 16.6369 3.84822L5.52663 15.0154Z" fill="white"/>
</svg>
