<svg width="18" height="30" viewBox="0 0 18 30" fill="none" xmlns="http://www.w3.org/2000/svg">
<path d="M12.0033 15.0154L0.893105 26.25C0.475283 26.6678 0.286123 27.124 0.266371 27.75C0.24662 28.376 0.43578 28.9159 0.893105 29.3733C1.31092 29.7911 1.8427 30 2.48842 30C3.13414 30 3.66591 29.7911 4.08374 29.3733L16.8463 16.6107C17.3021 16.1549 17.53 15.6232 17.53 15.0154C17.53 14.4077 17.3021 13.8759 16.8463 13.4201L4.08374 0.657585C3.66591 0.239765 3.14326 0.0209789 2.51577 0.00122643C1.88828 -0.0185242 1.34739 0.200262 0.893105 0.657585C0.475283 1.07541 0.266371 1.60718 0.266371 2.2529C0.266371 2.89862 0.475283 3.4304 0.893105 3.84822L12.0033 15.0154Z" fill="white"/>
</svg>
