<svg width="100" height="100" viewBox="0 0 100 100" fill="none" xmlns="http://www.w3.org/2000/svg">
<g clip-path="url(#clip0_1_32)">
<path d="M50 5.55566C41.2097 5.55566 32.6168 8.16228 25.308 13.0459C17.9991 17.9295 12.3026 24.8708 8.93869 32.992C5.5748 41.1131 4.69465 50.0494 6.40955 58.6708C8.12445 67.2922 12.3574 75.2114 18.573 81.4271C24.7887 87.6427 32.708 91.8757 41.3293 93.5906C49.9507 95.3055 58.887 94.4253 67.0082 91.0614C75.1293 87.6975 82.0706 82.001 86.9542 74.6921C91.8378 67.3833 94.4445 58.7904 94.4445 50.0001C94.4445 38.2127 89.7619 26.9081 81.427 18.5731C73.092 10.2382 61.7874 5.55566 50 5.55566ZM79.0278 35.0834L42.5278 71.5557L20.9722 50.0001C20.2355 49.2634 19.8216 48.2642 19.8216 47.2223C19.8216 46.1805 20.2355 45.1813 20.9722 44.4446C21.7089 43.7078 22.7081 43.294 23.75 43.294C24.7919 43.294 25.7911 43.7078 26.5278 44.4446L42.5833 60.5001L73.5278 29.5834C73.8926 29.2187 74.3256 28.9293 74.8022 28.7319C75.2789 28.5345 75.7897 28.4328 76.3056 28.4328C76.8214 28.4328 77.3323 28.5345 77.8089 28.7319C78.2855 28.9293 78.7186 29.2187 79.0833 29.5834C79.4481 29.9482 79.7375 30.3813 79.9349 30.8579C80.1323 31.3345 80.2339 31.8453 80.2339 32.3612C80.2339 32.8771 80.1323 33.3879 79.9349 33.8645C79.7375 34.3412 79.4481 34.7742 79.0833 35.139L79.0278 35.0834Z" fill="#21A038"/>
<path d="M79.0278 35.0834L42.5278 71.5557L20.9722 50.0001C20.2355 49.2634 19.8216 48.2642 19.8216 47.2223C19.8216 46.1805 20.2355 45.1813 20.9722 44.4446C21.7089 43.7078 22.7081 43.294 23.75 43.294C24.7919 43.294 25.7911 43.7078 26.5278 44.4446L42.5833 60.5001L73.5278 29.5834C73.8926 29.2187 74.3256 28.9293 74.8022 28.7319C75.2789 28.5345 75.7897 28.4328 76.3056 28.4328C76.8214 28.4328 77.3323 28.5345 77.8089 28.7319C78.2855 28.9293 78.7186 29.2187 79.0833 29.5834C79.4481 29.9482 79.7375 30.3813 79.9349 30.8579C80.1323 31.3345 80.2339 31.8453 80.2339 32.3612C80.2339 32.8771 80.1323 33.3879 79.9349 33.8645C79.7375 34.3412 79.4481 34.7742 79.0833 35.139L79.0278 35.0834Z" fill="white"/>
</g>
<defs>
<clipPath id="clip0_1_32">
<rect width="100" height="100" fill="white"/>
</clipPath>
</defs>
</svg>
