<?xml version="1.0" encoding="UTF-8" standalone="no"?>
<!DOCTYPE svg PUBLIC "-//W3C//DTD SVG 1.1//EN" "http://www.w3.org/Graphics/SVG/1.1/DTD/svg11.dtd">
<svg width="100%" height="100%" viewBox="0 0 30 30" version="1.1" xmlns="http://www.w3.org/2000/svg" xmlns:xlink="http://www.w3.org/1999/xlink" xml:space="preserve" xmlns:serif="http://www.serif.com/" style="fill-rule:evenodd;clip-rule:evenodd;stroke-linejoin:round;stroke-miterlimit:2;">
    <g id="Монтажная-область1" serif:id="Монтажная область1" transform="matrix(0.0529768,0,0,0.105422,-2.72074,-3.91566)">
        <rect x="51.357" y="37.143" width="566.286" height="284.571" style="fill:none;"/>
        <g transform="matrix(0.057415,2.54528e-34,5.06501e-34,-0.0288523,53.1481,320.774)">
            <path d="M4892,9789C4813,9777 4716,9742 4643,9699C4578,9661 4431,9521 3505,8618L2865,7994L2858,8074C2841,8285 2711,8452 2520,8511C2457,8530 2429,8531 1935,8528L1415,8525L1340,8489C1179,8412 1080,8274 1060,8100C1054,8052 1050,7630 1050,7119L1050,6223L610,5795C368,5560 154,5346 135,5320C84,5250 34,5137 16,5048C-54,4707 145,4363 476,4254C557,4228 578,4225 702,4225L839,4225L845,785L872,689C975,312 1272,53 1652,10C1714,2 2110,0 2845,2L3945,5L4004,28C4164,88 4274,208 4315,367C4328,416 4330,569 4330,1415C4330,2519 4325,2448 4399,2497L4433,2520L5367,2520L5401,2497C5475,2448 5470,2519 5470,1415C5470,569 5472,416 5485,367C5526,208 5636,88 5796,28L5855,5L6955,2C7686,0 8086,2 8147,9C8527,53 8825,312 8928,688L8955,785L8961,4215L9075,4211C9282,4205 9433,4259 9574,4391C9775,4579 9847,4848 9766,5106C9724,5237 9681,5299 9499,5485C7247,7796 5504,9579 5447,9627C5295,9759 5089,9819 4892,9789ZM5072,9232C5087,9223 6027,8266 7161,7105C8691,5539 9227,4984 9242,4951C9297,4832 9170,4709 9047,4763C9018,4776 8980,4815 6854,7010C6116,7772 5453,8454 5379,8526C5212,8689 5138,8745 5065,8761C4927,8792 4794,8717 4515,8451C4374,8316 3193,7158 1847,5835C1041,5043 779,4791 746,4776C634,4728 521,4829 552,4949C561,4984 813,5233 2729,7101C3920,8263 4909,9221 4925,9232C4963,9255 5036,9255 5072,9232ZM5005,8114C5014,8110 5784,7323 6716,6364L8410,4620L8408,2718L8405,815L8379,759C8343,683 8293,630 8218,589L8155,555L7137,552C6015,549 6086,545 6038,612L6015,645L6010,1670C6006,2374 6001,2704 5994,2725C5932,2895 5802,3016 5639,3055C5544,3077 4256,3077 4161,3055C3988,3014 3839,2867 3801,2699C3794,2671 3790,2296 3790,1665L3790,674L3768,630C3723,543 3809,549 2665,552L1655,555L1599,581C1520,618 1466,671 1428,748L1395,815L1391,4625L3085,6280C4660,7818 4972,8120 4984,8120C4986,8120 4996,8117 5005,8114ZM2223,7976C2241,7969 2266,7950 2280,7936C2305,7909 2305,7908 2308,7681L2311,7454L1958,7110L1605,6765L1602,7305C1601,7602 1602,7859 1605,7876C1612,7917 1645,7959 1684,7976C1729,7995 2177,7996 2223,7976Z" style="fill:rgb(33,160,56);fill-rule:nonzero;"/>
        </g>
    </g>
</svg>
