<?xml version="1.0" encoding="UTF-8" standalone="no"?><!DOCTYPE svg PUBLIC "-//W3C//DTD SVG 1.1//EN" "http://www.w3.org/Graphics/SVG/1.1/DTD/svg11.dtd"><svg width="100%" height="100%" viewBox="0 0 546 277" version="1.1" xmlns="http://www.w3.org/2000/svg" xmlns:xlink="http://www.w3.org/1999/xlink" xml:space="preserve" xmlns:serif="http://www.serif.com/" style="fill-rule:evenodd;clip-rule:evenodd;stroke-linejoin:round;stroke-miterlimit:2;"><g id="Лого"><path d="M394.793,125.36c-1.714,-2.682 -2.803,-5.714 -3.19,-8.873c-0.166,-1.175 -0.315,-2.357 -0.394,-3.542c-0.139,-2.076 0.339,-4.086 0.801,-6.087c0.896,-3.887 1.477,-7.783 0.769,-11.781c-0.897,-5.661 -3.371,-10.955 -7.139,-15.274c-1.76,-1.988 -3.905,-3.521 -6.056,-5.039c-2.435,-1.716 -4.731,-3.556 -6.186,-6.239c-0.103,-0.189 -0.264,-0.344 -0.383,-0.524c-1.349,-2.053 -2.644,-4.131 -3.132,-6.594c-0.162,-0.813 -0.313,-1.628 -0.503,-2.435c-0.535,-2.277 -0.919,-4.607 -1.669,-6.813c-1.58,-4.648 -4.519,-8.417 -8.15,-11.663c-3.406,-3.099 -7.571,-5.242 -12.072,-6.211c-1.268,-0.273 -2.532,-0.565 -3.791,-0.876c-1.878,-0.379 -3.671,-1.094 -5.294,-2.109c-1.1,-0.75 -2.182,-1.53 -3.31,-2.237c-1.754,-1.151 -3.25,-2.654 -4.394,-4.414c-0.878,-1.277 -1.738,-2.567 -2.608,-3.851c-1.761,-2.652 -4.012,-4.942 -6.634,-6.747c-5.045,-3.423 -10.576,-5.431 -16.71,-5.426c-2.014,0.095 -4.02,0.323 -6.005,0.682c-1.535,0.205 -3.058,0.498 -4.593,0.72c-2.039,0.287 -4.018,-0.2 -6.005,-0.536c-2.868,-0.395 -5.605,-1.447 -8,-3.075c-0.878,-0.629 -1.791,-1.217 -2.719,-1.771c-1.267,-0.757 -2.527,-1.543 -3.854,-2.181c-3.682,-1.697 -7.702,-2.538 -11.756,-2.459c-5.147,-0.008 -10.016,1.092 -14.43,3.85c-1.131,0.707 -2.234,1.459 -3.37,2.158c-1.107,0.68 -2.231,1.323 -3.355,1.971c-1.329,0.761 -2.893,0.999 -4.389,0.668c-1.767,-0.345 -3.541,-0.664 -5.289,-1.094c-4.126,-1.11 -8.458,-1.215 -12.633,-0.305c-5.855,1.359 -11.084,3.88 -15.179,8.395c-1.232,1.359 -2.284,2.878 -3.434,4.313c-0.925,1.152 -1.867,2.289 -2.813,3.423c-0.713,0.878 -1.729,1.458 -2.847,1.625c-1.813,0.289 -3.619,0.664 -5.444,0.834c-5.389,0.443 -10.532,2.45 -14.798,5.774c-4.96,3.854 -8.516,8.658 -10.193,14.773c-0.324,1.181 -0.693,2.349 -1.076,3.513c-1.407,4.53 -4.517,8.338 -8.675,10.619c-1.541,0.864 -3.085,1.722 -4.605,2.621c-1.852,1.058 -3.536,2.385 -4.997,3.938c-6.358,6.961 -9.311,15.031 -8.003,24.515c0.3,2.173 0.554,4.388 0.076,6.569c-0.368,1.685 -0.911,3.331 -1.337,5.005c-0.501,1.887 -1.372,3.655 -2.563,5.202c-1.123,1.5 -2.283,2.974 -3.414,4.469c-1.861,2.403 -3.227,5.151 -4.02,8.085c-0.482,1.771 -0.835,3.575 -1.056,5.398c-0.577,5.3 0.039,10.438 2.487,15.256c0.783,1.543 1.616,3.06 2.422,4.59c0.759,1.439 1.56,2.899 1.744,4.517c0.233,2.068 1.027,4.04 0.916,6.168c-0.047,0.923 0.221,1.858 0.267,2.792c0.106,2.117 -0.432,4.147 -0.937,6.176c-0.722,2.905 -1.477,5.803 -1.52,8.845c0.185,1.609 0.273,3.236 0.573,4.823c0.915,5.327 3.281,10.297 6.837,14.366c1.735,1.956 3.83,3.498 5.898,5.067c2.215,1.617 4.098,3.647 5.545,5.976c1.51,2.42 2.497,5.128 2.899,7.951c0.372,2.748 0.637,5.541 1.649,8.142c3.547,9.115 9.801,15.393 19.334,18.16c1.937,0.563 3.892,1.07 5.801,1.716c2.634,0.861 4.88,2.62 6.348,4.97c0.885,1.4 1.756,2.816 2.542,4.274c2.523,4.747 6.398,8.637 11.134,11.179c3.977,2.173 8.174,3.647 12.751,3.674c2.12,0.012 4.244,-0.229 6.364,-0.388c2.011,-0.152 4.02,-0.486 6.032,-0.093c1.06,0.207 2.109,0.468 3.155,0.733c2.633,0.669 5.19,1.508 7.363,3.235c0.988,0.785 2.029,1.502 3.016,2.288c3.99,3.206 8.817,5.195 13.907,5.73c5.681,0.637 11.154,0.017 16.27,-2.715c1.558,-0.83 3.099,-1.699 4.653,-2.532c1.468,-0.855 3.071,-1.451 4.741,-1.762c1.816,-0.274 3.636,-0.519 5.461,-0.733c0.642,-0.096 1.294,-0.098 1.937,-0.005c2.123,0.388 4.256,0.758 6.343,1.3c4.068,1.055 8.152,1.467 12.307,0.651c7.504,-1.475 13.795,-4.942 18.348,-11.24c0.211,-0.291 0.447,-0.566 0.664,-0.855c1.755,-2.474 3.987,-4.571 6.566,-6.168c2.915,-1.753 5.882,-3.14 9.294,-3.559c2.075,-0.248 4.132,-0.626 6.16,-1.132c7.995,-2.022 16.753,-9.698 19.272,-18.624c0.284,-1.005 0.584,-2.007 0.839,-3.02c0.769,-3.057 1.813,-5.945 3.732,-8.548c1.95,-2.647 4.01,-5.084 6.904,-6.723c0.877,-0.498 1.725,-1.048 2.578,-1.587c1.764,-1.06 3.404,-2.313 4.888,-3.738c3.465,-3.503 6.012,-7.807 7.415,-12.531c1.043,-3.122 1.418,-6.429 1.1,-9.706c-0.24,-2.076 -0.531,-4.146 -0.774,-6.221c-0.278,-1.822 -0.234,-3.679 0.126,-5.486c0.316,-1.367 0.664,-2.726 0.961,-4.095c0.312,-1.486 0.893,-2.902 1.716,-4.178c0.901,-1.391 1.835,-2.761 2.8,-4.111c2.139,-2.87 3.693,-6.132 4.573,-9.602c0.525,-2.21 0.81,-4.472 0.849,-6.744c0.076,-4.462 -0.64,-8.769 -2.722,-12.766c-0.823,-1.605 -1.726,-3.168 -2.707,-4.681Zm-2.729,19.203c-0.321,3.65 -1.67,7.134 -3.891,10.048c-1.199,1.621 -2.299,3.321 -3.369,5.029c-1.035,1.695 -1.794,3.545 -2.249,5.478c-0.156,0.625 -0.408,1.225 -0.619,1.835c-0.062,0.129 -0.113,0.263 -0.153,0.401c-0.234,1.526 -0.453,3.054 -0.686,4.579c-0.243,2.116 -0.197,4.255 0.134,6.359c0.253,2.147 0.593,4.287 0.754,6.439c0.392,5.237 -2.967,13.406 -8.698,17.024c-1.433,0.905 -2.871,1.8 -4.301,2.712c-2.668,1.601 -4.985,3.725 -6.811,6.245c-0.181,0.262 -0.458,0.457 -0.658,0.71c-0.306,0.388 -0.594,0.79 -0.867,1.202c-0.198,0.297 -0.322,0.649 -0.54,0.928c-1.691,2.213 -2.939,4.731 -3.675,7.416c-0.435,1.487 -0.875,2.974 -1.235,4.482c-1.298,5.441 -4.657,9.331 -9.199,12.344c-2.325,1.466 -4.943,2.405 -7.669,2.752c-2.312,0.363 -4.636,0.72 -6.895,1.31c-1.575,0.503 -3.113,1.117 -4.601,1.838c-0.726,0.306 -1.43,0.664 -2.142,1.002c-0.164,0.073 -0.322,0.16 -0.47,0.26c-0.848,0.602 -1.673,1.239 -2.538,1.813c-2.029,1.384 -3.829,3.078 -5.335,5.019c-0.856,1.07 -1.727,2.13 -2.535,3.235c-2.668,3.647 -6.301,5.851 -10.561,7.13c-1.907,0.585 -3.888,0.891 -5.883,0.906c-1.758,-0.045 -3.504,-0.305 -5.198,-0.775c-2.319,-0.52 -4.625,-1.15 -6.973,-1.476c-1.657,-0.229 -3.373,-0.036 -5.062,-0.019c-0.287,0 -0.572,0.082 -0.859,0.091c-0.537,-0.053 -1.078,-0.042 -1.612,0.032c-2.518,0.725 -5.21,0.802 -7.589,2.041c-1.597,0.83 -3.209,1.636 -4.797,2.49c-1.936,1.042 -3.829,2.197 -6.015,2.643c-6.293,1.284 -12.188,0.52 -17.444,-3.463c-1.55,-1.176 -3.104,-2.353 -4.698,-3.47c-1.952,-1.372 -4.128,-2.393 -6.43,-3.017c-0.478,-0.152 -0.948,-0.329 -1.407,-0.531c-0.192,-0.098 -0.391,-0.18 -0.597,-0.243c-1.516,-0.295 -3.032,-0.595 -4.555,-0.852c-2.11,-0.299 -4.249,-0.323 -6.364,-0.071c-1.795,0.166 -3.586,0.375 -5.384,0.49c-4.112,0.265 -7.817,-1.033 -11.301,-3.081c-2.805,-1.602 -5.13,-3.924 -6.734,-6.727c-0.908,-1.598 -1.837,-3.185 -2.783,-4.759c-2.793,-4.756 -7.341,-8.225 -12.666,-9.662c-1.455,-0.418 -2.905,-0.852 -4.372,-1.217c-5.991,-1.498 -10.094,-5.321 -13.074,-10.547c-1.372,-2.407 -1.787,-5.078 -2.175,-7.758c-0.373,-2.569 -0.683,-5.166 -1.711,-7.571c-1.976,-4.622 -4.566,-8.827 -8.629,-11.957c-1.114,-0.858 -2.196,-1.759 -3.331,-2.588c-4.043,-2.95 -6.324,-7.018 -7.52,-11.778c-0.767,-3.093 -0.747,-6.33 0.058,-9.414c0.62,-2.296 1.121,-4.621 1.5,-6.968c0.196,-1.754 0.213,-3.523 0.049,-5.28c-0.034,-0.522 -0.161,-2.319 -0.362,-3.923c-0.141,-1.128 -0.263,-2.24 -0.406,-3.165c-0.325,-3.215 -1.715,-5.866 -3.226,-8.676c-0.768,-1.427 -1.537,-2.857 -2.248,-4.316c-1.356,-2.929 -1.899,-6.169 -1.572,-9.38c0.111,-1.401 0.324,-2.792 0.636,-4.161c0.534,-2.367 1.585,-4.586 3.076,-6.498c1.185,-1.545 2.388,-3.077 3.539,-4.649c1.566,-2.206 2.782,-4.641 3.603,-7.218c0.474,-1.397 0.728,-2.827 1.147,-4.223c0.897,-2.989 0.83,-6.052 0.57,-9.119c-0.107,-1.257 -0.221,-2.513 -0.335,-3.77c-0.414,-4.618 0.953,-8.758 3.397,-12.602c1.595,-2.594 3.825,-4.739 6.479,-6.232c1.735,-0.96 3.461,-1.937 5.162,-2.954c2.305,-1.421 4.353,-3.222 6.06,-5.323c2.581,-3.076 4.457,-6.679 5.498,-10.556c0.318,-1.145 0.72,-2.269 1.043,-3.411c1.678,-5.973 8.949,-12.813 16.715,-13.452c1.972,-0.163 3.929,-0.532 5.89,-0.801c1.849,-0.228 3.635,-0.822 5.252,-1.746c1.618,-0.924 3.036,-2.16 4.172,-3.637c1.121,-1.411 2.278,-2.8 3.299,-4.282c3.549,-5.146 8.594,-7.747 14.621,-8.681c2.684,-0.417 5.303,0.075 7.923,0.656c2.214,0.491 4.449,0.886 6.689,1.235c3.057,0.477 5.874,-0.369 8.506,-1.848c1.82,-1.023 3.606,-2.121 5.33,-3.299c5.545,-3.79 11.552,-4.322 17.891,-2.656c1.525,0.448 2.973,1.125 4.295,2.007c1.712,1.07 3.392,2.192 5.115,3.243c2.247,1.3 4.676,2.255 7.207,2.831c1.399,0.356 2.81,0.485 4.206,0.78c3.316,0.704 6.599,0.291 9.877,-0.302c2.127,-0.388 4.249,-0.927 6.425,-0.794c6.389,0.391 11.806,2.788 15.779,7.962c1.162,1.513 2.164,3.149 3.252,4.72c1.679,2.393 3.742,4.493 6.104,6.215c1.242,0.924 2.579,1.66 3.841,2.525c2.476,1.703 5.3,2.578 8.194,3.25c1.019,0.236 2.037,0.473 3.059,0.688c5.871,1.233 10.065,4.759 13.25,9.67c1.465,2.259 2.061,4.809 2.588,7.4c0.401,2.196 0.915,4.37 1.541,6.512c0.573,1.513 1.251,2.984 2.03,4.402c0.276,0.583 0.587,1.15 0.885,1.724c0.085,0.196 0.187,0.384 0.304,0.563c0.584,0.77 1.217,1.505 1.771,2.297c1.597,2.19 3.541,4.103 5.755,5.665c0.985,0.73 1.968,1.464 2.978,2.159c4.197,2.882 6.55,6.983 7.888,11.783c0.969,3.475 0.699,6.91 -0.111,10.368c-0.442,1.892 -0.745,3.818 -1.045,5.739c-0.266,1.896 -0.204,3.824 0.183,5.7c0.036,0.102 0.056,0.209 0.059,0.317c-0.221,1.595 0.546,3.018 0.792,4.531c0.446,2.742 1.64,5.211 3.043,7.582c0.79,1.334 1.589,2.662 2.384,3.993c2.236,3.746 2.73,7.839 2.366,12.096l0.001,0.002Z" style="fill:#fff;fill-rule:nonzero;"/><path d="M336.829,138.376c-0.022,-41.36 -33.595,-74.699 -74.487,-74.872c-41.655,-0.174 -75.107,33.793 -75.176,74.722c-0.068,40.929 33.239,74.963 74.812,74.979c41.24,0.017 74.848,-33.586 74.851,-74.829Zm-75.017,68.78c-38.133,-0.09 -68.644,-31.206 -68.594,-68.851c0.028,-18.234 7.288,-35.713 20.185,-48.603c12.898,-12.891 30.381,-20.139 48.616,-20.157c38.505,0.065 68.819,31.524 68.765,68.915c-0.054,37.31 -30.383,68.786 -68.972,68.696Z" style="fill:#fff;fill-rule:nonzero;"/><path d="M340.858,92.166l-3.766,1.308c0.129,0.438 0.208,0.748 0.311,1.052c0.584,1.704 1.202,3.396 1.747,5.113c0.074,0.291 0.234,0.553 0.457,0.755c0.223,0.201 0.501,0.332 0.798,0.377c5.412,1.372 10.813,2.787 16.214,4.191c0.366,0.094 0.726,0.209 1.089,0.314c0.005,0.083 0.01,0.166 0.015,0.249c-1.785,0.626 -3.563,1.273 -5.358,1.873c-1.826,0.608 -3.613,1.353 -5.515,1.83l-0.72,-1.781l-3.797,1.337l3.107,8.944l3.813,-1.328l-0.775,-2.435c4.776,-1.687 9.482,-3.32 14.231,-4.934c0.34,0.87 0.623,1.593 0.935,2.389l3.794,-1.315c-0.106,-0.376 -0.177,-0.687 -0.28,-0.986c-0.587,-1.703 -1.233,-3.388 -1.752,-5.111c-0.083,-0.342 -0.269,-0.651 -0.532,-0.886c-0.263,-0.235 -0.591,-0.384 -0.94,-0.428c-5.493,-1.347 -10.975,-2.736 -16.461,-4.115c-0.309,-0.077 -0.613,-0.181 -0.919,-0.273l-0.015,-0.255l11.017,-3.819c0.27,0.626 0.494,1.143 0.753,1.744l3.803,-1.318l-3.057,-8.799l-3.802,1.325c0.241,0.822 0.448,1.532 0.68,2.324l-14.222,4.925l-0.853,-2.267Z" style="fill:#fff;fill-rule:nonzero;"/><path d="M323.432,68.941l-3.134,2.455c0.2,0.289 0.348,0.53 0.521,0.752c1.15,1.48 2.338,2.933 3.442,4.445c0.161,0.254 0.395,0.453 0.672,0.572c0.276,0.118 0.582,0.151 0.877,0.092c1.685,-0.166 3.376,-0.276 5.064,-0.406c3.305,-0.258 6.61,-0.516 9.914,-0.774c0.949,-0.073 1.902,-0.116 2.853,-0.173l0.096,0.237l-9.06,7.072c-0.486,-0.56 -0.878,-1.012 -1.31,-1.509l-3.162,2.474l5.835,7.482l3.172,-2.48l-1.515,-2.081c3.981,-3.12 7.894,-6.203 11.88,-9.261l1.637,1.979l3.154,-2.473c-0.217,-0.322 -0.362,-0.564 -0.534,-0.785c-1.17,-1.51 -2.358,-3.005 -3.51,-4.529c-0.144,-0.221 -0.351,-0.396 -0.594,-0.501c-0.243,-0.105 -0.511,-0.136 -0.771,-0.089c-5.239,0.468 -10.482,0.894 -15.725,1.328c-0.811,0.067 -1.625,0.101 -2.435,0.15c-0.039,-0.074 -0.078,-0.148 -0.116,-0.222c3.064,-2.389 6.112,-4.801 9.234,-7.191l1.257,1.411l3.171,-2.472c-1.92,-2.461 -3.796,-4.863 -5.733,-7.345l-3.19,2.484c0.527,0.72 0.964,1.319 1.438,1.965l-11.883,9.27l-1.545,-1.877Z" style="fill:#fff;fill-rule:nonzero;"/><path d="M161.298,109.231c4.824,1.656 9.56,3.21 14.277,4.887l-0.708,2.291l3.818,1.291c1.071,-3.146 2.109,-6.198 3.181,-9.342c-1.322,-0.447 -2.537,-0.861 -3.811,-1.294c-0.312,0.803 -0.592,1.523 -0.895,2.306l-14.278,-4.86c1.019,-3.165 2.06,-6.207 3.151,-9.291l14.309,4.87c-0.251,0.806 -0.471,1.512 -0.725,2.327l3.833,1.304c1.076,-3.178 2.11,-6.231 3.166,-9.352l-3.819,-1.3l-0.854,2.32l-14.303,-4.87c0.262,-0.848 0.481,-1.556 0.73,-2.364l-3.814,-1.283c-2.65,7.795 -5.275,15.517 -7.929,23.324l3.8,1.294c0.307,-0.796 0.575,-1.488 0.871,-2.258Z" style="fill:#fff;fill-rule:nonzero;"/><path d="M265.722,49.348c1.762,0.111 3.524,0.261 5.288,0.28c1.602,0.028 3.163,-0.512 4.405,-1.525c1.243,-1.013 2.085,-2.433 2.38,-4.009c0.423,-2.081 0.068,-3.943 -1.619,-5.402c-0.102,-0.108 -0.189,-0.23 -0.258,-0.361c0.546,-0.498 1.053,-1.038 1.516,-1.614c1.048,-1.527 1.11,-3.261 0.711,-4.987c-0.715,-3.092 -3.18,-5.118 -6.521,-5.386c-3.34,-0.268 -6.684,-0.469 -10.026,-0.691c-0.387,-0.026 -0.775,-0.004 -1.217,-0.004c-0.2,1.315 -0.275,2.646 -0.225,3.975l2.269,0.309c-0.316,5.058 -0.615,9.997 -1.018,14.98l-2.367,0c-0.079,1.328 -0.155,2.601 -0.233,3.917c0.353,0.046 0.56,0.085 0.769,0.1c2.049,0.142 4.097,0.29 6.146,0.418Zm1.725,-19.141c1.339,0.084 2.561,0.087 3.763,0.255c1.482,0.208 2.376,2.119 1.801,3.674c-0.146,0.526 -0.474,0.983 -0.926,1.289c-0.451,0.307 -0.997,0.443 -1.54,0.385c-1.006,-0.043 -2.01,-0.135 -3.015,-0.211c-0.155,-0.033 -0.308,-0.079 -0.456,-0.137c0.123,-1.755 0.244,-3.462 0.373,-5.255Zm-0.638,9.477c1.462,0.094 2.747,0.169 4.03,0.266c0.214,0.026 0.421,0.091 0.613,0.192c1.038,0.495 1.555,1.854 1.254,3.27c-0.078,0.594 -0.372,1.138 -0.827,1.528c-0.454,0.39 -1.037,0.599 -1.636,0.585c-1.147,-0.039 -2.29,-0.151 -3.435,-0.24c-0.132,-0.04 -0.257,-0.097 -0.373,-0.17c0.121,-1.75 0.243,-3.523 0.374,-5.431Z" style="fill:#fff;fill-rule:nonzero;"/><path d="M302.687,54.378c-0.807,1.107 -1.557,2.174 -2.269,3.334l8.096,5.562l2.274,-3.325l-1.979,-1.469l4.529,-6.589c0.144,0.478 0.234,0.704 0.277,0.941c0.536,2.868 1.035,5.743 1.614,8.602c0.09,0.345 0.098,0.706 0.023,1.054c-0.075,0.348 -0.231,0.673 -0.454,0.951c-0.669,0.881 -1.26,1.821 -1.941,2.822l6.261,4.299c0.857,-1.249 1.66,-2.421 2.474,-3.607c-0.213,-0.202 -0.448,-0.382 -0.698,-0.535c-0.289,-0.148 -0.532,-0.37 -0.705,-0.643c-0.173,-0.273 -0.27,-0.588 -0.28,-0.912c-0.498,-2.874 -1.027,-5.744 -1.534,-8.617c-0.036,-0.317 -0.052,-0.636 -0.047,-0.956c0.517,-0.083 0.937,-0.169 1.363,-0.215c2.292,-0.249 4.593,-0.455 6.878,-0.741c1.197,-0.15 2.371,-0.387 3.357,0.779l2.518,-3.674l-6.438,-4.417c-0.753,1.083 -1.449,2.044 -2.095,3.038c-0.126,0.214 -0.303,0.393 -0.516,0.521c-0.212,0.128 -0.454,0.201 -0.702,0.211c-2.794,0.301 -5.581,0.656 -8.372,0.982c-0.293,0.007 -0.586,-0.007 -0.878,-0.039l3.886,-5.664l2.094,1.309l2.283,-3.321l-8.14,-5.583l-2.272,3.33l1.871,1.405c-1.07,1.968 -7.98,11.866 -8.633,12.364l-1.845,-1.197Z" style="fill:#fff;fill-rule:nonzero;"/><path d="M174.039,79.883l12.014,8.353l-1.335,2.06l3.307,2.3l10.548,-15.191l-6.759,-4.694l-2.767,3.988c1.157,0.816 2.234,1.576 3.4,2.4c-1.199,1.722 -2.341,3.36 -3.533,5.073l-4.57,-3.188l2.601,-3.853l-3.503,-2.429c-0.915,1.288 -1.784,2.507 -2.696,3.792l-3.909,-2.722c1.218,-1.763 2.318,-3.425 3.535,-5.049c0.982,0.656 1.837,1.228 2.74,1.831l2.748,-3.989l-6.425,-4.452l-10.539,15.183l3.65,2.541l1.493,-1.954Z" style="fill:#fff;fill-rule:nonzero;"/><path d="M243.303,51.341c4.016,0.015 7.028,-1.357 9.08,-3.774c4.498,-5.292 3.627,-13.618 -1.878,-17.953c-2.124,-1.726 -4.825,-2.577 -7.555,-2.381c-2.729,0.196 -5.281,1.424 -7.136,3.436c-3.47,3.652 -4.197,9.629 -1.68,14.306c2.129,3.955 5.431,6.143 9.169,6.366Zm-4.593,-16.519c0.392,-0.723 0.94,-1.35 1.603,-1.836c0.663,-0.486 1.426,-0.819 2.234,-0.975c0.808,-0.155 1.639,-0.13 2.436,0.074c0.797,0.205 1.538,0.584 2.171,1.109c1.438,1.243 2.429,2.925 2.82,4.785c0.391,1.861 0.16,3.798 -0.655,5.516c-0.389,0.796 -0.962,1.489 -1.67,2.022c-0.709,0.532 -1.534,0.888 -2.408,1.04c-0.873,0.151 -1.77,0.093 -2.616,-0.17c-0.847,-0.263 -1.619,-0.723 -2.253,-1.343c-0.848,-0.81 -1.519,-1.786 -1.971,-2.868c-0.453,-1.081 -0.677,-2.245 -0.658,-3.417c-0.032,-1.375 0.301,-2.734 0.967,-3.937Z" style="fill:#fff;fill-rule:nonzero;"/><path d="M285.875,52.51c1.946,1.465 4.337,2.216 6.771,2.125c2.435,-0.09 4.763,-1.017 6.594,-2.623c0.438,-0.395 0.797,-0.875 1.247,-1.376l-4.095,-2.774c-0.325,0.272 -0.539,0.463 -0.766,0.639c-3.348,2.611 -7.751,1.202 -8.977,-2.87c-0.401,-1.318 -0.443,-2.719 -0.122,-4.058c0.597,-2.549 1.921,-4.582 4.341,-5.737c2.661,-1.27 6.109,-0.265 7.138,2.281c0.206,0.58 0.564,1.093 1.037,1.486c0.473,0.393 1.044,0.651 1.651,0.746c0.244,0.058 0.476,0.164 0.719,0.237c0.537,0.162 1.075,0.319 1.684,0.498c0.542,-1.638 1.047,-3.16 1.57,-4.742c-0.819,-0.277 -1.523,-0.546 -2.245,-0.753c-0.312,-0.076 -0.605,-0.215 -0.861,-0.409c-0.256,-0.194 -0.469,-0.439 -0.627,-0.718c-0.61,-1.073 -1.512,-1.95 -2.601,-2.53c-1.405,-0.789 -2.968,-1.251 -4.576,-1.352c-1.607,-0.102 -3.217,0.159 -4.709,0.764c-4.818,1.881 -7.966,6.881 -7.74,12.258c0.152,3.663 1.598,6.696 4.567,8.908Z" style="fill:#fff;fill-rule:nonzero;"/><path d="M203.357,71.864c4.886,-1.031 8.932,-5.889 8.29,-11.456c-0.04,-0.909 -0.31,-1.793 -0.785,-2.57l-4.389,2.059c0.067,0.388 0.111,0.635 0.15,0.883c0.17,0.872 0.126,1.773 -0.129,2.625c-0.255,0.852 -0.713,1.629 -1.334,2.264c-0.622,0.636 -1.388,1.111 -2.234,1.385c-0.845,0.274 -1.745,0.339 -2.621,0.189c-3.832,-0.519 -7.068,-4.273 -7.028,-8.144c0.036,-3.422 2.923,-6.198 6.336,-5.55c0.342,0.083 0.699,0.072 1.035,-0.031c0.335,-0.103 0.638,-0.295 0.873,-0.555c0.629,-0.593 1.311,-1.127 1.96,-1.698c0.207,-0.183 0.383,-0.401 0.604,-0.635l-3.242,-3.742c-0.723,0.613 -1.361,1.135 -1.975,1.684c-0.343,0.317 -0.791,0.495 -1.258,0.498c-1.194,-0.017 -2.376,0.251 -3.446,0.783c-1.934,1.007 -3.507,2.591 -4.5,4.532c-2.159,4.405 -1.669,8.661 1.199,12.525c3.092,4.168 7.298,6.048 12.494,4.954Z" style="fill:#fff;fill-rule:nonzero;"/><path d="M213.025,45.384l-1.258,-2.751l2.681,-1.303c2.246,4.62 4.442,9.138 6.666,13.716l-2.141,1.151c0.624,1.242 1.145,2.442 1.807,3.595c1.586,-0.775 3.05,-1.469 4.499,-2.194c1.431,-0.717 2.924,-1.319 4.317,-2.17l-1.763,-3.57l-2.235,1.027l-6.686,-13.752l3.047,-1.444l1.373,2.68l4.374,-2.138l-3.047,-6.258l-19.034,9.267l3.053,6.257l4.347,-2.113Z" style="fill:#fff;fill-rule:nonzero;"/><path d="M275.893,235.61l2.363,-0.184l-0,-3.539c-0.429,0 -0.71,-0.01 -0.991,0c-1.512,0.063 -3.024,0.171 -4.535,0.182c-0.301,-0.017 -0.6,0.05 -0.867,0.192c-0.265,0.142 -0.487,0.355 -0.639,0.615c-1.384,2.023 -2.81,4.014 -4.228,6.012c-0.176,0.248 -0.39,0.471 -0.625,0.75c-0.23,-0.246 -0.383,-0.397 -0.522,-0.56c-1.657,-1.949 -3.321,-3.892 -4.957,-5.859c-0.134,-0.188 -0.315,-0.337 -0.525,-0.433c-0.21,-0.095 -0.441,-0.134 -0.671,-0.111c-1.115,0.064 -2.234,0.06 -3.349,0.113c-0.738,0.036 -1.474,0.121 -2.2,0.183c0,0.719 -0.025,1.295 0.008,1.868c0.031,0.557 0.122,1.11 0.187,1.666l2.249,0c0.093,2.275 0.182,4.483 0.274,6.731l-2.351,0.199c0.064,1.22 0.122,2.346 0.185,3.565l7.946,-0.357l0,-3.49l-1.642,-0.146c-0.071,-1.389 -0.139,-2.72 -0.208,-4.052l0.262,-0.1l5.589,6.364c0.905,-1.239 1.725,-2.368 2.551,-3.492c0.816,-1.111 1.588,-2.259 2.458,-3.329l0.241,0.095c0.058,1.345 0.117,2.69 0.177,4.069l-1.522,0.192c0.069,1.183 0.135,2.311 0.206,3.545l7.914,-0.361l-0,-3.607l-2.49,0c-0.096,-2.275 -0.19,-4.455 -0.288,-6.721Z" style="fill:#fff;fill-rule:nonzero;"/><path d="M285.22,230.064c-0.166,0.157 -0.35,0.294 -0.597,0.502c-0.162,-0.48 -0.187,-0.995 -0.072,-1.488c0.114,-0.493 0.363,-0.944 0.719,-1.303c0.797,-0.842 1.802,-1.46 2.913,-1.792c1.196,-0.396 2.406,-0.75 3.607,-1.13c0.468,-0.149 0.928,-0.32 1.426,-0.492c-0.391,-1.376 -0.752,-2.651 -1.162,-4.088c-1.131,0.313 -2.133,0.586 -3.13,0.874c-0.066,0.017 -0.128,0.046 -0.182,0.086c-0.054,0.041 -0.1,0.092 -0.135,0.15c0.111,0.783 -0.562,0.742 -0.975,0.897c-1.369,0.458 -2.657,1.127 -3.818,1.983c-2.339,1.849 -3.483,4.255 -2.903,7.212c0.496,2.358 1.123,4.685 1.878,6.973c0.309,0.883 0.79,1.695 1.415,2.391c2.94,3.396 7.985,2.622 10.607,0.232c2.466,-2.247 3.038,-5.661 1.513,-8.922c-0.445,-1.022 -1.133,-1.92 -2.005,-2.614c-0.871,-0.695 -1.9,-1.165 -2.995,-1.371c-1.095,-0.206 -2.224,-0.14 -3.288,0.191c-1.064,0.332 -2.03,0.918 -2.816,1.709Zm4.633,9.341c-1.992,0.051 -3.795,-1.797 -3.807,-3.903c0.009,-0.962 0.391,-1.882 1.065,-2.568c0.673,-0.686 1.586,-1.084 2.547,-1.111c1.947,-0.005 3.467,1.752 3.486,4.03c0.021,0.45 -0.048,0.9 -0.203,1.324c-0.155,0.423 -0.392,0.811 -0.699,1.141c-0.306,0.331 -0.675,0.597 -1.086,0.783c-0.411,0.187 -0.854,0.29 -1.304,0.303l0.001,0.001Z" style="fill:#fff;fill-rule:nonzero;"/><path d="M334.722,213.75l-4.354,-5.187l1.465,-1.383l-2.282,-2.704l-6.192,5.217l2.291,2.712l1.567,-1.199l1.141,1.373l-4.734,3.984c-0.402,-0.498 -0.75,-0.928 -1.162,-1.439l1.433,-1.221c-0.796,-0.95 -1.522,-1.816 -2.293,-2.736l-6.198,5.216c0.795,0.947 1.525,1.817 2.282,2.716l1.663,-1.263l4.363,5.199l-1.524,1.42c0.789,0.94 1.503,1.787 2.277,2.709l6.198,-5.217c-0.812,-0.963 -1.541,-1.826 -2.292,-2.719c-0.558,0.431 -1.004,0.775 -1.523,1.176l-1.451,-1.756l4.745,-3.987l1.432,1.761l-1.43,1.334l2.283,2.712l6.183,-5.217l-2.269,-2.707l-1.619,1.206Z" style="fill:#fff;fill-rule:nonzero;"/><path d="M316.5,227.856c-1.038,-2.014 -2.052,-3.978 -3.079,-5.969l1.431,-0.892l-1.652,-3.144c-1.368,0.707 -2.624,1.401 -3.922,2.006c-0.295,0.12 -0.553,0.317 -0.744,0.572c-0.192,0.254 -0.311,0.556 -0.344,0.873c-0.541,3.048 -1.132,6.087 -1.712,9.128c-0.082,0.302 -0.179,0.599 -0.293,0.891l-2.327,-4.503l1.416,-0.901c-0.542,-1.047 -1.062,-2.048 -1.622,-3.131c-2.274,1.181 -4.435,2.303 -6.684,3.47l1.63,3.131l1.624,-0.686l3.099,5.996l-1.457,0.913c0.528,1.115 1.039,2.121 1.637,3.12c1.365,-0.705 2.591,-1.397 3.868,-1.973c0.328,-0.133 0.614,-0.353 0.826,-0.637c0.213,-0.284 0.343,-0.62 0.377,-0.973c0.548,-2.973 1.148,-5.937 1.736,-8.903c0.085,-0.285 0.187,-0.564 0.308,-0.835c0.819,1.567 1.582,2.923 2.225,4.355l-1.469,0.917l1.635,3.134l6.682,-3.482c-0.589,-1.118 -1.104,-2.097 -1.632,-3.099l-1.557,0.622Z" style="fill:#fff;fill-rule:nonzero;"/><path d="M178.794,190.083l3.117,-1.585c-2.45,-4.826 -4.839,-9.533 -7.247,-14.278c-1.077,0.477 -2.126,1.016 -3.141,1.613c0.305,0.664 0.554,1.208 0.849,1.849c-1.145,0.518 -2.17,1.045 -3.24,1.451c-1.808,0.686 -3.222,0.217 -4.343,-1.351c-0.225,-0.313 -0.432,-0.638 -0.694,-1.027l-3.114,1.611c0.401,0.781 0.715,1.428 1.061,2.058c0.567,1.142 1.5,2.061 2.651,2.609c1.151,0.548 2.453,0.695 3.697,0.416c1.665,-0.324 3.273,-0.885 4.777,-1.669c0.339,-0.166 0.692,-0.303 1.085,-0.474c0.605,1.191 1.194,2.244 1.694,3.418l-6.109,3.095l-0.953,-1.778c-1.762,0.677 -2.66,1.198 -3.093,1.795l3.808,7.518c1.097,-0.459 2.158,-0.995 3.178,-1.605l-1.054,-2.272c2.079,-1.062 4.039,-2.091 6.078,-3.057l0.993,1.663Z" style="fill:#fff;fill-rule:nonzero;"/><path d="M228.184,229.457c-0.425,1.082 -1.5,1.38 -2.353,1.942c-0.138,0.036 -0.286,0.019 -0.412,-0.047c-0.397,-0.149 -0.785,-0.32 -1.25,-0.513c0.695,-1.82 1.359,-3.558 2.06,-5.394l-5.838,-2.275c-0.443,1.162 -0.847,2.218 -1.269,3.321c0.412,0.177 0.707,0.3 0.996,0.431c0.315,0.141 0.627,0.291 1.004,0.467c-0.837,2.143 -1.631,4.177 -2.468,6.321l-2.076,-0.732l-1.29,3.327l7.204,2.802l1.278,-3.291l-1.288,-0.664c0.231,-0.557 0.443,-1.073 0.645,-1.559c0.43,-0.005 0.848,0.142 1.18,0.416c0.332,0.273 0.557,0.655 0.634,1.078c0.514,1.687 1.127,3.344 1.731,5.002c0.09,0.337 0.294,0.632 0.578,0.835c1.002,0.465 2.047,0.83 3.16,1.265l1.293,-3.334c-0.504,-0.202 -0.911,-0.337 -1.291,-0.528c-0.265,-0.098 -0.493,-0.274 -0.654,-0.506c-0.564,-1.272 -1.072,-2.57 -1.628,-3.929c1.301,-0.75 2.47,-1.455 3.673,-2.092c0.3,-0.086 0.62,-0.072 0.912,0.04c0.504,0.133 0.99,0.332 1.54,0.526c0.443,-1.149 0.842,-2.175 1.277,-3.3l-6.23,-2.426c-0.404,1.016 -0.764,1.918 -1.118,2.817Z" style="fill:#fff;fill-rule:nonzero;"/><path d="M367.385,146.442c-0.937,-0.039 -1.875,-0.01 -2.813,-0.013c-1.574,-0.006 -1.815,-0.187 -2.301,-1.71c-0.219,-0.687 -0.439,-1.373 -0.659,-2.059c-0.056,-0.171 -0.116,-0.341 -0.179,-0.51c-0.083,-0.261 -0.248,-0.488 -0.471,-0.648c-0.223,-0.16 -0.492,-0.243 -0.765,-0.237c-0.276,-0.005 -0.544,0.082 -0.765,0.246c-0.221,0.164 -0.38,0.396 -0.456,0.661c-0.335,0.951 -0.631,1.917 -0.955,2.871c-0.388,1.145 -0.693,1.371 -1.875,1.383c-1.01,0.013 -2.02,-0.015 -3.029,0.013c-0.309,-0.037 -0.621,0.035 -0.882,0.204c-0.26,0.17 -0.453,0.425 -0.545,0.723c-0.188,0.596 -0.01,1.079 0.627,1.578c0.794,0.624 1.605,1.221 2.406,1.84c0.984,0.762 1.116,1.147 0.765,2.324c-0.298,1.001 -0.647,1.987 -0.932,2.992c-0.126,0.285 -0.146,0.606 -0.056,0.905c0.091,0.298 0.286,0.554 0.55,0.72c0.241,0.165 0.53,0.242 0.821,0.219c0.291,-0.024 0.564,-0.146 0.775,-0.347c0.609,-0.448 1.227,-0.888 1.837,-1.336c1.629,-1.195 1.808,-1.199 3.409,-0.051c0.615,0.443 1.222,0.895 1.848,1.32c0.665,0.451 1.191,0.468 1.698,0.094c0.507,-0.374 0.618,-0.858 0.397,-1.656c-0.049,-0.174 -0.107,-0.345 -0.163,-0.516c-0.254,-0.788 -0.523,-1.572 -0.761,-2.366c-0.325,-1.087 -0.179,-1.537 0.728,-2.248c0.821,-0.646 1.656,-1.273 2.49,-1.906c0.185,-0.109 0.342,-0.26 0.458,-0.442c0.115,-0.181 0.186,-0.387 0.206,-0.601c0.015,-0.191 -0.01,-0.383 -0.075,-0.563c-0.064,-0.18 -0.167,-0.344 -0.3,-0.481c-0.134,-0.137 -0.295,-0.244 -0.473,-0.313c-0.179,-0.07 -0.369,-0.1 -0.56,-0.09Z" style="fill:#fff;fill-rule:nonzero;"/><path d="M164.853,155.786c0.775,0.525 1.522,1.091 2.29,1.626c0.819,0.57 1.335,0.624 1.868,0.201c0.658,-0.52 0.561,-1.176 0.332,-1.865c-0.286,-0.853 -0.553,-1.712 -0.817,-2.573c-0.379,-1.243 -0.256,-1.622 0.769,-2.41c0.83,-0.636 1.678,-1.245 2.487,-1.905c0.775,-0.632 0.858,-1.484 0.166,-2.021c-0.35,-0.239 -0.762,-0.373 -1.186,-0.387c-0.97,-0.055 -1.945,-0.011 -2.917,-0.022c-1.195,-0.015 -1.489,-0.23 -1.877,-1.379c-0.322,-0.954 -0.618,-1.918 -0.945,-2.87c-0.079,-0.261 -0.239,-0.49 -0.456,-0.654c-0.217,-0.165 -0.481,-0.257 -0.754,-0.262c-0.272,-0.005 -0.54,0.077 -0.763,0.233c-0.223,0.156 -0.391,0.378 -0.481,0.636c-0.09,0.235 -0.166,0.475 -0.246,0.714c-0.27,0.821 -0.537,1.642 -0.809,2.462c-0.082,0.337 -0.279,0.634 -0.559,0.839c-0.279,0.206 -0.622,0.305 -0.968,0.282c-0.54,-0.004 -1.08,0 -1.621,0l0,0.006l-1.62,-0c-0.309,-0.032 -0.619,0.038 -0.884,0.198c-0.265,0.159 -0.471,0.401 -0.588,0.687c-0.24,0.591 -0.032,1.107 0.664,1.661c0.764,0.601 1.55,1.178 2.319,1.77c1.075,0.822 1.186,1.18 0.772,2.502c-0.291,0.928 -0.628,1.843 -0.865,2.783c-0.111,0.407 -0.094,0.838 0.05,1.235c0.32,0.73 1.172,0.882 1.924,0.377c0.868,-0.581 1.69,-1.227 2.546,-1.826c0.289,-0.28 0.675,-0.439 1.077,-0.446c0.402,-0.007 0.792,0.139 1.092,0.408Z" style="fill:#fff;fill-rule:nonzero;"/><path d="M355.123,185.993c-2.1,-1.095 -4.132,-2.13 -6.143,-3.335l1.162,-2.075l2.41,1.172l1.876,-3.525l-5.428,-2.909l-8.041,14.997c1.858,0.997 3.597,1.971 5.446,2.896l1.869,-3.506l-2.346,-1.327l1.12,-2.048c2.094,1.125 4.13,2.155 6.11,3.316c-0.346,0.724 -0.635,1.328 -0.945,1.974l3.12,1.668l4.143,-7.719l-3.136,-1.668c-0.428,0.737 -0.803,1.378 -1.217,2.089Z" style="fill:#fff;fill-rule:nonzero;"/><path d="M347.121,199.357c-0.558,-0.432 -1.038,-0.8 -1.516,-1.171c-1.112,-0.86 -2.18,-1.784 -3.343,-2.569c-2.034,-1.372 -3.972,-1.243 -5.875,0.309c-1.325,1.073 -2.348,2.472 -2.97,4.059c-0.477,1.078 -0.727,2.244 -0.734,3.423l2.647,0.568c0.138,-0.429 0.228,-0.736 0.332,-1.037c0.441,-1.421 1.281,-2.685 2.42,-3.643c1.03,-0.819 1.888,-0.719 2.842,0.25c-0.521,0.558 -0.992,1.052 -1.454,1.557c-1.006,0.992 -1.742,2.224 -2.136,3.581c-0.223,0.75 -0.22,1.549 0.009,2.297c0.229,0.748 0.673,1.412 1.278,1.909c0.572,0.563 1.303,0.937 2.094,1.072c0.791,0.135 1.604,0.025 2.33,-0.316c0.774,-0.376 1.484,-0.873 2.103,-1.471c1.027,-0.951 1.648,-2.26 1.737,-3.657c0.316,0.004 0.628,-0.067 0.912,-0.207c1.126,-1.346 2.203,-2.734 3.342,-4.168l-2.781,-2.219l-1.237,1.433Zm-3.072,5.091c-0.254,0.512 -0.587,0.98 -0.986,1.389c-0.246,0.292 -0.596,0.477 -0.975,0.518c-0.38,0.041 -0.761,-0.067 -1.063,-0.3c-0.303,-0.234 -0.503,-0.575 -0.561,-0.953c-0.057,-0.378 0.034,-0.763 0.254,-1.075c0.204,-0.336 0.435,-0.655 0.692,-0.953c0.465,-0.59 0.941,-1.172 1.417,-1.752c0.079,-0.057 0.165,-0.102 0.257,-0.133c1.639,1.092 1.792,1.557 0.962,3.26l0.003,-0.001Z" style="fill:#fff;fill-rule:nonzero;"/><path d="M179.897,198.964l6.459,8.165c1.129,-0.796 2.1,-1.795 2.864,-2.945c0.62,-0.936 0.976,-2.022 1.031,-3.143c0.063,-2.962 -1.36,-5.138 -3.811,-6.572c-4.784,-2.801 -10.062,0.784 -11.077,4.993c-0.19,0.768 -0.245,1.563 -0.163,2.35c0.396,3.386 3.282,6.563 6.758,7.467l1.162,-2.661c-0.383,-0.263 -0.723,-0.461 -1.021,-0.711c-0.715,-0.599 -1.445,-1.187 -2.103,-1.847c-0.673,-0.669 -1.084,-1.557 -1.157,-2.503c-0.092,-0.488 -0.041,-0.992 0.147,-1.452c0.188,-0.46 0.504,-0.856 0.911,-1.141Zm6.102,-0.673c1.052,1.328 1.022,2.485 -0.196,3.74l-3.639,-4.614c1.394,-0.836 2.753,-0.494 3.835,0.874Z" style="fill:#fff;fill-rule:nonzero;"/><path d="M243.003,230.238c-0.984,-0.003 -1.959,0.192 -2.867,0.572c-0.908,0.38 -1.731,0.938 -2.421,1.641c-0.689,0.703 -1.231,1.536 -1.594,2.451c-0.363,0.916 -0.539,1.894 -0.518,2.878c0,3.923 2.819,7.327 7.678,7.361c4.972,0.035 7.339,-4.04 7.337,-7.457c0.03,-4.179 -3.269,-7.406 -7.615,-7.446Zm0.092,11.192c-0.47,0.01 -0.938,-0.075 -1.373,-0.252c-0.436,-0.176 -0.832,-0.439 -1.162,-0.773c-0.331,-0.334 -0.591,-0.732 -0.763,-1.17c-0.172,-0.437 -0.253,-0.906 -0.238,-1.375c-0.017,-2.259 1.506,-3.937 3.565,-3.926c0.471,-0.028 0.943,0.044 1.384,0.212c0.441,0.169 0.841,0.429 1.173,0.765c0.332,0.334 0.589,0.737 0.753,1.179c0.165,0.443 0.232,0.915 0.2,1.386c-0.026,2.648 -1.897,4.095 -3.539,3.955l-0,-0.001Z" style="fill:#fff;fill-rule:nonzero;"/><path d="M208.47,216.663c-3.785,-0.088 -7.471,3.106 -7.533,7.626c-0.055,3.926 3.609,7.373 7.703,7.399c3.976,0.024 7.36,-3.425 7.381,-7.527c0.02,-4.043 -3.411,-7.401 -7.551,-7.498Zm-0.131,11.255c-0.46,-0.002 -0.915,-0.095 -1.337,-0.275c-0.424,-0.179 -0.807,-0.441 -1.127,-0.771c-0.321,-0.329 -0.572,-0.719 -0.739,-1.147c-0.169,-0.428 -0.249,-0.885 -0.238,-1.344c0,-2.128 1.729,-3.985 3.718,-4.001c0.925,-0.002 1.813,0.36 2.474,1.008c0.66,0.647 1.04,1.528 1.057,2.453c-0.011,2.131 -1.82,4.067 -3.808,4.077l-0,-0Z" style="fill:#fff;fill-rule:nonzero;"/><path d="M203.993,213.974c-0.288,-0.34 -0.598,-0.66 -0.929,-0.957c-0.631,-0.481 -1.102,-1.141 -1.352,-1.893c-0.466,-1.179 -1.243,-2.21 -2.249,-2.981c-2.278,-1.921 -4.823,-2.422 -7.547,-1.231c-1.338,0.528 -2.492,1.437 -3.319,2.614c-0.827,1.177 -1.291,2.57 -1.335,4.008c-0.287,4.621 4.165,8.566 8.756,7.851c0.842,-0.054 1.644,-0.382 2.283,-0.934c-0.325,-0.514 -0.63,-0.998 -0.941,-1.482c-0.326,-0.509 -0.658,-1.016 -0.951,-1.467c-0.669,0.12 -1.347,0.185 -2.027,0.193c-0.477,-0.032 -0.943,-0.161 -1.369,-0.378c-0.426,-0.218 -0.803,-0.521 -1.107,-0.889c-0.305,-0.369 -0.531,-0.796 -0.665,-1.255c-0.134,-0.459 -0.173,-0.941 -0.114,-1.415c0.257,-2.09 2.259,-3.73 4.234,-3.467c0.841,0.133 1.618,0.534 2.213,1.143c0.596,0.609 0.98,1.393 1.095,2.237c0.009,0.348 0.116,0.687 0.309,0.977c0.755,0.759 1.584,1.444 2.435,2.202l2.58,-2.876Z" style="fill:#fff;fill-rule:nonzero;"/><path d="M370.212,98.886c-0.417,-0.1 -0.806,-0.295 -1.136,-0.571c-0.647,-0.577 -1.055,-1.375 -1.144,-2.239c-0.088,-0.862 0.15,-1.727 0.667,-2.424c0.105,-0.14 0.2,-0.287 0.297,-0.427l-1.186,-3.371c-1.634,1.235 -2.747,2.62 -2.864,4.6c-0.142,2.18 0.565,4.33 1.973,6.001c1.303,1.595 3.058,2.149 5.253,1.992c-0.346,-1.007 -0.674,-1.841 -0.912,-2.699c-0.047,-0.225 -0.165,-0.429 -0.335,-0.584c-0.17,-0.155 -0.385,-0.252 -0.613,-0.278Z" style="fill:#fff;fill-rule:nonzero;"/><path d="M279.12,142.539c-1.32,-0.735 -2.679,-1.397 -4.071,-1.985c-0.68,-0.306 -1.411,-0.503 -2.188,-0.774c0.044,-0.754 0.099,-1.469 0.124,-2.185c0.051,-1.482 -0.636,-2.185 -2.106,-2.279c-0.898,-0.038 -1.791,-0.152 -2.67,-0.343c-3.998,-0.96 -7.305,-3.177 -10.358,-5.826c-0.524,-0.455 -0.566,-0.822 -0.156,-1.527c0.834,-1.431 1.625,-2.898 2.577,-4.247c3.32,-4.593 7.164,-8.785 11.453,-12.489c2.729,-2.416 5.556,-4.713 8.854,-6.346c0.256,-0.132 0.489,-0.304 0.692,-0.508c1.46,-1.446 2.933,-2.884 4.357,-4.364c0.285,-0.267 0.515,-0.588 0.677,-0.944c0.161,-0.356 0.251,-0.741 0.262,-1.132c0.012,-0.391 -0.053,-0.78 -0.192,-1.146c-0.139,-0.365 -0.349,-0.7 -0.618,-0.984c-1.597,-1.715 -3.258,-3.375 -4.966,-4.976c-0.57,-0.545 -1.331,-0.845 -2.119,-0.834c-0.789,0.011 -1.541,0.331 -2.096,0.892c-0.268,0.24 -0.516,0.505 -0.771,0.76c-8.743,8.748 -17.487,17.497 -26.231,26.248c-0.197,0.254 -0.445,0.465 -0.727,0.619c-0.283,0.155 -0.595,0.25 -0.915,0.278c-0.913,0.063 -1.764,0.481 -2.374,1.162c-2.575,2.576 -5.168,5.135 -7.72,7.733c-0.39,0.367 -0.701,0.81 -0.915,1.302c-0.214,0.491 -0.326,1.021 -0.329,1.556c-0.003,0.536 0.103,1.067 0.311,1.561c0.209,0.494 0.515,0.94 0.901,1.311c1.645,1.72 3.349,3.384 5.043,5.055c0.393,0.43 0.885,0.757 1.434,0.954c0.548,0.196 1.136,0.255 1.713,0.173c1.047,-0.174 1.524,0.294 1.93,1.167c-0.388,0.171 -0.744,0.332 -1.104,0.483c-1.684,0.651 -3.253,1.567 -4.648,2.712c-0.86,0.691 -1.55,1.569 -2.018,2.569c-0.467,0.998 -0.699,2.091 -0.679,3.194c0.027,11.613 0.011,23.225 0.016,34.837c-0.009,0.396 0.028,0.793 0.111,1.18c0.084,0.324 0.255,0.619 0.496,0.852c0.24,0.233 0.54,0.396 0.866,0.471c0.326,0.075 0.667,0.059 0.985,-0.046c0.317,-0.105 0.601,-0.296 0.818,-0.55c0.354,-0.417 0.53,-0.956 0.489,-1.501c-0.008,-1.767 -0.008,-3.534 0,-5.301c0,-0.303 0.051,-0.608 0.087,-0.996c0.233,0.083 0.462,0.177 0.685,0.282c2.47,1.276 5.109,2.193 7.838,2.72c0.281,0.065 0.568,0.1 0.856,0.106c0.436,0.011 0.862,-0.133 1.203,-0.406c0.34,-0.274 0.572,-0.659 0.655,-1.087c0.083,-0.429 0.012,-0.873 -0.202,-1.253c-0.213,-0.381 -0.554,-0.674 -0.963,-0.827c-0.402,-0.152 -0.844,-0.19 -1.254,-0.322c-1.816,-0.581 -3.653,-1.111 -5.428,-1.798c-0.854,-0.383 -1.651,-0.882 -2.37,-1.483c-0.378,-0.281 -0.679,-0.653 -0.875,-1.081c-0.196,-0.428 -0.281,-0.899 -0.248,-1.369c0.046,-1.73 0.009,-3.462 0.018,-5.193c0.02,-0.281 0.058,-0.56 0.115,-0.836c1.141,0.559 2.147,1.119 3.205,1.557c4.704,1.951 9.643,2.619 14.698,2.619c0.145,0.004 0.288,-0.005 0.431,-0.026c0.341,-0.053 0.66,-0.2 0.921,-0.426c0.26,-0.226 0.451,-0.521 0.55,-0.851c0.108,-0.308 0.126,-0.641 0.054,-0.96c-0.073,-0.319 -0.233,-0.61 -0.464,-0.841c-0.199,-0.209 -0.439,-0.373 -0.707,-0.48c-0.267,-0.107 -0.555,-0.154 -0.842,-0.14c-1.799,-0.1 -3.602,-0.181 -5.392,-0.371c-2.731,-0.271 -5.406,-0.947 -7.938,-2.006c-1.241,-0.496 -2.391,-1.197 -3.4,-2.074c-0.311,-0.222 -0.574,-0.503 -0.776,-0.827c-0.201,-0.324 -0.337,-0.685 -0.399,-1.061c-0.079,-1.6 -0.024,-3.207 -0.024,-4.98c0.941,0.49 1.708,0.935 2.513,1.301c0.818,0.373 1.66,0.695 2.512,0.991c0.816,0.285 1.645,0.538 2.483,0.749c0.873,0.221 1.759,0.39 2.646,0.546c0.886,0.155 1.779,0.287 2.673,0.387c0.895,0.1 1.794,0.172 2.693,0.219c0.864,0.045 1.731,0.055 2.595,0.055c0.902,-0 1.804,-0.011 2.704,-0.055c0.9,-0.045 1.798,-0.119 2.693,-0.222c0.895,-0.102 1.785,-0.241 2.67,-0.401c0.886,-0.16 1.771,-0.338 2.642,-0.559c0.838,-0.211 1.67,-0.456 2.484,-0.744c0.848,-0.298 1.684,-0.64 2.502,-1.013c0.795,-0.362 1.562,-0.787 2.358,-1.195c0.046,0.116 0.081,0.236 0.106,0.357c0.007,3.318 0.012,6.635 0.015,9.953c0.003,0.363 -0.068,0.723 -0.211,1.057c-0.141,0.334 -0.351,0.636 -0.614,0.886c-0.536,0.532 -1.122,1.012 -1.749,1.433c-1.411,0.876 -2.943,1.539 -4.547,1.97c-0.691,0.203 -1.394,0.365 -2.085,0.568c-0.355,0.079 -0.678,0.266 -0.923,0.536c-0.244,0.27 -0.4,0.609 -0.445,0.97c-0.055,0.313 -0.029,0.635 0.076,0.935c0.105,0.3 0.286,0.567 0.525,0.777c0.239,0.209 0.528,0.354 0.839,0.419c0.311,0.065 0.633,0.049 0.937,-0.047c2.545,-0.53 4.994,-1.45 7.258,-2.729c0.256,-0.149 0.534,-0.261 0.945,-0.46l0,12.516c-0.013,0.36 -0.001,0.721 0.035,1.08c0.06,0.442 0.281,0.848 0.618,1.14c0.338,0.292 0.771,0.451 1.217,0.448c0.447,-0.003 0.877,-0.169 1.21,-0.466c0.334,-0.297 0.548,-0.706 0.603,-1.149c0.035,-0.395 0.045,-0.792 0.032,-1.188l-0,-24.776c-0,-3.39 -0.024,-6.779 0.009,-10.169c0.021,-0.832 -0.127,-1.659 -0.434,-2.432c-0.309,-0.774 -0.77,-1.476 -1.357,-2.065c-0.709,-0.768 -1.516,-1.438 -2.4,-1.995Zm-10.117,-3.547c0.023,0.283 0.021,0.567 -0.007,0.849c-0.526,2.818 -1.928,5.4 -4.005,7.376c-0.208,0.221 -0.461,0.394 -0.742,0.509c-0.281,0.114 -0.583,0.167 -0.886,0.155c-2.228,-0.039 -4.458,-0.015 -6.796,-0.015c-1.421,-4.055 -3.644,-7.783 -6.537,-10.961l5.112,-5.104c3.982,3.421 8.401,6.248 13.861,7.191Zm9.958,-45.137c0.87,0.882 1.83,1.855 2.789,2.831c0.225,0.229 0.44,0.468 0.71,0.757c-0.19,0.235 -0.349,0.463 -0.537,0.661c-1.645,1.813 -3.55,3.371 -5.653,4.624c-2.858,1.623 -5.335,3.809 -7.765,6.018c-4.038,3.605 -7.699,7.61 -10.929,11.954c-0.697,0.955 -1.345,1.946 -1.957,2.837c-1.112,-1.106 -2.199,-2.185 -3.182,-3.162l26.524,-26.52Zm-33.369,41.726c-1.755,-1.729 -3.525,-3.486 -5.168,-5.184c2.767,-2.764 5.429,-5.426 8.129,-8.125c1.862,1.58 3.595,3.306 5.183,5.162c-0.401,0.727 -7.152,7.517 -8.144,8.149l-0,-0.002Zm33.553,14.416c-0.532,0.677 -1.157,1.276 -1.857,1.777c-1.806,1.202 -3.826,2.044 -5.95,2.482c-7.453,1.732 -14.859,1.677 -22.182,-0.711c-1.519,-0.471 -2.943,-1.207 -4.206,-2.174c-2.208,-1.734 -2.239,-3.36 -0.067,-5.1c1.555,-1.181 3.328,-2.041 5.218,-2.53c0.132,-0.012 0.265,-0.007 0.395,0.017c0.821,1.23 1.484,2.558 1.973,3.953c-0.35,0.092 -0.621,0.145 -0.88,0.235c-0.396,0.134 -0.737,0.392 -0.973,0.737c-0.236,0.345 -0.353,0.757 -0.335,1.174c0.043,0.434 0.234,0.841 0.542,1.15c0.309,0.309 0.714,0.501 1.149,0.545c0.323,0.027 0.648,0.035 0.972,0.026l16.98,0c0.325,0.011 0.649,0.001 0.972,-0.029c0.45,-0.055 0.863,-0.274 1.163,-0.615c0.299,-0.34 0.462,-0.779 0.459,-1.232c-0.004,-0.453 -0.174,-0.889 -0.478,-1.225c-0.304,-0.336 -0.722,-0.549 -1.172,-0.597c-0.378,-0.045 -0.76,-0.055 -1.225,-0.087l2.347,-4.302c2.324,0.69 4.574,1.513 6.414,3.176c0.291,0.269 0.547,0.573 0.762,0.907c0.27,0.347 0.416,0.775 0.412,1.216c-0.004,0.44 -0.156,0.867 -0.433,1.209l0,-0.002Z" style="fill:#fff;fill-rule:nonzero;"/><path d="M285.722,134.847c-0.965,-0.099 -1.937,-0.096 -2.901,0.011c-0.452,0.054 -0.868,0.276 -1.166,0.62c-0.299,0.344 -0.459,0.788 -0.449,1.243c0.024,0.473 0.222,0.921 0.556,1.257c0.335,0.335 0.782,0.535 1.255,0.56c0.429,0.035 0.863,0.006 1.296,0.006c0.395,-0 0.792,0.02 1.187,-0.004c0.472,-0.011 0.923,-0.195 1.266,-0.519c0.344,-0.323 0.556,-0.763 0.595,-1.233c0.033,-0.473 -0.12,-0.941 -0.426,-1.303c-0.306,-0.363 -0.741,-0.592 -1.213,-0.638Z" style="fill:#fff;fill-rule:nonzero;"/><path d="M271.765,120.974c-0.474,-0.041 -0.945,0.107 -1.309,0.413c-0.364,0.306 -0.592,0.744 -0.633,1.217c-0.107,0.928 -0.112,1.865 -0.016,2.793c0.016,0.244 0.081,0.482 0.191,0.7c0.11,0.219 0.263,0.413 0.449,0.57c0.187,0.158 0.404,0.276 0.638,0.348c0.233,0.072 0.479,0.096 0.722,0.07c0.471,-0.041 0.909,-0.257 1.227,-0.607c0.318,-0.35 0.492,-0.807 0.489,-1.279c0.022,-0.395 0.003,-0.791 0.003,-1.187c0,-0.395 0.021,-0.792 -0.004,-1.186c-0.01,-0.472 -0.195,-0.924 -0.52,-1.266c-0.325,-0.342 -0.766,-0.552 -1.237,-0.586Z" style="fill:#fff;fill-rule:nonzero;"/><path d="M281.317,124.997c-0.227,0.019 -0.446,0.089 -0.642,0.204c-0.914,0.798 -1.771,1.66 -2.566,2.577c-0.511,0.634 -0.246,1.584 0.354,2.153c0.287,0.308 0.678,0.498 1.098,0.534c0.419,0.036 0.836,-0.085 1.171,-0.339c0.8,-0.668 1.543,-1.402 2.219,-2.195c0.224,-0.266 0.356,-0.597 0.376,-0.944c0.021,-0.347 -0.071,-0.691 -0.261,-0.982c-0.168,-0.315 -0.421,-0.577 -0.731,-0.755c-0.308,-0.178 -0.661,-0.266 -1.018,-0.253Z" style="fill:#fff;fill-rule:nonzero;"/><path d="M328.395,137.257c-0.135,-0.001 -0.269,0.027 -0.392,0.083c-0.123,0.056 -0.232,0.137 -0.32,0.239c-0.089,0.102 -0.154,0.222 -0.192,0.351c-0.038,0.13 -0.047,0.266 -0.027,0.399c-0.001,0.126 0.024,0.25 0.073,0.365c0.049,0.116 0.122,0.22 0.212,0.306c0.092,0.086 0.199,0.153 0.318,0.195c0.118,0.043 0.243,0.061 0.368,0.053c0.126,-0.008 0.248,-0.041 0.361,-0.097c0.112,-0.055 0.212,-0.132 0.295,-0.227c0.082,-0.095 0.145,-0.205 0.185,-0.324c0.039,-0.119 0.054,-0.244 0.045,-0.369c0.005,-0.125 -0.016,-0.25 -0.06,-0.368c-0.044,-0.117 -0.111,-0.224 -0.197,-0.315c-0.087,-0.091 -0.191,-0.163 -0.305,-0.213c-0.115,-0.051 -0.239,-0.077 -0.364,-0.078Z" style="fill:#fff;fill-rule:nonzero;"/><path d="M196.332,129.232c0.251,0 0.492,-0.097 0.672,-0.272c0.18,-0.175 0.285,-0.413 0.293,-0.664c-0.026,-0.23 -0.129,-0.445 -0.291,-0.609c-0.163,-0.165 -0.377,-0.269 -0.607,-0.297c-0.124,-0 -0.247,0.024 -0.362,0.071c-0.115,0.047 -0.22,0.117 -0.308,0.205c-0.088,0.087 -0.158,0.192 -0.206,0.306c-0.048,0.115 -0.072,0.238 -0.072,0.363c0.009,0.232 0.104,0.453 0.267,0.619c0.163,0.166 0.382,0.265 0.614,0.278Z" style="fill:#fff;fill-rule:nonzero;"/><path d="M217.911,187.063c-0.25,-0.001 -0.491,0.096 -0.672,0.269c-0.181,0.174 -0.286,0.411 -0.296,0.661c0.027,0.229 0.13,0.443 0.292,0.608c0.162,0.165 0.374,0.272 0.602,0.304c0.25,-0.003 0.49,-0.103 0.666,-0.281c0.177,-0.177 0.278,-0.417 0.279,-0.667c-0.002,-0.233 -0.095,-0.455 -0.257,-0.621c-0.162,-0.167 -0.382,-0.264 -0.614,-0.273Z" style="fill:#fff;fill-rule:nonzero;"/><path d="M197.316,148.56c-0.007,-0.244 -0.112,-0.476 -0.29,-0.644c-0.178,-0.168 -0.416,-0.258 -0.661,-0.251c-0.244,0.008 -0.476,0.112 -0.644,0.29c-0.167,0.178 -0.258,0.416 -0.251,0.661c0.004,0.121 0.031,0.24 0.081,0.351c0.05,0.11 0.121,0.21 0.209,0.293c0.088,0.083 0.193,0.148 0.306,0.191c0.113,0.043 0.234,0.063 0.355,0.06c0.121,-0.004 0.24,-0.031 0.351,-0.081c0.111,-0.05 0.21,-0.121 0.293,-0.209c0.083,-0.088 0.148,-0.192 0.191,-0.305c0.043,-0.114 0.064,-0.234 0.06,-0.356Z" style="fill:#fff;fill-rule:nonzero;"/><path d="M309.841,183.467c-0.25,0.018 -0.483,0.129 -0.656,0.31c-0.173,0.181 -0.272,0.42 -0.278,0.671c0.02,0.232 0.126,0.449 0.298,0.607c0.172,0.157 0.396,0.245 0.63,0.246c0.233,0.004 0.458,-0.083 0.629,-0.241c0.171,-0.159 0.274,-0.378 0.287,-0.61c0.009,-0.251 -0.082,-0.496 -0.252,-0.679c-0.171,-0.185 -0.407,-0.294 -0.658,-0.304Z" style="fill:#fff;fill-rule:nonzero;"/><path d="M313.246,179.693c-0.232,-0.007 -0.458,0.076 -0.632,0.229c-0.174,0.155 -0.283,0.37 -0.304,0.601c-0.013,0.25 0.073,0.495 0.238,0.683c0.166,0.188 0.398,0.304 0.648,0.323c0.231,-0.011 0.452,-0.101 0.625,-0.255c0.174,-0.155 0.289,-0.364 0.327,-0.592c0.007,-0.25 -0.083,-0.492 -0.251,-0.677c-0.169,-0.184 -0.402,-0.296 -0.651,-0.312Z" style="fill:#fff;fill-rule:nonzero;"/><path d="M225.829,83.586c0.232,-0.015 0.451,-0.112 0.617,-0.275c0.166,-0.162 0.269,-0.379 0.289,-0.61c-0.006,-0.25 -0.107,-0.489 -0.283,-0.668c-0.175,-0.178 -0.411,-0.284 -0.661,-0.295c-0.231,0.017 -0.449,0.117 -0.613,0.281c-0.164,0.164 -0.264,0.381 -0.282,0.613c-0.003,0.124 0.018,0.248 0.064,0.364c0.045,0.116 0.113,0.222 0.2,0.311c0.088,0.089 0.192,0.16 0.306,0.207c0.115,0.048 0.239,0.073 0.363,0.072Z" style="fill:#fff;fill-rule:nonzero;"/><path d="M234.806,198.096c-0.232,0.018 -0.448,0.124 -0.603,0.298c-0.155,0.173 -0.236,0.4 -0.227,0.633c0.014,0.232 0.112,0.45 0.275,0.616c0.164,0.165 0.381,0.265 0.613,0.281c0.249,-0.012 0.485,-0.118 0.661,-0.295c0.176,-0.177 0.279,-0.413 0.29,-0.662c-0.021,-0.248 -0.139,-0.478 -0.327,-0.641c-0.188,-0.163 -0.434,-0.246 -0.682,-0.23Z" style="fill:#fff;fill-rule:nonzero;"/><path d="M293.704,195.771c-0.234,0.01 -0.456,0.109 -0.619,0.277c-0.164,0.167 -0.258,0.391 -0.263,0.625c-0.005,0.234 0.08,0.462 0.237,0.636c0.156,0.174 0.373,0.283 0.606,0.303c0.251,0.01 0.496,-0.078 0.683,-0.246c0.187,-0.168 0.302,-0.401 0.319,-0.652c-0.011,-0.25 -0.117,-0.486 -0.296,-0.661c-0.179,-0.175 -0.417,-0.276 -0.667,-0.282Z" style="fill:#fff;fill-rule:nonzero;"/><path d="M249.462,202.659c-0.233,-0.013 -0.462,0.063 -0.641,0.212c-0.179,0.149 -0.295,0.36 -0.326,0.591c-0.024,0.184 0.009,0.371 0.093,0.536c0.083,0.166 0.215,0.303 0.378,0.392c0.162,0.089 0.348,0.128 0.533,0.11c0.185,-0.017 0.36,-0.09 0.503,-0.209c0.142,-0.118 0.246,-0.277 0.297,-0.456c0.051,-0.178 0.047,-0.368 -0.011,-0.544c-0.058,-0.176 -0.168,-0.331 -0.315,-0.444c-0.148,-0.113 -0.326,-0.178 -0.511,-0.188Z" style="fill:#fff;fill-rule:nonzero;"/><path d="M239.439,76.816c0.23,-0.028 0.443,-0.131 0.609,-0.292c0.165,-0.161 0.274,-0.373 0.307,-0.601c-0.002,-0.251 -0.101,-0.491 -0.278,-0.669c-0.176,-0.178 -0.415,-0.28 -0.665,-0.285c-0.125,0.001 -0.247,0.029 -0.36,0.08c-0.114,0.051 -0.215,0.124 -0.299,0.216c-0.084,0.092 -0.148,0.2 -0.189,0.317c-0.04,0.118 -0.057,0.242 -0.048,0.366c0.027,0.23 0.134,0.444 0.303,0.603c0.169,0.159 0.389,0.253 0.62,0.265Z" style="fill:#fff;fill-rule:nonzero;"/><path d="M264.357,72.92c0.25,-0.002 0.489,-0.104 0.665,-0.281c0.177,-0.178 0.275,-0.418 0.276,-0.668c-0.004,-0.124 -0.032,-0.246 -0.084,-0.359c-0.052,-0.113 -0.126,-0.214 -0.219,-0.297c-0.092,-0.083 -0.199,-0.147 -0.317,-0.187c-0.117,-0.041 -0.241,-0.058 -0.365,-0.049c-0.23,0.029 -0.442,0.139 -0.598,0.31c-0.156,0.171 -0.247,0.392 -0.254,0.624c0.025,0.23 0.128,0.445 0.29,0.609c0.163,0.165 0.377,0.27 0.606,0.298Z" style="fill:#fff;fill-rule:nonzero;"/><path d="M202.571,166.973c-0.253,-0.005 -0.497,0.09 -0.682,0.262c-0.184,0.172 -0.295,0.409 -0.308,0.661c0.015,0.234 0.112,0.455 0.274,0.624c0.162,0.169 0.379,0.275 0.612,0.3c0.241,0.009 0.477,-0.078 0.656,-0.241c0.179,-0.163 0.287,-0.39 0.3,-0.632c0.014,-0.241 -0.068,-0.479 -0.227,-0.661c-0.159,-0.182 -0.384,-0.294 -0.625,-0.313Z" style="fill:#fff;fill-rule:nonzero;"/><path d="M264.594,203.781c-0.232,0.014 -0.453,0.108 -0.623,0.267c-0.17,0.16 -0.278,0.373 -0.307,0.605c-0.004,0.25 0.091,0.492 0.263,0.673c0.172,0.182 0.409,0.288 0.659,0.297c0.233,0 0.457,-0.088 0.628,-0.246c0.171,-0.158 0.276,-0.375 0.294,-0.607c0.004,-0.251 -0.088,-0.494 -0.259,-0.678c-0.17,-0.184 -0.405,-0.296 -0.655,-0.311Z" style="fill:#fff;fill-rule:nonzero;"/><path d="M274.529,74.043c0.232,-0.022 0.449,-0.126 0.611,-0.293c0.162,-0.168 0.26,-0.387 0.275,-0.62c-0.009,-0.252 -0.115,-0.491 -0.297,-0.665c-0.182,-0.175 -0.424,-0.272 -0.676,-0.271c-0.233,0.018 -0.451,0.121 -0.611,0.29c-0.161,0.169 -0.253,0.392 -0.259,0.625c-0,0.125 0.024,0.249 0.072,0.364c0.048,0.115 0.119,0.219 0.209,0.306c0.089,0.087 0.195,0.155 0.311,0.201c0.116,0.045 0.241,0.067 0.365,0.063Z" style="fill:#fff;fill-rule:nonzero;"/><path d="M323.626,162.24c-0.25,0.006 -0.488,0.109 -0.663,0.288c-0.175,0.179 -0.274,0.419 -0.275,0.669c0.002,0.233 0.094,0.456 0.257,0.622c0.162,0.167 0.383,0.264 0.616,0.27c0.25,0.002 0.492,-0.095 0.671,-0.27c0.18,-0.175 0.283,-0.413 0.289,-0.663c-0.027,-0.231 -0.13,-0.445 -0.291,-0.611c-0.162,-0.166 -0.374,-0.273 -0.604,-0.305Z" style="fill:#fff;fill-rule:nonzero;"/><path d="M327.253,133.082c0.006,0.233 0.098,0.456 0.26,0.625c0.162,0.168 0.381,0.271 0.614,0.286c0.251,0.003 0.493,-0.092 0.676,-0.264c0.183,-0.172 0.293,-0.408 0.306,-0.659c-0.016,-0.232 -0.112,-0.452 -0.273,-0.621c-0.161,-0.168 -0.377,-0.275 -0.609,-0.3c-0.251,-0 -0.493,0.097 -0.674,0.271c-0.181,0.174 -0.289,0.411 -0.3,0.662Z" style="fill:#fff;fill-rule:nonzero;"/><path d="M298.253,193.178c-0.242,-0.04 -0.49,0.017 -0.69,0.159c-0.2,0.143 -0.336,0.359 -0.376,0.601c-0.041,0.243 0.016,0.491 0.159,0.691c0.142,0.2 0.358,0.335 0.601,0.376c0.242,0.04 0.49,-0.017 0.69,-0.159c0.2,-0.143 0.336,-0.359 0.376,-0.601c0.04,-0.243 -0.017,-0.49 -0.159,-0.691c-0.143,-0.2 -0.358,-0.335 -0.601,-0.376Z" style="fill:#fff;fill-rule:nonzero;"/><path d="M328.195,142.507c-0.232,0.016 -0.451,0.112 -0.619,0.271c-0.169,0.159 -0.276,0.373 -0.304,0.603c-0.01,0.184 0.036,0.367 0.131,0.525c0.095,0.158 0.236,0.284 0.403,0.361c0.167,0.078 0.354,0.103 0.537,0.073c0.181,-0.03 0.35,-0.113 0.484,-0.24c0.134,-0.127 0.227,-0.291 0.266,-0.471c0.04,-0.18 0.025,-0.368 -0.043,-0.54c-0.068,-0.171 -0.186,-0.318 -0.338,-0.422c-0.153,-0.104 -0.333,-0.159 -0.517,-0.16Z" style="fill:#fff;fill-rule:nonzero;"/><path d="M316.313,175.631c-0.246,-0.001 -0.482,0.094 -0.657,0.267c-0.175,0.172 -0.274,0.407 -0.276,0.653c-0.001,0.245 0.094,0.482 0.267,0.656c0.172,0.175 0.407,0.274 0.653,0.276c0.232,-0.008 0.454,-0.1 0.625,-0.258c0.17,-0.159 0.277,-0.374 0.301,-0.605c0.004,-0.251 -0.089,-0.493 -0.259,-0.677c-0.17,-0.184 -0.404,-0.296 -0.654,-0.312Z" style="fill:#fff;fill-rule:nonzero;"/><path d="M230.327,195.804c-0.236,0.013 -0.459,0.113 -0.626,0.279c-0.167,0.167 -0.267,0.39 -0.28,0.626c-0.005,0.236 0.081,0.466 0.241,0.64c0.161,0.174 0.381,0.279 0.618,0.293c0.126,0.003 0.251,-0.018 0.369,-0.064c0.118,-0.045 0.226,-0.114 0.316,-0.202c0.091,-0.087 0.164,-0.192 0.214,-0.308c0.05,-0.116 0.077,-0.24 0.079,-0.367c-0.029,-0.233 -0.137,-0.45 -0.307,-0.613c-0.169,-0.164 -0.39,-0.264 -0.624,-0.284Z" style="fill:#fff;fill-rule:nonzero;"/><path d="M284.48,199.93c-0.232,0.014 -0.452,0.108 -0.621,0.267c-0.169,0.158 -0.277,0.372 -0.306,0.602c-0.007,0.24 0.08,0.473 0.241,0.65c0.161,0.178 0.385,0.285 0.624,0.301c0.239,0.015 0.475,-0.063 0.658,-0.218c0.182,-0.155 0.298,-0.375 0.322,-0.613c-0,-0.25 -0.095,-0.492 -0.265,-0.675c-0.17,-0.183 -0.404,-0.295 -0.653,-0.314Z" style="fill:#fff;fill-rule:nonzero;"/><path d="M274.699,202.639c-0.124,-0.001 -0.248,0.022 -0.362,0.069c-0.115,0.048 -0.219,0.118 -0.305,0.207c-0.087,0.089 -0.155,0.195 -0.199,0.31c-0.044,0.116 -0.064,0.24 -0.059,0.364c0.016,0.231 0.115,0.449 0.28,0.613c0.164,0.163 0.381,0.262 0.612,0.278c0.25,-0.014 0.485,-0.121 0.66,-0.3c0.174,-0.179 0.274,-0.417 0.281,-0.667c-0.019,-0.231 -0.122,-0.448 -0.289,-0.608c-0.167,-0.161 -0.388,-0.256 -0.619,-0.266Z" style="fill:#fff;fill-rule:nonzero;"/><path d="M249.23,74.079c0.233,-0.004 0.456,-0.094 0.624,-0.255c0.169,-0.16 0.27,-0.378 0.285,-0.611c0.001,-0.252 -0.095,-0.494 -0.269,-0.677c-0.173,-0.182 -0.41,-0.29 -0.661,-0.302c-0.232,0.02 -0.45,0.119 -0.617,0.281c-0.167,0.163 -0.273,0.377 -0.3,0.609c-0.002,0.124 0.021,0.248 0.067,0.363c0.047,0.116 0.115,0.221 0.203,0.31c0.087,0.089 0.191,0.159 0.305,0.208c0.115,0.048 0.238,0.073 0.363,0.074Z" style="fill:#fff;fill-rule:nonzero;"/><path d="M289.002,78.598c0.25,-0.008 0.487,-0.113 0.662,-0.292c0.175,-0.18 0.273,-0.42 0.275,-0.671c-0.003,-0.122 -0.03,-0.244 -0.08,-0.356c-0.051,-0.113 -0.123,-0.214 -0.213,-0.298c-0.089,-0.084 -0.196,-0.149 -0.311,-0.192c-0.115,-0.043 -0.238,-0.062 -0.361,-0.057c-0.123,0.006 -0.244,0.036 -0.355,0.088c-0.112,0.053 -0.211,0.128 -0.293,0.219c-0.082,0.092 -0.145,0.199 -0.185,0.315c-0.041,0.117 -0.057,0.24 -0.049,0.363c0.02,0.232 0.123,0.449 0.29,0.611c0.167,0.161 0.387,0.258 0.62,0.27Z" style="fill:#fff;fill-rule:nonzero;"/><path d="M230.073,80.974c0.124,0.01 0.249,-0.005 0.368,-0.043c0.119,-0.039 0.228,-0.1 0.323,-0.182c0.095,-0.081 0.172,-0.18 0.228,-0.291c0.056,-0.112 0.089,-0.233 0.097,-0.358c0.006,-0.121 -0.012,-0.242 -0.054,-0.356c-0.041,-0.113 -0.105,-0.218 -0.186,-0.307c-0.082,-0.09 -0.18,-0.162 -0.29,-0.213c-0.109,-0.052 -0.228,-0.081 -0.349,-0.087c-0.121,-0.005 -0.242,0.013 -0.356,0.055c-0.113,0.041 -0.219,0.104 -0.308,0.186c-0.089,0.081 -0.162,0.18 -0.213,0.29c-0.051,0.109 -0.08,0.228 -0.086,0.349c-0.003,0.233 0.08,0.458 0.232,0.635c0.152,0.176 0.363,0.291 0.594,0.322Z" style="fill:#fff;fill-rule:nonzero;"/><path d="M221.67,86.537c0.232,-0.019 0.449,-0.117 0.617,-0.277c0.167,-0.16 0.274,-0.373 0.304,-0.604c0.001,-0.25 -0.096,-0.49 -0.271,-0.669c-0.175,-0.18 -0.413,-0.282 -0.663,-0.286c-0.232,-0.001 -0.456,0.088 -0.624,0.248c-0.168,0.161 -0.266,0.38 -0.275,0.612c-0.004,0.124 0.017,0.248 0.06,0.364c0.043,0.116 0.11,0.222 0.194,0.313c0.085,0.091 0.187,0.164 0.3,0.215c0.113,0.051 0.235,0.08 0.358,0.084Z" style="fill:#fff;fill-rule:nonzero;"/><path d="M204.857,105.427c0.242,-0.002 0.473,-0.099 0.645,-0.27c0.171,-0.171 0.269,-0.402 0.272,-0.644c0.003,-0.243 -0.089,-0.476 -0.256,-0.652c-0.167,-0.174 -0.397,-0.277 -0.639,-0.285c-0.245,-0.003 -0.482,0.092 -0.658,0.263c-0.175,0.171 -0.276,0.405 -0.279,0.651c-0.002,0.246 0.092,0.482 0.263,0.658c0.172,0.176 0.406,0.276 0.652,0.279Z" style="fill:#fff;fill-rule:nonzero;"/><path d="M202.405,109.906c0.25,-0.006 0.488,-0.107 0.667,-0.283c0.179,-0.174 0.284,-0.411 0.296,-0.661c-0.008,-0.241 -0.111,-0.47 -0.287,-0.636c-0.175,-0.166 -0.409,-0.257 -0.65,-0.252c-0.242,0.004 -0.472,0.104 -0.641,0.277c-0.169,0.172 -0.263,0.404 -0.262,0.646c0.01,0.232 0.105,0.453 0.266,0.62c0.162,0.168 0.379,0.27 0.611,0.289Z" style="fill:#fff;fill-rule:nonzero;"/><path d="M200.385,114.536c0.231,-0.006 0.452,-0.101 0.616,-0.264c0.164,-0.163 0.261,-0.382 0.269,-0.614c0.003,-0.25 -0.092,-0.491 -0.266,-0.672c-0.173,-0.18 -0.411,-0.285 -0.661,-0.291c-0.23,0.027 -0.444,0.13 -0.609,0.292c-0.165,0.163 -0.271,0.377 -0.3,0.606c0.002,0.251 0.103,0.491 0.281,0.667c0.178,0.177 0.419,0.276 0.67,0.276Z" style="fill:#fff;fill-rule:nonzero;"/><path d="M197.22,124.242c0.124,0.011 0.249,-0.003 0.367,-0.042c0.119,-0.039 0.228,-0.101 0.322,-0.183c0.093,-0.082 0.17,-0.182 0.224,-0.294c0.055,-0.113 0.086,-0.234 0.092,-0.359c0.003,-0.124 -0.018,-0.248 -0.063,-0.364c-0.045,-0.117 -0.112,-0.223 -0.198,-0.313c-0.087,-0.09 -0.19,-0.162 -0.304,-0.212c-0.114,-0.049 -0.237,-0.076 -0.362,-0.078c-0.232,0.016 -0.451,0.115 -0.618,0.278c-0.167,0.162 -0.271,0.379 -0.293,0.611c0.001,0.233 0.086,0.457 0.239,0.633c0.153,0.175 0.364,0.29 0.594,0.323Z" style="fill:#fff;fill-rule:nonzero;"/><path d="M326.653,128.006c0.015,0.249 0.123,0.483 0.302,0.656c0.179,0.174 0.416,0.275 0.665,0.284c0.249,-0.018 0.481,-0.135 0.645,-0.323c0.164,-0.19 0.247,-0.435 0.23,-0.685c-0.022,-0.231 -0.132,-0.445 -0.307,-0.598c-0.175,-0.152 -0.402,-0.233 -0.634,-0.223c-0.23,0.018 -0.448,0.117 -0.613,0.28c-0.165,0.162 -0.266,0.378 -0.288,0.609Z" style="fill:#fff;fill-rule:nonzero;"/><path d="M325.71,123.028c0.001,0.125 0.026,0.25 0.076,0.366c0.049,0.116 0.122,0.22 0.212,0.307c0.091,0.087 0.199,0.155 0.316,0.2c0.118,0.044 0.244,0.065 0.369,0.06c0.234,-0.033 0.448,-0.151 0.602,-0.329c0.154,-0.179 0.238,-0.407 0.237,-0.644c-0.016,-0.235 -0.122,-0.456 -0.296,-0.615c-0.175,-0.159 -0.404,-0.245 -0.64,-0.24c-0.117,-0.002 -0.234,0.02 -0.342,0.064c-0.108,0.044 -0.207,0.111 -0.289,0.194c-0.082,0.084 -0.146,0.184 -0.188,0.293c-0.043,0.11 -0.061,0.226 -0.057,0.344Z" style="fill:#fff;fill-rule:nonzero;"/><path d="M319.117,171.366c-0.236,-0.003 -0.465,0.083 -0.641,0.241c-0.176,0.157 -0.287,0.376 -0.309,0.611c-0.009,0.123 0.006,0.246 0.046,0.362c0.038,0.117 0.101,0.225 0.182,0.316c0.082,0.093 0.181,0.168 0.292,0.22c0.111,0.053 0.231,0.084 0.354,0.089c0.123,0.006 0.246,-0.014 0.361,-0.056c0.116,-0.043 0.221,-0.109 0.31,-0.193c0.09,-0.084 0.161,-0.186 0.211,-0.298c0.049,-0.113 0.076,-0.234 0.078,-0.357c-0.011,-0.236 -0.107,-0.459 -0.269,-0.631c-0.162,-0.171 -0.38,-0.279 -0.615,-0.304Z" style="fill:#fff;fill-rule:nonzero;"/><path d="M234.747,78.698c0.173,-0.011 0.339,-0.07 0.479,-0.173c0.14,-0.102 0.248,-0.243 0.31,-0.405c0.061,-0.162 0.076,-0.338 0.04,-0.508c-0.036,-0.169 -0.12,-0.325 -0.242,-0.448c-0.122,-0.123 -0.277,-0.209 -0.446,-0.246c-0.169,-0.037 -0.346,-0.025 -0.508,0.035c-0.163,0.06 -0.305,0.166 -0.408,0.305c-0.104,0.139 -0.166,0.305 -0.178,0.478c-0,0.125 0.024,0.25 0.071,0.367c0.048,0.116 0.117,0.222 0.206,0.312c0.089,0.089 0.194,0.16 0.31,0.209c0.116,0.049 0.241,0.073 0.366,0.074Z" style="fill:#fff;fill-rule:nonzero;"/><path d="M319.033,105.191c0.235,-0.019 0.455,-0.127 0.613,-0.303c0.159,-0.175 0.244,-0.405 0.238,-0.641c-0.006,-0.237 -0.101,-0.462 -0.269,-0.63c-0.166,-0.168 -0.391,-0.265 -0.627,-0.272c-0.121,0.002 -0.241,0.029 -0.352,0.078c-0.111,0.049 -0.21,0.12 -0.294,0.208c-0.084,0.088 -0.149,0.191 -0.193,0.304c-0.044,0.113 -0.065,0.234 -0.061,0.355c0.002,0.122 0.029,0.24 0.078,0.352c0.049,0.11 0.12,0.211 0.208,0.294c0.087,0.084 0.191,0.15 0.304,0.193c0.113,0.043 0.234,0.064 0.355,0.062Z" style="fill:#fff;fill-rule:nonzero;"/><path d="M207.65,101.135c0.237,-0.006 0.462,-0.103 0.631,-0.269c0.168,-0.166 0.267,-0.39 0.276,-0.627c-0.005,-0.126 -0.035,-0.249 -0.087,-0.364c-0.053,-0.114 -0.128,-0.217 -0.22,-0.303c-0.093,-0.085 -0.201,-0.152 -0.32,-0.195c-0.118,-0.044 -0.243,-0.064 -0.369,-0.059c-0.236,0.022 -0.455,0.133 -0.611,0.311c-0.156,0.177 -0.239,0.408 -0.23,0.645c0.014,0.236 0.119,0.457 0.292,0.617c0.173,0.16 0.402,0.248 0.638,0.244Z" style="fill:#fff;fill-rule:nonzero;"/><path d="M214.061,93.303c0.233,0.002 0.459,-0.082 0.633,-0.237c0.174,-0.155 0.284,-0.369 0.308,-0.601c0.012,-0.25 -0.073,-0.495 -0.238,-0.684c-0.166,-0.188 -0.398,-0.305 -0.647,-0.324c-0.243,-0.004 -0.476,0.089 -0.651,0.256c-0.175,0.168 -0.277,0.397 -0.284,0.639c-0.007,0.242 0.081,0.477 0.245,0.656c0.164,0.177 0.392,0.283 0.634,0.295Z" style="fill:#fff;fill-rule:nonzero;"/><path d="M210.857,179.736c-0.125,-0.001 -0.249,0.024 -0.365,0.073c-0.115,0.049 -0.22,0.12 -0.307,0.21c-0.088,0.089 -0.156,0.196 -0.202,0.313c-0.045,0.117 -0.066,0.242 -0.062,0.367c0.01,0.234 0.11,0.456 0.279,0.62c0.168,0.163 0.394,0.255 0.628,0.257c0.235,-0.014 0.456,-0.114 0.622,-0.281c0.165,-0.167 0.264,-0.389 0.277,-0.624c-0.008,-0.235 -0.1,-0.459 -0.259,-0.631c-0.16,-0.172 -0.377,-0.28 -0.611,-0.304Z" style="fill:#fff;fill-rule:nonzero;"/><path d="M302.067,86.361c0.123,0.006 0.245,-0.013 0.361,-0.055c0.115,-0.042 0.221,-0.107 0.311,-0.19c0.09,-0.083 0.162,-0.184 0.213,-0.296c0.051,-0.112 0.078,-0.233 0.082,-0.356c0.003,-0.123 -0.019,-0.245 -0.064,-0.359c-0.044,-0.114 -0.111,-0.218 -0.197,-0.306c-0.085,-0.089 -0.188,-0.159 -0.301,-0.207c-0.113,-0.047 -0.234,-0.072 -0.357,-0.073c-0.236,0.007 -0.461,0.104 -0.627,0.271c-0.167,0.167 -0.263,0.392 -0.269,0.627c-0.006,0.237 0.078,0.466 0.236,0.641c0.158,0.176 0.377,0.284 0.612,0.303Z" style="fill:#fff;fill-rule:nonzero;"/><path d="M221.852,190.302c-0.126,-0.006 -0.252,0.014 -0.37,0.058c-0.119,0.044 -0.227,0.112 -0.318,0.199c-0.092,0.087 -0.165,0.191 -0.215,0.307c-0.049,0.115 -0.075,0.241 -0.076,0.367c0.021,0.235 0.124,0.455 0.292,0.62c0.168,0.166 0.389,0.266 0.624,0.283c0.236,-0.01 0.46,-0.107 0.628,-0.272c0.168,-0.166 0.268,-0.388 0.282,-0.624c0.01,-0.236 -0.073,-0.467 -0.232,-0.642c-0.158,-0.175 -0.379,-0.282 -0.615,-0.296Z" style="fill:#fff;fill-rule:nonzero;"/><path d="M293.641,80.827c0.234,-0.021 0.451,-0.129 0.609,-0.303c0.158,-0.173 0.246,-0.4 0.245,-0.635c-0.015,-0.236 -0.119,-0.457 -0.293,-0.618c-0.173,-0.161 -0.401,-0.249 -0.638,-0.247c-0.237,0.004 -0.463,0.098 -0.632,0.263c-0.169,0.166 -0.267,0.39 -0.276,0.626c0.002,0.126 0.03,0.249 0.082,0.364c0.05,0.114 0.124,0.217 0.216,0.303c0.092,0.085 0.2,0.151 0.318,0.193c0.118,0.043 0.244,0.061 0.369,0.054Z" style="fill:#fff;fill-rule:nonzero;"/><path d="M244.509,201.528c-0.235,-0.013 -0.466,0.064 -0.647,0.215c-0.181,0.15 -0.298,0.363 -0.329,0.597c-0.008,0.254 0.083,0.501 0.256,0.688c0.172,0.186 0.411,0.297 0.665,0.308c0.235,-0.012 0.457,-0.108 0.627,-0.271c0.17,-0.162 0.276,-0.38 0.299,-0.614c-0.001,-0.236 -0.092,-0.463 -0.253,-0.634c-0.162,-0.171 -0.383,-0.275 -0.618,-0.289Z" style="fill:#fff;fill-rule:nonzero;"/><path d="M195.574,139.379c0.24,0.001 0.472,-0.091 0.645,-0.257c0.174,-0.167 0.276,-0.394 0.285,-0.635c0.009,-0.24 -0.076,-0.474 -0.237,-0.653c-0.161,-0.179 -0.385,-0.288 -0.624,-0.305c-0.233,-0.002 -0.458,0.081 -0.632,0.235c-0.175,0.152 -0.286,0.365 -0.314,0.596c-0.013,0.25 0.07,0.495 0.233,0.686c0.164,0.19 0.394,0.309 0.644,0.333Z" style="fill:#fff;fill-rule:nonzero;"/><path d="M279.493,75.165c0.234,-0.02 0.454,-0.126 0.617,-0.297c0.162,-0.171 0.256,-0.395 0.264,-0.63c-0.023,-0.234 -0.129,-0.453 -0.299,-0.616c-0.17,-0.164 -0.392,-0.261 -0.627,-0.275c-0.126,0.001 -0.25,0.028 -0.365,0.08c-0.116,0.051 -0.219,0.126 -0.304,0.218c-0.085,0.093 -0.15,0.203 -0.191,0.322c-0.041,0.119 -0.058,0.245 -0.048,0.371c0.018,0.235 0.129,0.454 0.307,0.609c0.178,0.154 0.41,0.232 0.646,0.218Z" style="fill:#fff;fill-rule:nonzero;"/><path d="M254.3,73.308c0.236,-0.019 0.456,-0.128 0.613,-0.306c0.157,-0.177 0.24,-0.407 0.23,-0.644c-0.008,-0.237 -0.109,-0.46 -0.281,-0.623c-0.172,-0.163 -0.401,-0.251 -0.637,-0.246c-0.236,0.012 -0.459,0.108 -0.627,0.272c-0.17,0.163 -0.273,0.383 -0.292,0.618c0.013,0.253 0.124,0.492 0.309,0.666c0.186,0.173 0.431,0.268 0.685,0.263Z" style="fill:#fff;fill-rule:nonzero;"/><path d="M259.325,72.929c0.231,-0.022 0.447,-0.122 0.612,-0.284c0.166,-0.162 0.27,-0.377 0.296,-0.607c0.001,-0.251 -0.097,-0.493 -0.274,-0.671c-0.176,-0.179 -0.416,-0.28 -0.667,-0.283c-0.232,0.003 -0.454,0.096 -0.62,0.259c-0.165,0.164 -0.26,0.385 -0.265,0.617c-0.006,0.125 0.013,0.249 0.057,0.366c0.043,0.117 0.11,0.224 0.196,0.314c0.086,0.091 0.189,0.163 0.303,0.212c0.114,0.05 0.238,0.076 0.362,0.077Z" style="fill:#fff;fill-rule:nonzero;"/><path d="M325.297,119.056c0.235,-0.017 0.455,-0.124 0.614,-0.298c0.159,-0.174 0.246,-0.402 0.242,-0.638c-0.004,-0.236 -0.098,-0.461 -0.262,-0.63c-0.164,-0.169 -0.387,-0.269 -0.623,-0.279c-0.126,0.004 -0.249,0.034 -0.364,0.087c-0.114,0.052 -0.216,0.127 -0.301,0.22c-0.086,0.093 -0.151,0.201 -0.194,0.319c-0.043,0.119 -0.061,0.245 -0.055,0.37c0.021,0.235 0.13,0.452 0.305,0.61c0.174,0.158 0.402,0.243 0.638,0.239Z" style="fill:#fff;fill-rule:nonzero;"/><path d="M325.297,157.462c-0.233,0.007 -0.455,0.103 -0.62,0.268c-0.165,0.164 -0.261,0.385 -0.269,0.618c-0.007,0.232 0.071,0.458 0.221,0.636c0.15,0.177 0.361,0.292 0.591,0.322c0.251,0.017 0.498,-0.066 0.687,-0.231c0.19,-0.165 0.306,-0.397 0.324,-0.648c0,-0.25 -0.097,-0.491 -0.272,-0.671c-0.174,-0.18 -0.412,-0.285 -0.662,-0.294Z" style="fill:#fff;fill-rule:nonzero;"/><path d="M323.45,114.276c0.126,0.006 0.251,-0.013 0.368,-0.057c0.118,-0.044 0.225,-0.111 0.316,-0.198c0.091,-0.087 0.163,-0.192 0.211,-0.307c0.05,-0.116 0.074,-0.24 0.073,-0.366c0.003,-0.237 -0.089,-0.466 -0.254,-0.636c-0.165,-0.171 -0.391,-0.27 -0.628,-0.275c-0.237,-0.005 -0.467,0.084 -0.639,0.247c-0.173,0.163 -0.274,0.388 -0.282,0.625c-0.004,0.236 0.079,0.464 0.233,0.643c0.154,0.178 0.368,0.293 0.602,0.324Z" style="fill:#fff;fill-rule:nonzero;"/><path d="M306.11,89.596c0.233,-0.031 0.446,-0.147 0.6,-0.325c0.152,-0.178 0.235,-0.407 0.23,-0.641c-0.005,-0.236 -0.104,-0.461 -0.273,-0.624c-0.17,-0.164 -0.398,-0.254 -0.634,-0.251c-0.235,0.009 -0.457,0.106 -0.622,0.273c-0.164,0.167 -0.259,0.391 -0.264,0.626c-0.002,0.126 0.022,0.251 0.07,0.368c0.048,0.116 0.119,0.221 0.209,0.309c0.091,0.089 0.197,0.158 0.315,0.203c0.118,0.045 0.243,0.066 0.369,0.062Z" style="fill:#fff;fill-rule:nonzero;"/><path d="M316.191,100.91c0.235,0.006 0.464,-0.081 0.635,-0.242c0.171,-0.161 0.273,-0.383 0.281,-0.618c0.018,-0.238 -0.06,-0.472 -0.215,-0.653c-0.155,-0.18 -0.376,-0.291 -0.613,-0.309c-0.237,-0.017 -0.472,0.06 -0.652,0.215c-0.181,0.156 -0.292,0.376 -0.31,0.613c-0.017,0.125 -0.008,0.252 0.028,0.372c0.036,0.121 0.097,0.232 0.18,0.326c0.083,0.095 0.186,0.17 0.301,0.221c0.115,0.051 0.239,0.077 0.365,0.075Z" style="fill:#fff;fill-rule:nonzero;"/><path d="M210.678,97.088c0.178,0.001 0.352,-0.051 0.501,-0.149c0.149,-0.098 0.265,-0.238 0.334,-0.402c0.069,-0.164 0.088,-0.345 0.055,-0.519c-0.034,-0.175 -0.118,-0.336 -0.243,-0.463c-0.125,-0.127 -0.285,-0.214 -0.459,-0.25c-0.174,-0.036 -0.355,-0.02 -0.52,0.046c-0.165,0.067 -0.307,0.181 -0.408,0.328c-0.1,0.147 -0.154,0.32 -0.156,0.499c0.011,0.235 0.108,0.458 0.274,0.626c0.165,0.168 0.387,0.269 0.622,0.284Z" style="fill:#fff;fill-rule:nonzero;"/><path d="M309.697,93.096c0.236,0.007 0.466,-0.079 0.638,-0.24c0.173,-0.162 0.274,-0.386 0.282,-0.622c0.007,-0.236 -0.073,-0.466 -0.226,-0.646c-0.152,-0.18 -0.366,-0.297 -0.6,-0.328c-0.126,-0.006 -0.252,0.014 -0.37,0.058c-0.118,0.044 -0.225,0.113 -0.317,0.2c-0.091,0.087 -0.162,0.192 -0.212,0.308c-0.049,0.116 -0.074,0.241 -0.073,0.367c-0.003,0.117 0.019,0.234 0.061,0.343c0.043,0.109 0.107,0.208 0.189,0.292c0.082,0.084 0.18,0.151 0.287,0.197c0.108,0.046 0.224,0.07 0.341,0.071Z" style="fill:#fff;fill-rule:nonzero;"/><path d="M313.124,96.876c0.235,0 0.461,-0.093 0.628,-0.259c0.167,-0.166 0.261,-0.391 0.262,-0.627c0.006,-0.116 -0.012,-0.234 -0.053,-0.343c-0.04,-0.11 -0.102,-0.21 -0.183,-0.296c-0.08,-0.084 -0.177,-0.152 -0.284,-0.199c-0.108,-0.046 -0.224,-0.071 -0.341,-0.071c-0.122,-0.011 -0.246,0.004 -0.363,0.043c-0.117,0.04 -0.224,0.103 -0.316,0.186c-0.091,0.082 -0.165,0.183 -0.216,0.295c-0.051,0.113 -0.079,0.234 -0.08,0.358c-0.002,0.123 0.021,0.246 0.068,0.36c0.047,0.113 0.118,0.216 0.206,0.302c0.089,0.085 0.195,0.152 0.31,0.195c0.116,0.043 0.239,0.063 0.362,0.056Z" style="fill:#fff;fill-rule:nonzero;"/><path d="M321.518,166.92c-0.236,-0.002 -0.464,0.086 -0.637,0.246c-0.173,0.159 -0.279,0.38 -0.296,0.615c0,0.126 0.025,0.249 0.074,0.365c0.049,0.116 0.121,0.22 0.212,0.307c0.09,0.088 0.197,0.156 0.313,0.201c0.118,0.045 0.242,0.066 0.368,0.062c0.236,-0.008 0.459,-0.108 0.622,-0.279c0.163,-0.171 0.251,-0.399 0.247,-0.635c-0.009,-0.235 -0.107,-0.458 -0.275,-0.622c-0.168,-0.164 -0.393,-0.257 -0.628,-0.26Z" style="fill:#fff;fill-rule:nonzero;"/><path d="M284.356,76.68c0.118,-0.005 0.234,-0.033 0.341,-0.083c0.107,-0.05 0.203,-0.12 0.283,-0.207c0.08,-0.088 0.141,-0.189 0.182,-0.3c0.04,-0.111 0.058,-0.229 0.053,-0.347c-0.005,-0.118 -0.033,-0.234 -0.083,-0.34c-0.05,-0.107 -0.121,-0.204 -0.208,-0.283c-0.087,-0.08 -0.189,-0.142 -0.3,-0.182c-0.11,-0.041 -0.228,-0.058 -0.346,-0.053c-0.235,0.009 -0.457,0.106 -0.626,0.27c-0.168,0.163 -0.27,0.384 -0.286,0.618c0.001,0.126 0.028,0.25 0.079,0.366c0.051,0.115 0.126,0.218 0.219,0.303c0.093,0.085 0.202,0.15 0.321,0.191c0.12,0.041 0.246,0.057 0.371,0.047Z" style="fill:#fff;fill-rule:nonzero;"/><path d="M244.233,75.267c0.124,-0 0.247,-0.024 0.362,-0.072c0.115,-0.048 0.219,-0.117 0.307,-0.205c0.088,-0.088 0.158,-0.193 0.205,-0.307c0.047,-0.116 0.072,-0.238 0.072,-0.363c-0.006,-0.232 -0.1,-0.453 -0.264,-0.616c-0.165,-0.164 -0.385,-0.258 -0.617,-0.263c-0.125,-0.005 -0.248,0.015 -0.365,0.059c-0.116,0.045 -0.222,0.112 -0.312,0.198c-0.09,0.086 -0.161,0.189 -0.21,0.304c-0.049,0.114 -0.074,0.237 -0.075,0.361c0.026,0.23 0.128,0.445 0.291,0.608c0.163,0.165 0.376,0.269 0.606,0.296Z" style="fill:#fff;fill-rule:nonzero;"/><path d="M326.656,152.576c-0.177,0.005 -0.349,0.063 -0.494,0.165c-0.145,0.103 -0.257,0.246 -0.321,0.411c-0.063,0.166 -0.077,0.347 -0.039,0.521c0.039,0.173 0.128,0.331 0.257,0.454c0.128,0.123 0.29,0.205 0.465,0.236c0.175,0.031 0.355,0.01 0.517,-0.062c0.164,-0.071 0.302,-0.188 0.398,-0.338c0.096,-0.149 0.145,-0.324 0.143,-0.501c-0.019,-0.235 -0.124,-0.456 -0.295,-0.619c-0.17,-0.163 -0.395,-0.258 -0.631,-0.267Z" style="fill:#fff;fill-rule:nonzero;"/><path d="M279.571,201.493c-0.233,0.016 -0.451,0.123 -0.607,0.298c-0.157,0.175 -0.238,0.404 -0.228,0.638c0,0.116 0.023,0.231 0.069,0.338c0.046,0.107 0.112,0.204 0.196,0.285c0.084,0.08 0.183,0.143 0.291,0.184c0.109,0.042 0.225,0.061 0.341,0.056c0.235,0.001 0.46,-0.09 0.628,-0.254c0.168,-0.164 0.265,-0.386 0.271,-0.621c0.002,-0.125 -0.022,-0.249 -0.07,-0.364c-0.047,-0.116 -0.119,-0.22 -0.209,-0.307c-0.09,-0.087 -0.198,-0.154 -0.315,-0.197c-0.117,-0.044 -0.242,-0.063 -0.367,-0.056Z" style="fill:#fff;fill-rule:nonzero;"/><path d="M214.105,183.555c-0.12,0.009 -0.237,0.041 -0.345,0.097c-0.107,0.055 -0.202,0.131 -0.279,0.223c-0.078,0.093 -0.135,0.2 -0.17,0.316c-0.035,0.115 -0.046,0.236 -0.033,0.356c0.013,0.12 0.05,0.236 0.109,0.341c0.058,0.105 0.138,0.198 0.233,0.272c0.095,0.073 0.204,0.128 0.321,0.158c0.117,0.031 0.238,0.038 0.358,0.02c0.118,-0.012 0.232,-0.047 0.335,-0.103c0.104,-0.056 0.196,-0.133 0.27,-0.225c0.075,-0.092 0.13,-0.197 0.163,-0.311c0.034,-0.113 0.045,-0.232 0.032,-0.35c-0.013,-0.117 -0.049,-0.231 -0.106,-0.335c-0.057,-0.103 -0.134,-0.195 -0.226,-0.269c-0.093,-0.073 -0.198,-0.128 -0.312,-0.161c-0.114,-0.032 -0.233,-0.042 -0.35,-0.029Z" style="fill:#fff;fill-rule:nonzero;"/><path d="M254.408,203.429c-0.235,0.014 -0.457,0.114 -0.623,0.281c-0.167,0.167 -0.266,0.389 -0.28,0.624c-0.003,0.184 0.049,0.363 0.15,0.517c0.099,0.154 0.243,0.274 0.412,0.345c0.169,0.071 0.355,0.09 0.534,0.055c0.18,-0.035 0.346,-0.123 0.475,-0.253c0.129,-0.13 0.217,-0.295 0.252,-0.475c0.034,-0.18 0.015,-0.366 -0.057,-0.535c-0.072,-0.168 -0.192,-0.312 -0.346,-0.411c-0.154,-0.1 -0.334,-0.151 -0.517,-0.148Z" style="fill:#fff;fill-rule:nonzero;"/><path d="M306.202,187.035c-0.237,-0.011 -0.468,0.069 -0.647,0.224c-0.178,0.155 -0.29,0.374 -0.311,0.61c-0.003,0.125 0.02,0.25 0.067,0.368c0.046,0.116 0.116,0.223 0.204,0.312c0.089,0.089 0.195,0.16 0.311,0.208c0.116,0.048 0.241,0.072 0.367,0.071c0.236,-0.003 0.461,-0.099 0.627,-0.268c0.166,-0.168 0.259,-0.395 0.258,-0.631c0.004,-0.117 -0.016,-0.234 -0.058,-0.343c-0.043,-0.108 -0.107,-0.208 -0.189,-0.291c-0.082,-0.084 -0.18,-0.15 -0.288,-0.195c-0.108,-0.044 -0.225,-0.066 -0.341,-0.065Z" style="fill:#fff;fill-rule:nonzero;"/><path d="M259.534,203.788c-0.126,0 -0.25,0.026 -0.367,0.077c-0.115,0.05 -0.219,0.123 -0.306,0.215c-0.086,0.092 -0.153,0.2 -0.197,0.319c-0.043,0.118 -0.062,0.244 -0.055,0.37c0.014,0.234 0.119,0.454 0.292,0.612c0.173,0.158 0.401,0.242 0.636,0.235c0.234,-0.007 0.457,-0.105 0.62,-0.274c0.163,-0.168 0.254,-0.393 0.254,-0.628c-0.007,-0.235 -0.1,-0.46 -0.261,-0.63c-0.162,-0.171 -0.381,-0.277 -0.616,-0.296Z" style="fill:#fff;fill-rule:nonzero;"/><path d="M302.205,190.267c-0.236,0.012 -0.458,0.113 -0.62,0.284c-0.163,0.17 -0.254,0.397 -0.255,0.633c0.015,0.235 0.116,0.455 0.286,0.619c0.168,0.164 0.392,0.259 0.627,0.266c0.236,-0.002 0.462,-0.093 0.633,-0.256c0.171,-0.162 0.274,-0.383 0.288,-0.618c0.005,-0.126 -0.018,-0.252 -0.065,-0.368c-0.047,-0.117 -0.118,-0.222 -0.208,-0.31c-0.09,-0.087 -0.198,-0.155 -0.316,-0.198c-0.119,-0.043 -0.244,-0.061 -0.37,-0.052Z" style="fill:#fff;fill-rule:nonzero;"/><path d="M226.036,193.202c-0.126,-0.006 -0.252,0.013 -0.37,0.057c-0.118,0.044 -0.226,0.112 -0.317,0.199c-0.091,0.088 -0.163,0.193 -0.211,0.309c-0.049,0.116 -0.072,0.242 -0.071,0.368c-0.005,0.116 0.013,0.234 0.054,0.343c0.041,0.11 0.104,0.21 0.186,0.295c0.081,0.084 0.178,0.151 0.286,0.197c0.108,0.046 0.224,0.07 0.341,0.069c0.117,0.004 0.233,-0.014 0.343,-0.055c0.11,-0.041 0.211,-0.103 0.296,-0.184c0.086,-0.079 0.154,-0.176 0.203,-0.282c0.048,-0.107 0.074,-0.222 0.077,-0.34c0.01,-0.235 -0.069,-0.466 -0.22,-0.646c-0.151,-0.18 -0.364,-0.298 -0.597,-0.33Z" style="fill:#fff;fill-rule:nonzero;"/><path d="M217.787,89.778c0.235,-0.02 0.454,-0.128 0.613,-0.302c0.159,-0.173 0.248,-0.4 0.248,-0.636c-0.001,-0.126 -0.029,-0.25 -0.08,-0.365c-0.052,-0.115 -0.128,-0.217 -0.221,-0.301c-0.094,-0.084 -0.204,-0.148 -0.324,-0.187c-0.119,-0.04 -0.246,-0.053 -0.371,-0.041c-0.117,0.01 -0.231,0.043 -0.334,0.098c-0.103,0.055 -0.195,0.129 -0.269,0.22c-0.075,0.09 -0.131,0.195 -0.164,0.307c-0.034,0.112 -0.044,0.23 -0.031,0.346c0.018,0.235 0.124,0.454 0.297,0.614c0.174,0.159 0.401,0.248 0.636,0.247Z" style="fill:#fff;fill-rule:nonzero;"/><path d="M195.72,134.267c0.123,0.012 0.248,-0.001 0.366,-0.04c0.118,-0.039 0.227,-0.101 0.32,-0.184c0.093,-0.083 0.167,-0.184 0.218,-0.297c0.052,-0.114 0.079,-0.236 0.081,-0.36c0.008,-0.233 -0.075,-0.46 -0.233,-0.632c-0.158,-0.171 -0.377,-0.274 -0.61,-0.285c-0.25,-0.014 -0.494,0.071 -0.681,0.237c-0.187,0.166 -0.3,0.399 -0.315,0.649c0.002,0.231 0.09,0.453 0.249,0.622c0.158,0.169 0.374,0.273 0.605,0.29Z" style="fill:#fff;fill-rule:nonzero;"/><path d="M298.004,83.415c0.117,-0.003 0.232,-0.03 0.339,-0.079c0.107,-0.049 0.202,-0.118 0.282,-0.204c0.08,-0.087 0.141,-0.187 0.181,-0.298c0.041,-0.11 0.058,-0.227 0.052,-0.344c-0.006,-0.236 -0.105,-0.461 -0.275,-0.625c-0.171,-0.164 -0.399,-0.254 -0.636,-0.251c-0.123,-0.003 -0.245,0.019 -0.359,0.064c-0.114,0.046 -0.217,0.115 -0.304,0.201c-0.087,0.088 -0.155,0.191 -0.2,0.306c-0.045,0.114 -0.066,0.237 -0.063,0.36c0.004,0.122 0.033,0.243 0.085,0.354c0.053,0.112 0.127,0.211 0.219,0.293c0.092,0.081 0.199,0.143 0.316,0.182c0.117,0.038 0.24,0.052 0.363,0.041Z" style="fill:#fff;fill-rule:nonzero;"/><path d="M327.615,147.555c-0.235,0.01 -0.458,0.109 -0.624,0.276c-0.166,0.167 -0.264,0.39 -0.273,0.625c-0.011,0.236 0.072,0.466 0.231,0.641c0.158,0.174 0.38,0.279 0.615,0.291c0.126,0.01 0.253,-0.007 0.371,-0.05c0.119,-0.043 0.227,-0.111 0.317,-0.199c0.091,-0.088 0.161,-0.195 0.207,-0.312c0.045,-0.118 0.066,-0.244 0.058,-0.37c-0.013,-0.235 -0.113,-0.456 -0.28,-0.623c-0.166,-0.166 -0.388,-0.265 -0.622,-0.279Z" style="fill:#fff;fill-rule:nonzero;"/><path d="M289.234,198.057c-0.126,-0.009 -0.252,0.009 -0.371,0.052c-0.118,0.044 -0.226,0.112 -0.316,0.2c-0.09,0.088 -0.161,0.195 -0.207,0.312c-0.046,0.117 -0.067,0.243 -0.061,0.369c0.01,0.236 0.112,0.46 0.283,0.622c0.172,0.163 0.401,0.252 0.637,0.248c0.239,0.005 0.471,-0.086 0.643,-0.252c0.172,-0.165 0.271,-0.393 0.276,-0.632c0.005,-0.239 -0.086,-0.47 -0.251,-0.643c-0.166,-0.172 -0.394,-0.271 -0.633,-0.276Z" style="fill:#fff;fill-rule:nonzero;"/><path d="M198.254,153.539c-0.008,-0.235 -0.108,-0.457 -0.277,-0.62c-0.17,-0.162 -0.396,-0.251 -0.631,-0.249c-0.235,0.003 -0.459,0.097 -0.625,0.263c-0.166,0.166 -0.26,0.391 -0.263,0.626c0.001,0.125 0.027,0.249 0.077,0.365c0.049,0.116 0.121,0.22 0.211,0.308c0.09,0.087 0.197,0.156 0.313,0.202c0.117,0.045 0.242,0.068 0.368,0.065c0.235,-0.021 0.454,-0.133 0.608,-0.312c0.154,-0.18 0.233,-0.412 0.219,-0.648Z" style="fill:#fff;fill-rule:nonzero;"/><path d="M196.714,143.513c-0.006,-0.236 -0.103,-0.461 -0.271,-0.626c-0.169,-0.165 -0.395,-0.259 -0.632,-0.259c-0.125,0.003 -0.249,0.03 -0.363,0.081c-0.115,0.051 -0.219,0.124 -0.305,0.214c-0.086,0.091 -0.155,0.198 -0.199,0.315c-0.045,0.118 -0.066,0.242 -0.063,0.368c0.028,0.234 0.144,0.449 0.325,0.601c0.181,0.151 0.413,0.229 0.649,0.216c0.116,-0.001 0.232,-0.025 0.339,-0.072c0.108,-0.047 0.204,-0.114 0.285,-0.2c0.08,-0.084 0.142,-0.185 0.182,-0.295c0.041,-0.109 0.059,-0.226 0.053,-0.343Z" style="fill:#fff;fill-rule:nonzero;"/><path d="M198.768,157.577c-0.127,-0.009 -0.253,0.008 -0.372,0.051c-0.118,0.043 -0.226,0.112 -0.317,0.2c-0.09,0.088 -0.16,0.194 -0.207,0.312c-0.046,0.117 -0.066,0.244 -0.06,0.37c0.002,0.117 0.026,0.233 0.073,0.34c0.046,0.108 0.114,0.205 0.199,0.286c0.084,0.081 0.184,0.144 0.294,0.186c0.11,0.041 0.226,0.061 0.344,0.056c0.236,0.004 0.465,-0.086 0.636,-0.249c0.17,-0.164 0.269,-0.389 0.275,-0.625c0.005,-0.237 -0.082,-0.466 -0.244,-0.639c-0.162,-0.174 -0.385,-0.277 -0.621,-0.288Z" style="fill:#fff;fill-rule:nonzero;"/><path d="M207.678,175.706c-0.234,0.018 -0.452,0.126 -0.609,0.301c-0.157,0.175 -0.24,0.404 -0.232,0.639c0.001,0.117 0.025,0.232 0.072,0.339c0.046,0.107 0.113,0.204 0.196,0.285c0.084,0.081 0.183,0.144 0.291,0.187c0.109,0.043 0.225,0.063 0.341,0.06c0.117,0.004 0.233,-0.016 0.342,-0.058c0.109,-0.042 0.208,-0.106 0.291,-0.188c0.084,-0.081 0.15,-0.179 0.194,-0.287c0.045,-0.108 0.067,-0.224 0.066,-0.34c0.004,-0.126 -0.019,-0.25 -0.066,-0.366c-0.047,-0.116 -0.117,-0.222 -0.207,-0.31c-0.089,-0.088 -0.195,-0.156 -0.312,-0.201c-0.116,-0.045 -0.242,-0.066 -0.367,-0.061Z" style="fill:#fff;fill-rule:nonzero;"/><path d="M200.475,162.371c-0.116,-0.01 -0.233,0.003 -0.344,0.04c-0.11,0.036 -0.213,0.095 -0.3,0.172c-0.087,0.077 -0.157,0.172 -0.207,0.278c-0.05,0.105 -0.077,0.219 -0.08,0.336c-0.014,0.179 0.025,0.358 0.113,0.514c0.088,0.156 0.221,0.282 0.382,0.363c0.16,0.08 0.341,0.11 0.518,0.087c0.179,-0.024 0.345,-0.1 0.479,-0.219c0.134,-0.119 0.23,-0.276 0.274,-0.449c0.045,-0.174 0.036,-0.357 -0.024,-0.526c-0.06,-0.169 -0.17,-0.316 -0.314,-0.422c-0.145,-0.106 -0.318,-0.166 -0.497,-0.174Z" style="fill:#fff;fill-rule:nonzero;"/><path d="M321.494,109.628c0.235,-0.021 0.453,-0.129 0.612,-0.302c0.16,-0.174 0.25,-0.4 0.253,-0.635c-0.017,-0.236 -0.123,-0.456 -0.298,-0.616c-0.174,-0.159 -0.403,-0.246 -0.639,-0.242c-0.118,-0.005 -0.234,0.015 -0.344,0.057c-0.109,0.042 -0.209,0.106 -0.293,0.188c-0.084,0.082 -0.151,0.18 -0.196,0.288c-0.045,0.108 -0.068,0.224 -0.067,0.342c-0.003,0.126 0.021,0.251 0.069,0.368c0.049,0.116 0.121,0.221 0.213,0.308c0.091,0.087 0.2,0.153 0.319,0.195c0.119,0.042 0.246,0.059 0.371,0.049Z" style="fill:#fff;fill-rule:nonzero;"/><path d="M198.624,119.314c0.125,0.008 0.25,-0.011 0.368,-0.056c0.117,-0.045 0.223,-0.115 0.311,-0.205c0.088,-0.089 0.156,-0.197 0.198,-0.315c0.042,-0.118 0.059,-0.244 0.049,-0.369c-0.011,-0.234 -0.114,-0.455 -0.287,-0.613c-0.172,-0.159 -0.401,-0.243 -0.635,-0.235c-0.116,-0 -0.232,0.023 -0.339,0.069c-0.107,0.045 -0.204,0.111 -0.286,0.194c-0.082,0.083 -0.145,0.182 -0.188,0.29c-0.043,0.108 -0.064,0.224 -0.062,0.341c-0.003,0.234 0.088,0.46 0.25,0.628c0.164,0.169 0.387,0.266 0.621,0.271Z" style="fill:#fff;fill-rule:nonzero;"/><path d="M204.922,171.46c-0.116,-0 -0.23,0.024 -0.337,0.069c-0.106,0.045 -0.203,0.112 -0.283,0.196c-0.08,0.084 -0.143,0.183 -0.183,0.292c-0.041,0.109 -0.059,0.224 -0.054,0.34c-0,0.119 0.024,0.238 0.071,0.349c0.047,0.11 0.116,0.209 0.202,0.292c0.086,0.083 0.189,0.149 0.301,0.191c0.111,0.043 0.231,0.063 0.35,0.058c0.12,-0.004 0.238,-0.032 0.346,-0.083c0.109,-0.051 0.206,-0.123 0.286,-0.212c0.08,-0.089 0.142,-0.193 0.18,-0.306c0.04,-0.114 0.055,-0.234 0.047,-0.353c-0.005,-0.116 -0.033,-0.23 -0.083,-0.335c-0.049,-0.105 -0.119,-0.199 -0.205,-0.276c-0.086,-0.078 -0.187,-0.137 -0.296,-0.175c-0.11,-0.038 -0.226,-0.054 -0.342,-0.047Z" style="fill:#fff;fill-rule:nonzero;"/><path d="M239.62,199.988c-0.125,-0.002 -0.249,0.022 -0.364,0.071c-0.115,0.05 -0.219,0.122 -0.305,0.214c-0.085,0.091 -0.15,0.2 -0.191,0.318c-0.041,0.119 -0.056,0.245 -0.045,0.369c0.005,0.116 0.034,0.23 0.084,0.335c0.05,0.105 0.12,0.199 0.208,0.276c0.087,0.077 0.188,0.135 0.299,0.172c0.11,0.037 0.226,0.051 0.342,0.042c0.234,-0.008 0.456,-0.108 0.617,-0.279c0.162,-0.169 0.249,-0.396 0.244,-0.631c-0.005,-0.234 -0.1,-0.457 -0.265,-0.623c-0.166,-0.165 -0.389,-0.26 -0.624,-0.264Z" style="fill:#fff;fill-rule:nonzero;"/><path d="M269.524,73.266c0.233,-0.021 0.449,-0.129 0.604,-0.304c0.156,-0.175 0.238,-0.403 0.231,-0.636c-0.011,-0.234 -0.113,-0.455 -0.283,-0.616c-0.17,-0.16 -0.397,-0.248 -0.631,-0.245c-0.116,-0.002 -0.232,0.021 -0.339,0.064c-0.108,0.044 -0.206,0.109 -0.288,0.191c-0.083,0.082 -0.148,0.18 -0.192,0.287c-0.045,0.108 -0.067,0.223 -0.066,0.34c-0.003,0.125 0.022,0.249 0.07,0.364c0.048,0.116 0.12,0.22 0.21,0.306c0.091,0.087 0.198,0.154 0.316,0.196c0.118,0.043 0.243,0.061 0.368,0.053Z" style="fill:#fff;fill-rule:nonzero;"/><path d="M269.688,203.428c-0.235,-0.008 -0.464,0.076 -0.637,0.233c-0.174,0.158 -0.279,0.378 -0.294,0.612c-0.011,0.179 0.031,0.358 0.122,0.513c0.091,0.156 0.226,0.28 0.388,0.359c0.162,0.078 0.344,0.105 0.522,0.079c0.177,-0.026 0.343,-0.104 0.477,-0.225c0.133,-0.121 0.227,-0.279 0.27,-0.453c0.042,-0.175 0.032,-0.359 -0.03,-0.528c-0.062,-0.168 -0.173,-0.315 -0.319,-0.42c-0.146,-0.105 -0.32,-0.165 -0.499,-0.17Z" style="fill:#fff;fill-rule:nonzero;"/><path d="M75.297,189.239c7.628,-14.593 15.954,-28.978 22.8,-44.035c7.538,-16.579 -1.89,-33.778 -19.428,-37.483c-16.169,-3.415 -31.054,7.684 -33.027,24.626c-1.743,14.968 9.71,27.597 25.791,28.386c2.41,0.118 4.832,0.016 8.18,0.016l-16.654,28.489l12.341,0l-0.003,0.001Zm-1.246,-37.397c-10.741,0.143 -18.555,-7.231 -18.62,-17.571c-0.064,-10.425 7.693,-18.127 18.166,-18.036c10.047,0.088 17.262,7.419 17.366,17.645c0.106,10.379 -6.908,17.829 -16.913,17.962l0.001,-0Z" style="fill:#fff;fill-rule:nonzero;"/><path d="M26.191,108.126c-5.657,2.637 -9.613,4.335 -13.432,6.3c-4.24,2.18 -8.354,4.607 -12.759,7.057c0.152,3.198 0.287,6.038 0.449,9.484l14.914,-7.318l-0,57.395l-6.83,-0l0,8.027l24.715,0l0,-8.027l-6.813,-0c-0,-0 0.036,-25.462 -0.011,-36.957c-0.046,-11.349 0.211,-22.714 -0.233,-35.961Z" style="fill:#fff;fill-rule:nonzero;"/><rect x="0.427" y="78.982" width="112.751" height="5.464" style="fill:#fff;fill-rule:nonzero;"/><rect x="0.427" y="212.298" width="112.751" height="5.464" style="fill:#fff;fill-rule:nonzero;"/><rect x="416.923" y="78.982" width="128.582" height="5.464" style="fill:#fff;fill-rule:nonzero;"/><rect x="416.923" y="212.298" width="128.582" height="5.464" style="fill:#fff;fill-rule:nonzero;"/><path d="M424.698,167.428c-0.004,4.223 1.099,8.374 3.2,12.038c2.102,3.664 5.128,6.713 8.776,8.841c3.648,2.129 7.79,3.263 12.014,3.29c4.223,0.027 8.38,-1.054 12.055,-3.137c3.675,-2.082 6.739,-5.092 8.886,-8.729c2.148,-3.636 3.305,-7.773 3.353,-11.996c0.05,-4.224 -1.011,-8.386 -3.073,-12.072c-2.063,-3.685 -5.057,-6.766 -8.682,-8.932c3.767,-2.635 6.596,-6.402 8.076,-10.755c1.48,-4.352 1.533,-9.063 0.152,-13.449c-1.381,-4.385 -4.125,-8.215 -7.832,-10.934c-3.707,-2.719 -8.184,-4.185 -12.781,-4.185c-4.598,0 -9.075,1.466 -12.783,4.185c-3.706,2.719 -6.45,6.549 -7.831,10.934c-1.381,4.386 -1.328,9.097 0.152,13.449c1.48,4.353 4.309,8.12 8.076,10.755c-3.583,2.137 -6.551,5.168 -8.612,8.795c-2.061,3.629 -3.145,7.729 -3.146,11.902Zm11.113,-38.393c-0.002,-2.555 0.746,-5.054 2.152,-7.187c1.407,-2.133 3.409,-3.805 5.758,-4.81c2.349,-1.004 4.942,-1.295 7.455,-0.837c2.514,0.458 4.837,1.644 6.682,3.412c1.844,1.768 3.129,4.039 3.692,6.53c0.564,2.492 0.383,5.095 -0.52,7.485c-0.903,2.39 -2.489,4.461 -4.56,5.957c-2.072,1.495 -4.536,2.349 -7.089,2.455c-0.181,-0.005 -0.358,-0.027 -0.539,-0.027c-0.182,-0 -0.358,0.022 -0.539,0.027c-3.358,-0.136 -6.534,-1.566 -8.862,-3.99c-2.329,-2.424 -3.629,-5.654 -3.63,-9.016l0,0.001Zm13.03,22.804c3.084,-0 6.097,0.914 8.661,2.627c2.564,1.713 4.562,4.147 5.742,6.996c1.18,2.849 1.488,5.983 0.887,9.007c-0.602,3.024 -2.086,5.802 -4.267,7.982c-2.18,2.18 -4.958,3.665 -7.981,4.267c-3.025,0.601 -6.159,0.292 -9.007,-0.888c-2.849,-1.179 -5.284,-3.178 -6.996,-5.742c-1.714,-2.563 -2.628,-5.577 -2.628,-8.66c-0,-4.135 1.642,-8.1 4.566,-11.024c2.924,-2.923 6.889,-4.566 11.024,-4.566l-0.001,0.001Z" style="fill:#fff;fill-rule:nonzero;"/><path d="M514.3,191.48c-5.743,0 -10.659,-1.481 -14.75,-4.443c-4.091,-2.962 -7.356,-7.071 -9.795,-12.327l6.963,-4.73c1.888,4.109 4.287,7.358 7.198,9.747c2.911,2.293 6.49,3.44 10.738,3.44c4.563,-0 8.103,-1.29 10.621,-3.87c2.596,-2.676 3.894,-6.307 3.894,-10.894c-0,-5.637 -1.692,-9.794 -5.075,-12.469c-3.382,-2.676 -8.653,-4.013 -15.812,-4.013l-0,-8.171c6.529,0 11.486,-1.242 14.869,-3.726c3.382,-2.485 5.074,-6.211 5.074,-11.18c-0,-3.822 -1.141,-6.88 -3.423,-9.174c-2.281,-2.293 -5.585,-3.44 -9.912,-3.44c-4.091,0 -7.591,1.243 -10.502,3.727c-2.911,2.485 -4.996,5.877 -6.254,10.177l-7.08,-4.013c1.337,-3.823 3.146,-7.072 5.427,-9.747c2.282,-2.675 4.996,-4.73 8.143,-6.163c3.147,-1.529 6.608,-2.294 10.384,-2.294c6.529,0 11.722,1.864 15.576,5.59c3.934,3.727 5.901,8.696 5.901,14.907c-0,3.822 -0.826,7.214 -2.478,10.176c-1.574,2.963 -3.776,5.304 -6.609,7.024c-2.753,1.719 -5.861,2.628 -9.322,2.723l-0,-1.577c5.743,0 10.463,1.959 14.161,5.877c3.776,3.918 5.664,9.173 5.664,15.766c-0,4.778 -0.944,8.887 -2.832,12.327c-1.888,3.44 -4.603,6.116 -8.143,8.027c-3.54,1.815 -7.748,2.723 -12.626,2.723Z" style="fill:#fff;fill-rule:nonzero;"/></g></svg>