<?xml version="1.0" encoding="UTF-8" standalone="no"?>
<!DOCTYPE svg PUBLIC "-//W3C//DTD SVG 1.1//EN" "http://www.w3.org/Graphics/SVG/1.1/DTD/svg11.dtd">
<svg width="100%" height="100%" viewBox="0 0 100 100" version="1.1" xmlns="http://www.w3.org/2000/svg" xmlns:xlink="http://www.w3.org/1999/xlink" xml:space="preserve" xmlns:serif="http://www.serif.com/" style="fill-rule:evenodd;clip-rule:evenodd;stroke-linejoin:round;stroke-miterlimit:2;">
    <g transform="matrix(1,0,0,1,-116.894,0)">
        <g id="ПОчта" transform="matrix(0.116657,0,0,0.247175,123.568,-12.8531)">
            <rect x="-57.214" y="52" width="857.214" height="404.571" style="fill:none;"/>
            <g transform="matrix(0.084387,6.89421e-34,-8.41246e-34,-0.0398243,-50.5414,258.666)">
                <g>
                    <path d="M4494,4985.8C3950.9,4930.6 3348,4755.7 2841.8,4504.9C1843.1,4010.2 1099.8,3269.2 607.4,2270.5C-582.3,-127.3 391.1,-3042.9 2784.3,-4257.9C5198.2,-5484.4 8141.3,-4520.2 9367.8,-2104C10329.7,-212.5 9963.8,2074.9 8463.5,3572.9C7425.7,4613 5962.1,5133.1 4494,4985.8ZM7448.7,1860.8C7411.9,1826.3 5018.7,339.7 5000.3,339.7C4981.9,339.7 2586.4,1826.3 2551.9,1860.8C2538.1,1872.3 3559.8,1881.5 5000.3,1881.5C6429.3,1881.6 7462.5,1872.4 7448.7,1860.8ZM3499.9,565.3C4250.1,98.2 4894.4,-293 4933.5,-304.5C4981.8,-318.3 5032.5,-316 5090,-295.3C5136,-279.2 5789.5,118.9 6542,588.3C7294.5,1060 7918.1,1435.1 7927.3,1425.9C7938.8,1414.4 7943.4,744.8 7941.1,-65.3C7934.2,-1533.4 7934.2,-1535.7 7883.6,-1630.1C7814.6,-1758.9 7667.3,-1880.9 7543,-1913.1C7471.7,-1931.5 6703.1,-1938.4 4993.4,-1938.4C2206.7,-1938.4 2383.9,-1949.9 2209,-1754.3C2133.1,-1669.2 2098.5,-1607 2080.1,-1521.9C2052.5,-1397.6 2043.3,1402.9 2068.6,1428.2C2087,1446.6 1914.5,1552.5 3499.9,565.3Z" style="fill:rgb(151,151,153);fill-opacity:0;fill-rule:nonzero;stroke:rgb(33,160,56);stroke-width:304.76px;"/>
                </g>
            </g>
        </g>
    </g>
</svg>
