<!-- Generated by IcoMoon.io -->
<svg version="1.1" xmlns="http://www.w3.org/2000/svg" width="32" height="32" viewBox="0 0 32 32">
<title>marker</title>
<path fill="#21a038" d="M16 0.512c6.693 0 12.127 5.434 12.127 12.127s-12.127 18.848-12.127 18.848c0 0-12.127-12.154-12.127-18.848s5.434-12.127 12.127-12.127z"></path>
<path fill="#fff" d="M25.246 11.772c-0.121-0.186-0.195-0.397-0.223-0.617-0.011-0.082-0.021-0.165-0.027-0.247-0.009-0.144 0.024-0.284 0.057-0.423 0.063-0.27 0.102-0.542 0.053-0.82-0.063-0.394-0.235-0.764-0.498-1.065-0.122-0.137-0.272-0.244-0.421-0.35-0.169-0.121-0.328-0.247-0.431-0.435-0.006-0.012-0.018-0.024-0.026-0.037-0.095-0.142-0.185-0.287-0.218-0.458-0.011-0.056-0.021-0.115-0.035-0.17-0.037-0.159-0.064-0.321-0.116-0.475-0.11-0.324-0.315-0.586-0.568-0.813-0.237-0.215-0.527-0.365-0.84-0.432-0.089-0.018-0.176-0.038-0.264-0.061-0.13-0.026-0.255-0.075-0.368-0.147-0.076-0.052-0.151-0.105-0.231-0.156-0.122-0.079-0.226-0.185-0.305-0.307-0.061-0.089-0.121-0.179-0.182-0.267-0.122-0.185-0.279-0.345-0.461-0.47-0.351-0.238-0.738-0.379-1.164-0.377-0.14 0.006-0.279 0.021-0.418 0.047-0.107 0.014-0.212 0.034-0.319 0.050-0.142 0.020-0.279-0.015-0.418-0.038-0.2-0.027-0.391-0.101-0.557-0.214-0.061-0.044-0.124-0.086-0.189-0.124-0.087-0.052-0.176-0.107-0.267-0.151-0.257-0.119-0.536-0.177-0.819-0.171-0.359-0.001-0.698 0.075-1.005 0.267-0.079 0.049-0.156 0.102-0.235 0.15-0.076 0.047-0.154 0.093-0.234 0.137-0.092 0.053-0.202 0.070-0.305 0.047-0.122-0.024-0.246-0.046-0.368-0.076-0.287-0.078-0.588-0.084-0.88-0.021-0.408 0.095-0.771 0.27-1.057 0.585-0.086 0.095-0.159 0.2-0.238 0.299-0.064 0.081-0.13 0.16-0.195 0.238-0.050 0.061-0.121 0.102-0.199 0.113-0.127 0.021-0.252 0.047-0.379 0.058-0.376 0.032-0.735 0.171-1.031 0.403-0.345 0.267-0.593 0.602-0.71 1.028-0.021 0.082-0.047 0.163-0.075 0.244-0.098 0.316-0.315 0.58-0.603 0.739-0.107 0.061-0.215 0.121-0.321 0.183-0.13 0.073-0.246 0.165-0.348 0.273-0.443 0.484-0.648 1.046-0.557 1.707 0.021 0.151 0.040 0.305 0.006 0.457-0.026 0.118-0.064 0.232-0.093 0.348-0.035 0.131-0.096 0.255-0.179 0.362-0.078 0.105-0.159 0.208-0.238 0.312-0.128 0.168-0.224 0.359-0.279 0.564-0.034 0.122-0.058 0.249-0.073 0.376-0.040 0.37 0.003 0.727 0.173 1.061 0.055 0.108 0.113 0.214 0.17 0.321 0.052 0.099 0.108 0.202 0.121 0.313 0.017 0.145 0.072 0.283 0.064 0.431-0.003 0.064 0.015 0.128 0.018 0.194 0.008 0.148-0.031 0.289-0.066 0.431-0.050 0.202-0.102 0.403-0.105 0.616 0.014 0.111 0.020 0.225 0.040 0.336 0.064 0.371 0.229 0.716 0.476 1 0.121 0.136 0.266 0.243 0.411 0.353 0.154 0.111 0.286 0.254 0.385 0.415 0.105 0.168 0.174 0.357 0.203 0.554 0.026 0.191 0.044 0.385 0.115 0.567 0.246 0.634 0.683 1.071 1.345 1.265 0.134 0.038 0.272 0.073 0.405 0.119 0.183 0.060 0.339 0.182 0.441 0.345 0.061 0.098 0.122 0.197 0.177 0.298 0.176 0.331 0.444 0.602 0.774 0.779 0.278 0.151 0.57 0.254 0.889 0.255 0.147 0.002 0.295-0.015 0.443-0.026 0.139-0.011 0.28-0.035 0.42-0.008 0.073 0.015 0.147 0.034 0.22 0.052 0.183 0.046 0.36 0.105 0.512 0.224 0.069 0.055 0.142 0.105 0.211 0.16 0.278 0.223 0.614 0.36 0.968 0.399 0.396 0.044 0.776 0.002 1.132-0.189 0.108-0.058 0.217-0.118 0.325-0.176 0.101-0.060 0.214-0.102 0.33-0.124 0.125-0.018 0.252-0.035 0.38-0.050 0.044-0.008 0.090-0.008 0.134 0 0.148 0.026 0.296 0.052 0.441 0.090 0.284 0.073 0.568 0.102 0.857 0.046 0.522-0.104 0.961-0.345 1.278-0.783 0.014-0.020 0.031-0.040 0.046-0.060 0.122-0.173 0.278-0.318 0.457-0.429 0.203-0.122 0.409-0.218 0.648-0.247 0.144-0.017 0.287-0.044 0.429-0.079 0.556-0.14 1.165-0.675 1.341-1.297 0.020-0.070 0.041-0.139 0.058-0.209 0.053-0.214 0.127-0.415 0.261-0.596 0.134-0.185 0.278-0.354 0.48-0.469 0.061-0.034 0.121-0.072 0.18-0.11 0.122-0.073 0.237-0.16 0.341-0.26 0.241-0.244 0.418-0.544 0.516-0.874 0.072-0.217 0.098-0.447 0.076-0.675-0.017-0.145-0.037-0.289-0.055-0.434-0.018-0.127-0.015-0.255 0.009-0.382 0.023-0.095 0.046-0.189 0.067-0.284 0.021-0.104 0.063-0.203 0.119-0.292 0.063-0.096 0.128-0.192 0.195-0.286 0.148-0.2 0.257-0.428 0.318-0.669 0.037-0.154 0.057-0.312 0.060-0.47 0.006-0.31-0.044-0.609-0.189-0.887-0.058-0.113-0.121-0.221-0.188-0.327zM25.055 13.11c-0.021 0.253-0.116 0.496-0.27 0.699-0.084 0.111-0.16 0.231-0.235 0.35-0.072 0.118-0.125 0.246-0.156 0.38-0.011 0.044-0.029 0.085-0.044 0.128-0.003 0.009-0.008 0.018-0.011 0.027-0.015 0.107-0.030 0.214-0.047 0.319-0.017 0.148-0.014 0.296 0.009 0.443 0.018 0.15 0.041 0.298 0.053 0.449 0.026 0.363-0.208 0.933-0.606 1.185-0.099 0.063-0.2 0.125-0.299 0.188-0.186 0.111-0.347 0.26-0.473 0.435-0.014 0.018-0.032 0.032-0.046 0.049-0.021 0.027-0.041 0.055-0.061 0.084-0.014 0.021-0.023 0.046-0.038 0.064-0.118 0.154-0.205 0.33-0.255 0.516-0.030 0.104-0.061 0.208-0.085 0.313-0.092 0.379-0.325 0.649-0.641 0.86-0.162 0.101-0.344 0.166-0.533 0.191-0.162 0.026-0.324 0.050-0.481 0.092-0.11 0.035-0.217 0.078-0.319 0.128-0.050 0.020-0.101 0.046-0.15 0.069-0.012 0.006-0.023 0.011-0.032 0.018-0.060 0.043-0.118 0.087-0.177 0.127-0.142 0.096-0.267 0.214-0.371 0.348-0.060 0.075-0.121 0.15-0.177 0.226-0.186 0.254-0.438 0.408-0.735 0.496-0.133 0.041-0.272 0.063-0.411 0.063-0.122-0.003-0.243-0.021-0.362-0.053-0.16-0.037-0.321-0.079-0.484-0.102-0.116-0.017-0.235-0.003-0.353-0.002-0.020 0-0.040 0.006-0.060 0.006-0.038-0.005-0.075-0.003-0.113 0.001-0.176 0.050-0.362 0.057-0.528 0.142-0.11 0.058-0.223 0.115-0.333 0.174-0.136 0.072-0.267 0.153-0.42 0.183-0.438 0.090-0.848 0.037-1.214-0.24-0.107-0.082-0.215-0.165-0.327-0.243-0.136-0.095-0.287-0.166-0.448-0.209-0.034-0.011-0.066-0.023-0.098-0.037-0.014-0.008-0.027-0.014-0.043-0.017-0.105-0.021-0.211-0.043-0.316-0.060-0.147-0.021-0.296-0.023-0.443-0.005-0.125 0.011-0.25 0.026-0.376 0.034-0.286 0.018-0.544-0.072-0.787-0.215-0.196-0.111-0.357-0.272-0.469-0.467-0.063-0.111-0.128-0.221-0.194-0.331-0.194-0.331-0.512-0.573-0.881-0.672-0.102-0.029-0.203-0.060-0.305-0.086-0.417-0.104-0.703-0.37-0.909-0.735-0.096-0.166-0.125-0.353-0.153-0.539-0.026-0.179-0.047-0.36-0.119-0.527-0.137-0.322-0.318-0.615-0.6-0.832-0.078-0.061-0.153-0.124-0.232-0.18-0.281-0.206-0.44-0.489-0.524-0.82-0.053-0.217-0.052-0.441 0.005-0.657 0.043-0.16 0.078-0.322 0.104-0.486 0.014-0.122 0.015-0.244 0.005-0.367-0.003-0.037-0.012-0.162-0.026-0.273-0.009-0.079-0.018-0.156-0.027-0.221-0.023-0.223-0.119-0.408-0.224-0.603-0.053-0.099-0.108-0.199-0.157-0.301-0.095-0.203-0.131-0.429-0.11-0.652 0.009-0.098 0.023-0.196 0.044-0.29 0.038-0.165 0.112-0.319 0.215-0.452 0.082-0.108 0.167-0.215 0.246-0.324 0.108-0.154 0.194-0.324 0.25-0.502 0.034-0.098 0.050-0.197 0.081-0.295 0.061-0.208 0.057-0.421 0.040-0.635-0.008-0.087-0.017-0.174-0.024-0.261-0.029-0.322 0.067-0.611 0.237-0.878 0.111-0.18 0.266-0.33 0.451-0.434 0.122-0.067 0.241-0.134 0.36-0.206 0.16-0.098 0.302-0.224 0.421-0.37 0.18-0.214 0.31-0.466 0.383-0.735 0.021-0.079 0.050-0.159 0.072-0.238 0.118-0.415 0.623-0.892 1.164-0.936 0.137-0.011 0.273-0.037 0.411-0.056 0.26-0.032 0.496-0.167 0.655-0.374 0.078-0.098 0.159-0.195 0.231-0.298 0.246-0.359 0.597-0.539 1.017-0.605 0.188-0.029 0.37 0.006 0.551 0.046 0.154 0.034 0.31 0.061 0.466 0.085 0.214 0.034 0.409-0.026 0.593-0.128 0.127-0.072 0.252-0.148 0.371-0.229 0.386-0.264 0.805-0.301 1.246-0.185 0.105 0.031 0.206 0.078 0.298 0.139 0.119 0.075 0.237 0.153 0.357 0.226 0.156 0.090 0.325 0.157 0.501 0.197 0.098 0.024 0.195 0.034 0.293 0.055 0.231 0.049 0.46 0.020 0.687-0.021 0.148-0.027 0.296-0.066 0.447-0.055 0.444 0.026 0.822 0.194 1.098 0.554 0.081 0.105 0.151 0.218 0.228 0.328 0.116 0.167 0.26 0.313 0.425 0.432 0.087 0.064 0.179 0.116 0.267 0.176 0.173 0.119 0.37 0.18 0.571 0.226 0.070 0.017 0.141 0.034 0.212 0.049 0.409 0.085 0.701 0.331 0.922 0.673 0.102 0.156 0.144 0.334 0.18 0.515 0.027 0.153 0.064 0.304 0.107 0.454 0.040 0.105 0.087 0.208 0.142 0.306 0.018 0.041 0.041 0.081 0.061 0.121 0.006 0.014 0.014 0.026 0.021 0.040 0.041 0.053 0.084 0.104 0.124 0.159 0.11 0.153 0.246 0.286 0.4 0.396 0.069 0.050 0.137 0.101 0.208 0.15 0.292 0.2 0.455 0.486 0.548 0.82 0.069 0.243 0.049 0.481-0.008 0.722-0.031 0.131-0.052 0.266-0.072 0.399-0.018 0.133-0.015 0.267 0.012 0.397 0.003 0.008 0.005 0.015 0.005 0.023-0.015 0.11 0.038 0.209 0.055 0.315 0.031 0.191 0.115 0.364 0.212 0.528 0.055 0.093 0.11 0.185 0.165 0.278 0.156 0.261 0.191 0.545 0.165 0.842v0.002z"></path>
<path fill="#fff" d="M21.209 12.679c-0.002-2.88-2.338-5.202-5.185-5.214-2.9-0.012-5.229 2.354-5.234 5.203-0.006 2.848 2.314 5.219 5.208 5.22 2.871 0 5.211-2.338 5.211-5.209zM15.986 17.467c-2.654-0.006-4.779-2.173-4.774-4.794 0.003-2.644 2.146-4.785 4.789-4.786 2.68 0.005 4.791 2.195 4.788 4.797-0.005 2.598-2.115 4.789-4.803 4.783z"></path>
<path fill="#fff" d="M21.49 9.461l-0.263 0.092c0.009 0.031 0.015 0.052 0.021 0.072 0.041 0.119 0.084 0.237 0.122 0.357 0.011 0.041 0.046 0.072 0.087 0.078 0.377 0.096 0.753 0.194 1.129 0.292 0.026 0.008 0.050 0.015 0.076 0.023 0 0.005 0.002 0.011 0.002 0.017-0.125 0.043-0.249 0.089-0.373 0.13-0.128 0.043-0.252 0.095-0.385 0.128l-0.050-0.125-0.264 0.093 0.217 0.623 0.266-0.092-0.055-0.17c0.333-0.118 0.661-0.232 0.991-0.344 0.024 0.060 0.044 0.11 0.066 0.166l0.264-0.092c-0.008-0.026-0.012-0.049-0.020-0.069-0.041-0.119-0.085-0.237-0.122-0.356-0.012-0.049-0.052-0.086-0.102-0.092-0.382-0.095-0.764-0.191-1.145-0.287-0.023-0.005-0.043-0.012-0.064-0.018l-0.002-0.018 0.767-0.266c0.020 0.044 0.035 0.079 0.052 0.122l0.266-0.093-0.212-0.612-0.266 0.093c0.017 0.056 0.032 0.107 0.047 0.162l-0.99 0.342-0.060-0.157z"></path>
<path fill="#fff" d="M20.278 7.844l-0.218 0.171c0.014 0.020 0.024 0.037 0.035 0.052 0.081 0.104 0.163 0.205 0.24 0.31 0.023 0.037 0.066 0.055 0.108 0.046 0.118-0.011 0.235-0.018 0.353-0.027 0.229-0.018 0.46-0.037 0.69-0.053 0.066-0.006 0.131-0.009 0.199-0.012l0.006 0.015-0.631 0.493c-0.034-0.040-0.061-0.070-0.092-0.105l-0.22 0.173 0.406 0.521 0.221-0.173-0.105-0.145c0.276-0.217 0.55-0.432 0.826-0.644l0.115 0.137 0.22-0.173c-0.015-0.021-0.026-0.038-0.038-0.055-0.081-0.104-0.163-0.208-0.244-0.315-0.020-0.032-0.058-0.047-0.095-0.041-0.365 0.034-0.73 0.063-1.095 0.093-0.057 0.005-0.113 0.006-0.169 0.009-0.002-0.005-0.005-0.009-0.008-0.015 0.214-0.166 0.426-0.334 0.643-0.499l0.087 0.098 0.221-0.173c-0.134-0.171-0.264-0.338-0.399-0.512l-0.223 0.174c0.037 0.049 0.067 0.092 0.101 0.136l-0.828 0.646-0.107-0.131z"></path>
<path fill="#fff" d="M8.988 10.65c0.336 0.115 0.666 0.223 0.994 0.341l-0.049 0.159 0.266 0.090c0.075-0.22 0.147-0.432 0.221-0.651-0.092-0.031-0.177-0.060-0.266-0.090-0.021 0.057-0.041 0.105-0.063 0.16l-0.993-0.338c0.070-0.222 0.144-0.432 0.218-0.648l0.997 0.339c-0.018 0.057-0.034 0.105-0.050 0.162l0.266 0.092c0.075-0.222 0.147-0.434 0.222-0.652l-0.267-0.090-0.058 0.162-0.997-0.339c0.018-0.060 0.034-0.108 0.052-0.165l-0.266-0.089c-0.185 0.542-0.368 1.080-0.551 1.623l0.264 0.090c0.021-0.055 0.040-0.104 0.060-0.157z"></path>
<path fill="#fff" d="M16.259 6.48c0.122 0.008 0.244 0.018 0.368 0.020 0.231 0.003 0.429-0.159 0.472-0.386 0.029-0.144 0.005-0.273-0.113-0.376-0.006-0.008-0.012-0.015-0.018-0.024 0.038-0.035 0.075-0.073 0.107-0.113 0.072-0.105 0.076-0.228 0.049-0.347-0.050-0.215-0.221-0.356-0.454-0.376-0.232-0.018-0.466-0.032-0.698-0.047-0.027-0.002-0.055 0-0.085 0-0.014 0.092-0.018 0.183-0.015 0.276l0.157 0.021c-0.021 0.351-0.043 0.696-0.070 1.043h-0.165c-0.005 0.092-0.011 0.18-0.015 0.272 0.024 0.005 0.038 0.006 0.053 0.008 0.142 0.009 0.284 0.020 0.428 0.029zM16.379 5.147c0.093 0.006 0.179 0.006 0.263 0.018 0.102 0.015 0.165 0.148 0.125 0.257-0.021 0.075-0.093 0.124-0.171 0.116-0.070-0.003-0.14-0.009-0.211-0.015-0.011-0.002-0.021-0.005-0.032-0.009 0.009-0.122 0.018-0.241 0.026-0.367zM16.334 5.807c0.102 0.008 0.192 0.012 0.281 0.020 0.015 0.002 0.029 0.006 0.043 0.012 0.072 0.035 0.108 0.13 0.087 0.228-0.011 0.085-0.084 0.15-0.171 0.148-0.079-0.003-0.159-0.011-0.24-0.017-0.009-0.003-0.017-0.008-0.026-0.012 0.009-0.122 0.017-0.246 0.026-0.379z"></path>
<path fill="#fff" d="M18.833 6.83c-0.056 0.078-0.108 0.151-0.159 0.232l0.564 0.388 0.159-0.232-0.137-0.102 0.315-0.458c0.011 0.034 0.017 0.049 0.020 0.066 0.037 0.2 0.072 0.4 0.113 0.599 0.012 0.049 0.002 0.101-0.030 0.139-0.047 0.063-0.089 0.127-0.136 0.197l0.437 0.299c0.060-0.087 0.115-0.168 0.173-0.252-0.015-0.014-0.032-0.026-0.049-0.037-0.041-0.020-0.067-0.063-0.069-0.108-0.035-0.2-0.072-0.4-0.107-0.6-0.003-0.021-0.003-0.044-0.003-0.066 0.035-0.006 0.066-0.012 0.095-0.015 0.159-0.017 0.319-0.032 0.478-0.052 0.084-0.011 0.166-0.026 0.235 0.055l0.174-0.257-0.447-0.307c-0.052 0.075-0.101 0.142-0.147 0.211-0.017 0.031-0.049 0.050-0.084 0.052-0.194 0.021-0.389 0.046-0.583 0.069-0.020 0-0.040-0.002-0.061-0.003l0.27-0.394 0.147 0.090 0.159-0.231-0.567-0.389-0.159 0.232 0.13 0.098c-0.073 0.137-0.554 0.826-0.6 0.861l-0.128-0.084z"></path>
<path fill="#fff" d="M9.876 8.606l0.837 0.582-0.093 0.144 0.231 0.159 0.735-1.057-0.47-0.327-0.194 0.278c0.081 0.057 0.156 0.11 0.237 0.166-0.082 0.121-0.162 0.234-0.246 0.353l-0.318-0.221 0.182-0.267-0.244-0.17c-0.064 0.090-0.124 0.174-0.188 0.264l-0.272-0.189c0.084-0.124 0.16-0.24 0.246-0.353 0.069 0.046 0.128 0.086 0.191 0.128l0.191-0.278-0.447-0.31-0.733 1.057 0.253 0.177 0.104-0.136z"></path>
<path fill="#fff" d="M14.699 6.619c0.28 0.002 0.489-0.095 0.632-0.263 0.313-0.368 0.252-0.948-0.131-1.251-0.307-0.249-0.754-0.217-1.023 0.075-0.241 0.254-0.292 0.669-0.116 0.996 0.148 0.275 0.377 0.428 0.638 0.443zM14.378 5.469c0.057-0.102 0.154-0.174 0.267-0.195 0.115-0.023 0.232 0.008 0.321 0.082 0.206 0.177 0.267 0.47 0.151 0.716-0.055 0.113-0.16 0.192-0.284 0.214s-0.249-0.018-0.339-0.105c-0.119-0.115-0.186-0.273-0.183-0.438-0.002-0.095 0.021-0.189 0.067-0.273z"></path>
<path fill="#fff" d="M17.661 6.7c0.279 0.211 0.669 0.195 0.932-0.035 0.031-0.026 0.055-0.060 0.087-0.095l-0.286-0.194c-0.023 0.020-0.038 0.032-0.053 0.044-0.234 0.182-0.539 0.084-0.625-0.199-0.029-0.093-0.030-0.189-0.009-0.282 0.041-0.179 0.134-0.319 0.302-0.4 0.185-0.089 0.426-0.018 0.498 0.159 0.029 0.082 0.101 0.142 0.186 0.156 0.017 0.003 0.034 0.011 0.050 0.017 0.037 0.011 0.075 0.021 0.118 0.034 0.037-0.113 0.072-0.22 0.108-0.33-0.057-0.018-0.105-0.038-0.156-0.052-0.044-0.011-0.082-0.040-0.104-0.079-0.043-0.075-0.105-0.134-0.182-0.176-0.197-0.111-0.435-0.127-0.646-0.041-0.336 0.131-0.554 0.48-0.539 0.854 0.011 0.255 0.111 0.466 0.318 0.62z"></path>
<path fill="#fff" d="M11.918 8.047c0.341-0.072 0.622-0.409 0.577-0.797-0.003-0.063-0.021-0.125-0.055-0.179l-0.305 0.144c0.005 0.027 0.008 0.044 0.011 0.061 0.023 0.124-0.015 0.25-0.102 0.341-0.089 0.090-0.214 0.131-0.338 0.11-0.267-0.037-0.493-0.298-0.49-0.567 0.003-0.24 0.203-0.432 0.441-0.386 0.049 0.011 0.099-0.005 0.133-0.041 0.044-0.041 0.092-0.079 0.136-0.119 0.015-0.012 0.027-0.027 0.043-0.044l-0.226-0.26c-0.050 0.043-0.095 0.079-0.137 0.118-0.024 0.021-0.055 0.034-0.087 0.034-0.084 0-0.166 0.018-0.24 0.055-0.134 0.070-0.244 0.18-0.313 0.316-0.151 0.305-0.118 0.602 0.082 0.872 0.215 0.29 0.509 0.42 0.871 0.344z"></path>
<path fill="#fff" d="M12.591 6.204l-0.089-0.191 0.186-0.092c0.157 0.322 0.31 0.637 0.464 0.956l-0.148 0.079c0.043 0.087 0.079 0.171 0.125 0.25 0.11-0.053 0.212-0.102 0.313-0.153 0.099-0.050 0.203-0.092 0.301-0.151l-0.124-0.249-0.154 0.072-0.466-0.958 0.212-0.101 0.095 0.188 0.306-0.15-0.212-0.435-1.326 0.644 0.212 0.437 0.304-0.148z"></path>
<path fill="#fff" d="M16.967 19.448l0.165-0.012v-0.247h-0.069c-0.105 0.005-0.211 0.012-0.316 0.014-0.043-0.003-0.082 0.018-0.104 0.055-0.096 0.142-0.197 0.279-0.295 0.419-0.012 0.018-0.027 0.034-0.044 0.053-0.015-0.018-0.026-0.029-0.035-0.040-0.116-0.136-0.232-0.27-0.345-0.408-0.020-0.026-0.052-0.041-0.084-0.038-0.078 0.005-0.156 0.005-0.234 0.008-0.050 0.003-0.102 0.009-0.153 0.014 0 0.050-0.002 0.090 0 0.13 0.003 0.038 0.009 0.076 0.014 0.116h0.157c0.006 0.157 0.012 0.312 0.018 0.469l-0.163 0.014c0.005 0.084 0.008 0.163 0.012 0.247l0.553-0.024v-0.243l-0.113-0.011c-0.006-0.096-0.011-0.189-0.015-0.283l0.018-0.006 0.389 0.443c0.063-0.087 0.119-0.165 0.177-0.243 0.056-0.078 0.111-0.157 0.171-0.232l0.017 0.006c0.005 0.095 0.008 0.188 0.012 0.284l-0.105 0.014c0.005 0.082 0.009 0.16 0.014 0.246l0.551-0.024v-0.252h-0.174c-0.006-0.157-0.012-0.31-0.020-0.467z"></path>
<path fill="#fff" d="M17.616 19.062c-0.011 0.011-0.023 0.021-0.041 0.035-0.023-0.069-0.005-0.144 0.046-0.194 0.055-0.060 0.125-0.102 0.203-0.125 0.082-0.027 0.166-0.052 0.251-0.078 0.032-0.011 0.064-0.023 0.099-0.035-0.027-0.096-0.052-0.185-0.081-0.284-0.078 0.021-0.148 0.041-0.218 0.061-0.009 0.002-0.017 0.008-0.021 0.015 0.008 0.055-0.040 0.052-0.069 0.063-0.095 0.032-0.185 0.079-0.266 0.139-0.162 0.128-0.241 0.296-0.202 0.502 0.035 0.163 0.078 0.325 0.131 0.484 0.021 0.063 0.055 0.119 0.098 0.166 0.205 0.237 0.556 0.183 0.739 0.017 0.171-0.156 0.211-0.394 0.105-0.622-0.063-0.144-0.194-0.247-0.348-0.276-0.156-0.031-0.315 0.020-0.426 0.131zM17.939 19.712c-0.139 0.003-0.264-0.125-0.266-0.272 0.002-0.139 0.113-0.252 0.252-0.257 0.136 0 0.241 0.122 0.243 0.281 0.006 0.131-0.098 0.243-0.229 0.247z"></path>
<path fill="#fff" d="M21.063 17.925l-0.302-0.36 0.102-0.096-0.16-0.188-0.431 0.363 0.16 0.188 0.108-0.082 0.079 0.095-0.33 0.278c-0.027-0.035-0.052-0.066-0.081-0.101l0.101-0.086c-0.057-0.066-0.107-0.125-0.16-0.189l-0.431 0.363c0.055 0.066 0.105 0.125 0.159 0.188l0.115-0.087 0.304 0.362-0.105 0.098c0.055 0.066 0.104 0.125 0.159 0.189l0.431-0.363c-0.057-0.067-0.107-0.127-0.159-0.189-0.040 0.031-0.070 0.055-0.107 0.082l-0.101-0.122 0.33-0.278 0.101 0.122-0.099 0.093 0.159 0.189 0.431-0.363-0.159-0.188-0.113 0.082z"></path>
<path fill="#fff" d="M19.795 18.909c-0.073-0.14-0.144-0.278-0.215-0.417l0.099-0.061-0.115-0.22c-0.095 0.050-0.182 0.098-0.273 0.14-0.041 0.017-0.070 0.055-0.075 0.101-0.038 0.212-0.079 0.423-0.119 0.635-0.006 0.021-0.012 0.041-0.021 0.061l-0.162-0.313 0.099-0.063c-0.038-0.073-0.075-0.142-0.113-0.218-0.159 0.082-0.309 0.16-0.466 0.243l0.113 0.217 0.115-0.047 0.215 0.417-0.102 0.064c0.037 0.078 0.073 0.148 0.115 0.217 0.095-0.049 0.18-0.096 0.269-0.137 0.047-0.018 0.079-0.061 0.084-0.111 0.038-0.208 0.079-0.414 0.121-0.62 0.006-0.020 0.014-0.040 0.021-0.058 0.058 0.108 0.11 0.203 0.156 0.302l-0.102 0.064 0.113 0.218 0.466-0.243c-0.041-0.076-0.076-0.145-0.115-0.215l-0.107 0.044z"></path>
<path fill="#fff" d="M10.207 16.279l0.217-0.111c-0.171-0.336-0.336-0.663-0.504-0.993-0.075 0.032-0.148 0.070-0.218 0.111 0.021 0.046 0.038 0.084 0.058 0.128-0.079 0.037-0.151 0.073-0.225 0.101-0.127 0.049-0.225 0.015-0.302-0.093-0.017-0.021-0.030-0.044-0.049-0.072l-0.217 0.111c0.027 0.055 0.050 0.101 0.073 0.144 0.082 0.163 0.264 0.25 0.443 0.211 0.116-0.023 0.228-0.061 0.331-0.116 0.024-0.011 0.049-0.021 0.076-0.032 0.041 0.082 0.082 0.156 0.118 0.237l-0.425 0.215-0.067-0.124c-0.122 0.047-0.185 0.084-0.215 0.125l0.266 0.524c0.076-0.032 0.15-0.069 0.222-0.111l-0.073-0.159c0.144-0.073 0.281-0.145 0.423-0.212l0.069 0.116z"></path>
<path fill="#fff" d="M13.646 19.020c-0.031 0.075-0.105 0.095-0.165 0.134-0.009 0.003-0.020 0.002-0.027-0.003-0.029-0.011-0.055-0.023-0.089-0.037 0.049-0.125 0.095-0.247 0.144-0.374l-0.406-0.159c-0.030 0.081-0.058 0.154-0.089 0.231 0.029 0.012 0.050 0.021 0.070 0.030 0.021 0.009 0.043 0.020 0.070 0.032-0.060 0.15-0.115 0.292-0.173 0.44l-0.144-0.050-0.090 0.232 0.501 0.194 0.089-0.229-0.089-0.046c0.015-0.038 0.031-0.075 0.044-0.108 0.061 0 0.115 0.043 0.127 0.104 0.035 0.118 0.078 0.234 0.121 0.348 0.006 0.024 0.020 0.044 0.040 0.058 0.070 0.034 0.142 0.058 0.22 0.089l0.090-0.232c-0.035-0.014-0.063-0.023-0.090-0.037-0.018-0.008-0.034-0.020-0.046-0.035-0.038-0.089-0.075-0.179-0.113-0.273 0.090-0.053 0.173-0.102 0.257-0.147 0.020-0.006 0.043-0.005 0.063 0.003 0.035 0.009 0.069 0.023 0.107 0.037 0.032-0.079 0.060-0.151 0.090-0.229l-0.434-0.169c-0.029 0.070-0.053 0.134-0.078 0.197z"></path>
<path fill="#fff" d="M23.337 13.24c-0.064-0.003-0.13 0-0.196 0-0.11-0.002-0.127-0.014-0.16-0.119-0.015-0.049-0.030-0.096-0.046-0.144-0.005-0.012-0.008-0.024-0.012-0.035-0.012-0.038-0.047-0.063-0.086-0.063-0.040 0-0.075 0.026-0.085 0.063-0.023 0.067-0.044 0.134-0.067 0.2-0.026 0.081-0.047 0.096-0.13 0.098-0.070 0-0.141-0.002-0.211 0-0.044-0.006-0.087 0.021-0.099 0.064-0.014 0.041-0.002 0.076 0.043 0.11 0.055 0.044 0.113 0.085 0.168 0.128 0.069 0.053 0.078 0.079 0.053 0.162-0.021 0.070-0.046 0.139-0.066 0.208-0.018 0.041-0.003 0.090 0.035 0.115 0.034 0.023 0.081 0.020 0.111-0.009 0.041-0.032 0.084-0.063 0.127-0.093 0.115-0.084 0.127-0.084 0.238-0.005 0.043 0.032 0.086 0.063 0.128 0.093 0.046 0.031 0.082 0.032 0.118 0.006 0.037-0.026 0.044-0.060 0.029-0.116-0.005-0.011-0.008-0.023-0.012-0.035-0.018-0.055-0.037-0.11-0.053-0.165-0.021-0.076-0.012-0.107 0.052-0.156 0.057-0.046 0.115-0.090 0.173-0.133 0.026-0.015 0.043-0.043 0.046-0.073 0.005-0.057-0.041-0.104-0.098-0.101z"></path>
<path fill="#fff" d="M9.236 13.89c0.055 0.037 0.107 0.076 0.16 0.113 0.057 0.040 0.093 0.044 0.13 0.014 0.046-0.035 0.040-0.081 0.023-0.13-0.020-0.058-0.038-0.119-0.056-0.179-0.026-0.087-0.018-0.113 0.053-0.168 0.058-0.044 0.116-0.086 0.173-0.133 0.055-0.043 0.060-0.102 0.012-0.141-0.024-0.017-0.053-0.026-0.082-0.026-0.067-0.005-0.136-0.002-0.203-0.002-0.084-0.002-0.104-0.017-0.131-0.096-0.021-0.067-0.043-0.134-0.066-0.2-0.024-0.084-0.142-0.085-0.171-0.003-0.006 0.017-0.011 0.032-0.017 0.049-0.018 0.058-0.037 0.115-0.057 0.173-0.011 0.047-0.057 0.081-0.105 0.078h-0.226c-0.044-0.005-0.086 0.020-0.102 0.061s-0.003 0.078 0.046 0.116c0.053 0.041 0.108 0.082 0.162 0.124 0.075 0.057 0.082 0.081 0.053 0.174-0.020 0.064-0.044 0.128-0.060 0.194-0.009 0.027-0.008 0.058 0.003 0.085 0.021 0.050 0.081 0.061 0.134 0.026 0.060-0.040 0.118-0.085 0.177-0.127 0.041-0.041 0.107-0.041 0.15-0.003z"></path>
<path fill="#fff" d="M22.483 15.993c-0.145-0.076-0.287-0.148-0.428-0.232l0.081-0.144 0.168 0.081 0.13-0.246-0.377-0.202-0.561 1.043c0.13 0.070 0.25 0.137 0.38 0.202l0.13-0.243-0.163-0.093 0.078-0.142c0.147 0.078 0.287 0.15 0.426 0.231-0.024 0.050-0.044 0.093-0.066 0.137l0.217 0.116 0.289-0.538-0.218-0.116c-0.031 0.052-0.057 0.096-0.085 0.145z"></path>
<path fill="#fff" d="M21.926 16.924c-0.038-0.029-0.072-0.055-0.105-0.081-0.076-0.060-0.151-0.124-0.232-0.179-0.142-0.096-0.276-0.087-0.409 0.021-0.092 0.075-0.163 0.173-0.206 0.283-0.034 0.075-0.050 0.156-0.052 0.238l0.185 0.040c0.009-0.031 0.015-0.052 0.023-0.072 0.031-0.099 0.089-0.188 0.168-0.254 0.072-0.058 0.131-0.050 0.199 0.017-0.037 0.038-0.069 0.073-0.101 0.108-0.070 0.069-0.122 0.154-0.15 0.249-0.032 0.107 0.005 0.223 0.090 0.293 0.081 0.079 0.205 0.101 0.309 0.052 0.053-0.026 0.102-0.060 0.147-0.102 0.070-0.066 0.115-0.157 0.121-0.254 0.021 0 0.043-0.005 0.063-0.015 0.079-0.093 0.154-0.189 0.234-0.29l-0.194-0.154-0.087 0.099zM21.712 17.278c-0.017 0.037-0.040 0.069-0.069 0.098-0.084 0.101-0.238-0.018-0.162-0.127 0.014-0.023 0.029-0.046 0.047-0.066 0.032-0.041 0.066-0.082 0.099-0.122 0.005-0.005 0.011-0.008 0.017-0.009 0.115 0.076 0.125 0.108 0.067 0.226z"></path>
<path fill="#fff" d="M10.283 16.896l0.451 0.57c0.078-0.056 0.147-0.125 0.198-0.206 0.044-0.064 0.069-0.14 0.072-0.218 0.005-0.206-0.095-0.357-0.264-0.457-0.334-0.195-0.701 0.053-0.771 0.347-0.014 0.053-0.018 0.108-0.012 0.163 0.027 0.237 0.229 0.457 0.47 0.521l0.081-0.186c-0.026-0.018-0.050-0.032-0.070-0.049-0.050-0.041-0.101-0.082-0.147-0.128-0.047-0.047-0.076-0.108-0.081-0.174-0.012-0.070 0.015-0.141 0.073-0.182zM10.708 16.85c0.073 0.092 0.072 0.173-0.012 0.26l-0.254-0.321c0.096-0.058 0.191-0.035 0.266 0.061z"></path>
<path fill="#fff" d="M14.677 19.074c-0.139 0-0.272 0.055-0.368 0.154s-0.15 0.232-0.147 0.371c0 0.273 0.196 0.51 0.535 0.512 0.345 0.003 0.51-0.281 0.51-0.518 0.003-0.292-0.228-0.516-0.53-0.519zM14.683 19.853c-0.137 0.003-0.251-0.11-0.246-0.247-0.002-0.157 0.105-0.275 0.249-0.273 0.139-0.009 0.254 0.107 0.244 0.246-0.003 0.185-0.133 0.286-0.247 0.275z"></path>
<path fill="#fff" d="M12.273 18.129c-0.264-0.006-0.521 0.217-0.525 0.532-0.003 0.273 0.252 0.513 0.538 0.515 0.276 0.001 0.512-0.238 0.513-0.524 0.002-0.281-0.237-0.515-0.525-0.522zM12.264 18.912c-0.134 0-0.243-0.111-0.24-0.246 0-0.148 0.121-0.278 0.258-0.278 0.134 0 0.244 0.107 0.246 0.24 0 0.15-0.125 0.284-0.264 0.284z"></path>
<path fill="#fff" d="M11.962 17.942c-0.020-0.024-0.043-0.046-0.066-0.067-0.043-0.034-0.076-0.079-0.093-0.131-0.032-0.082-0.087-0.154-0.157-0.208-0.159-0.134-0.336-0.168-0.525-0.086-0.191 0.075-0.318 0.257-0.324 0.461-0.020 0.321 0.29 0.596 0.609 0.545 0.060-0.003 0.115-0.026 0.159-0.064-0.023-0.035-0.043-0.070-0.066-0.104-0.021-0.035-0.046-0.070-0.066-0.101-0.046 0.008-0.093 0.012-0.141 0.012-0.14-0.009-0.244-0.134-0.228-0.273 0.018-0.145 0.157-0.26 0.295-0.241 0.121 0.018 0.214 0.115 0.231 0.235 0 0.024 0.008 0.047 0.021 0.067 0.053 0.053 0.11 0.101 0.169 0.154l0.18-0.2z"></path>
<path fill="#fff" d="M23.534 9.929c-0.029-0.006-0.057-0.020-0.079-0.040-0.093-0.082-0.107-0.223-0.032-0.324 0.006-0.011 0.014-0.020 0.020-0.031l-0.082-0.234c-0.115 0.086-0.191 0.182-0.2 0.319-0.009 0.153 0.040 0.302 0.137 0.418 0.092 0.11 0.214 0.15 0.367 0.139-0.024-0.070-0.047-0.128-0.064-0.188-0.006-0.034-0.034-0.057-0.066-0.061z"></path>
<path fill="#fff" d="M17.191 12.968c-0.092-0.050-0.186-0.096-0.283-0.137-0.047-0.021-0.098-0.035-0.153-0.055 0.003-0.052 0.008-0.101 0.009-0.151 0.003-0.104-0.044-0.153-0.147-0.159-0.063-0.003-0.125-0.011-0.186-0.024-0.278-0.066-0.509-0.22-0.721-0.405-0.037-0.032-0.040-0.058-0.011-0.107 0.058-0.099 0.113-0.202 0.179-0.295 0.232-0.321 0.499-0.612 0.797-0.871 0.191-0.168 0.388-0.328 0.617-0.441 0.018-0.009 0.034-0.021 0.047-0.035 0.102-0.101 0.205-0.202 0.304-0.304 0.084-0.078 0.089-0.209 0.009-0.293-0.111-0.119-0.226-0.235-0.345-0.347-0.082-0.078-0.214-0.076-0.293 0.005-0.020 0.017-0.037 0.035-0.055 0.053-0.608 0.608-1.217 1.217-1.825 1.827-0.029 0.035-0.070 0.058-0.115 0.063-0.064 0.005-0.124 0.034-0.165 0.081-0.18 0.179-0.36 0.357-0.538 0.538-0.115 0.108-0.116 0.29-0.003 0.4 0.115 0.119 0.234 0.235 0.351 0.351 0.055 0.061 0.137 0.090 0.218 0.079 0.073-0.012 0.107 0.020 0.134 0.081-0.026 0.011-0.050 0.023-0.076 0.034-0.118 0.044-0.226 0.108-0.324 0.188-0.121 0.098-0.191 0.246-0.188 0.402 0.001 0.808 0.001 1.617 0.001 2.425 0 0.027 0.002 0.055 0.008 0.082 0.026 0.099 0.154 0.128 0.22 0.050 0.026-0.029 0.038-0.066 0.035-0.104-0.002-0.124-0.002-0.246 0-0.37 0-0.021 0.003-0.043 0.006-0.069 0.015 0.005 0.032 0.012 0.047 0.020 0.173 0.089 0.356 0.151 0.545 0.188 0.020 0.005 0.040 0.008 0.060 0.008 0.145 0.005 0.185-0.197 0.049-0.249-0.029-0.009-0.060-0.012-0.087-0.021-0.127-0.041-0.255-0.078-0.379-0.125-0.060-0.027-0.115-0.061-0.165-0.104-0.053-0.040-0.082-0.104-0.078-0.171 0.003-0.119 0-0.24 0.002-0.36 0.002-0.020 0.003-0.040 0.008-0.058 0.079 0.038 0.15 0.078 0.223 0.108 0.328 0.136 0.672 0.182 1.023 0.182 0.011 0 0.020 0 0.030-0.002 0.049-0.008 0.089-0.043 0.102-0.089 0.015-0.044 0.005-0.093-0.029-0.127-0.027-0.029-0.067-0.044-0.107-0.043-0.125-0.006-0.252-0.012-0.376-0.026-0.191-0.018-0.377-0.066-0.553-0.139-0.087-0.035-0.166-0.084-0.237-0.145-0.044-0.031-0.073-0.078-0.082-0.131-0.005-0.111-0.002-0.223-0.002-0.347 0.066 0.035 0.119 0.066 0.176 0.092s0.116 0.047 0.174 0.069c0.057 0.020 0.115 0.037 0.174 0.052s0.122 0.027 0.183 0.038c0.061 0.011 0.124 0.020 0.186 0.026 0.063 0.008 0.125 0.012 0.188 0.015 0.060 0.003 0.121 0.005 0.18 0.005 0.063 0 0.125-0.002 0.188-0.005s0.125-0.008 0.188-0.015c0.063-0.006 0.124-0.017 0.186-0.027 0.061-0.011 0.124-0.023 0.183-0.038 0.058-0.015 0.116-0.032 0.173-0.052 0.060-0.021 0.118-0.046 0.174-0.072 0.057-0.024 0.11-0.055 0.165-0.082 0.003 0.008 0.006 0.017 0.008 0.024v0.693c0.002 0.050-0.020 0.101-0.057 0.136-0.038 0.037-0.078 0.070-0.122 0.099-0.098 0.061-0.205 0.107-0.316 0.137-0.049 0.014-0.098 0.024-0.145 0.038-0.050 0.012-0.089 0.053-0.095 0.105-0.018 0.095 0.073 0.174 0.165 0.145 0.177-0.037 0.348-0.101 0.505-0.189 0.017-0.011 0.037-0.018 0.066-0.032v0.871c-0.002 0.026 0 0.050 0.002 0.076 0.021 0.148 0.237 0.147 0.255-0.003 0.001-0.027 0.003-0.055 0.001-0.082v-1.724c0-0.237-0.001-0.472 0.002-0.709 0.002-0.116-0.043-0.231-0.125-0.313-0.049-0.053-0.105-0.099-0.168-0.139zM16.487 12.722c0.002 0.018 0.002 0.038 0 0.058-0.037 0.197-0.134 0.376-0.279 0.515-0.029 0.031-0.070 0.047-0.113 0.046-0.154-0.003-0.31-0.002-0.473-0.002-0.098-0.283-0.254-0.542-0.455-0.764l0.356-0.354c0.278 0.238 0.585 0.435 0.965 0.501zM17.18 9.579c0.061 0.061 0.128 0.128 0.194 0.197 0.017 0.015 0.031 0.032 0.050 0.053-0.014 0.015-0.024 0.032-0.038 0.046-0.115 0.125-0.247 0.234-0.392 0.321-0.2 0.113-0.373 0.266-0.541 0.42-0.281 0.25-0.536 0.53-0.762 0.832-0.047 0.066-0.093 0.134-0.136 0.197-0.078-0.076-0.153-0.153-0.222-0.22l1.846-1.846zM14.857 12.484c-0.122-0.121-0.246-0.243-0.359-0.36 0.192-0.192 0.377-0.379 0.565-0.567 0.13 0.11 0.25 0.231 0.36 0.36-0.027 0.050-0.498 0.522-0.567 0.567zM17.194 13.487c-0.038 0.047-0.081 0.089-0.13 0.124-0.125 0.084-0.266 0.142-0.414 0.173-0.519 0.121-1.035 0.118-1.544-0.049-0.107-0.032-0.206-0.084-0.293-0.151-0.154-0.121-0.156-0.234-0.005-0.356 0.108-0.081 0.232-0.142 0.363-0.176 0.009 0 0.018 0 0.027 0.002 0.057 0.085 0.102 0.177 0.137 0.275-0.024 0.006-0.044 0.011-0.063 0.017-0.057 0.018-0.093 0.073-0.090 0.133 0.006 0.063 0.055 0.111 0.118 0.118 0.023 0.002 0.044 0.003 0.067 0.002h1.182c0.023 0.001 0.046 0 0.069-0.002 0.151-0.018 0.15-0.24-0.003-0.255-0.026-0.003-0.052-0.005-0.086-0.006l0.163-0.299c0.162 0.047 0.319 0.105 0.447 0.22 0.020 0.020 0.038 0.041 0.053 0.064 0.038 0.049 0.038 0.119-0.002 0.168z"></path>
<path fill="#fff" d="M17.651 12.433c-0.067-0.008-0.134-0.008-0.202 0-0.066 0.008-0.113 0.064-0.111 0.13 0.003 0.069 0.057 0.124 0.125 0.127 0.030 0.002 0.061 0 0.090 0 0.027 0 0.055 0.002 0.082 0 0.069-0.001 0.124-0.055 0.13-0.122 0.005-0.069-0.046-0.128-0.115-0.134z"></path>
<path fill="#fff" d="M16.679 11.467c-0.069-0.006-0.128 0.044-0.134 0.115-0.008 0.064-0.008 0.128-0.002 0.194 0.005 0.072 0.067 0.125 0.139 0.118 0.069-0.006 0.121-0.064 0.119-0.131 0.002-0.027 0.002-0.055 0.002-0.082s0-0.055-0.002-0.082c-0.002-0.069-0.053-0.125-0.122-0.13z"></path>
<path fill="#fff" d="M17.345 11.748c-0.017 0-0.032 0.006-0.046 0.014-0.063 0.055-0.122 0.116-0.179 0.179-0.035 0.044-0.017 0.111 0.024 0.151 0.043 0.044 0.11 0.049 0.159 0.012 0.055-0.046 0.107-0.096 0.154-0.153 0.032-0.038 0.035-0.092 0.008-0.134-0.023-0.044-0.070-0.072-0.121-0.069z"></path>
<path fill="#fff" d="M20.623 12.6c-0.040 0-0.072 0.035-0.066 0.075 0 0.037 0.032 0.067 0.069 0.064 0.037-0.002 0.064-0.034 0.061-0.070 0.002-0.037-0.027-0.067-0.064-0.069z"></path>
<path fill="#fff" d="M11.427 12.042c0.037 0 0.067-0.029 0.067-0.066-0.003-0.034-0.029-0.060-0.061-0.063-0.037 0-0.067 0.029-0.067 0.066 0.002 0.034 0.029 0.060 0.061 0.063z"></path>
<path fill="#fff" d="M12.93 16.068c-0.037 0-0.066 0.029-0.067 0.064 0.005 0.034 0.029 0.060 0.063 0.064 0.037 0 0.066-0.031 0.066-0.066 0-0.034-0.027-0.061-0.061-0.063z"></path>
<path fill="#fff" d="M11.496 13.388c-0.002-0.086-0.131-0.082-0.128 0.003 0.002 0.037 0.031 0.064 0.067 0.063 0.035-0.001 0.063-0.030 0.061-0.066z"></path>
<path fill="#fff" d="M19.331 15.818c-0.037 0.003-0.064 0.032-0.066 0.069 0.003 0.034 0.032 0.060 0.066 0.060s0.061-0.026 0.064-0.060c0-0.037-0.027-0.067-0.064-0.069z"></path>
<path fill="#fff" d="M19.567 15.555c-0.034-0.002-0.061 0.024-0.066 0.058-0.002 0.037 0.026 0.067 0.063 0.070 0.034-0.002 0.061-0.026 0.066-0.060 0.001-0.037-0.026-0.067-0.063-0.069z"></path>
<path fill="#fff" d="M13.481 8.864c0.034-0.003 0.061-0.029 0.063-0.063 0-0.035-0.029-0.064-0.066-0.066-0.032 0.002-0.060 0.027-0.061 0.061-0.002 0.037 0.027 0.067 0.064 0.067z"></path>
<path fill="#fff" d="M14.106 16.836c-0.034 0.003-0.058 0.031-0.057 0.064s0.027 0.061 0.061 0.063c0.037-0.001 0.064-0.030 0.066-0.066-0.003-0.037-0.034-0.064-0.070-0.061z"></path>
<path fill="#fff" d="M18.207 16.675c-0.079 0.003-0.082 0.121-0.002 0.128 0.037 0.002 0.067-0.026 0.069-0.063-0.001-0.037-0.030-0.066-0.067-0.066z"></path>
<path fill="#fff" d="M15.126 17.154c-0.034-0.002-0.063 0.023-0.067 0.057-0.008 0.057 0.061 0.095 0.105 0.057 0.044-0.037 0.021-0.11-0.038-0.113z"></path>
<path fill="#fff" d="M14.43 8.392c0.032-0.005 0.058-0.029 0.063-0.063 0-0.035-0.029-0.066-0.066-0.066s-0.064 0.032-0.061 0.069c0.003 0.032 0.030 0.058 0.064 0.060z"></path>
<path fill="#fff" d="M16.163 8.122c0.037-0.002 0.066-0.030 0.066-0.067s-0.032-0.064-0.069-0.061c-0.032 0.003-0.058 0.031-0.060 0.064 0.005 0.034 0.031 0.060 0.063 0.064z"></path>
<path fill="#fff" d="M11.863 14.669c-0.037 0-0.067 0.027-0.069 0.064 0.002 0.034 0.027 0.061 0.061 0.064 0.084 0.003 0.092-0.122 0.008-0.128z"></path>
<path fill="#fff" d="M16.18 17.232c-0.034 0.002-0.060 0.027-0.064 0.061 0 0.037 0.027 0.066 0.064 0.067 0.034 0 0.061-0.026 0.064-0.060 0-0.037-0.027-0.066-0.064-0.069z"></path>
<path fill="#fff" d="M16.872 8.2c0.034-0.003 0.060-0.030 0.063-0.064-0.002-0.037-0.032-0.066-0.069-0.064-0.034 0.002-0.060 0.029-0.060 0.063 0 0.037 0.029 0.066 0.066 0.066z"></path>
<path fill="#fff" d="M20.29 14.339c-0.035 0.002-0.064 0.031-0.064 0.067 0 0.034 0.026 0.061 0.060 0.063 0.037 0 0.067-0.029 0.067-0.066-0.003-0.032-0.029-0.060-0.063-0.064z"></path>
<path fill="#fff" d="M20.543 12.31c0 0.034 0.026 0.061 0.061 0.064 0.035 0 0.066-0.029 0.067-0.064-0.002-0.034-0.027-0.061-0.061-0.064-0.037 0-0.066 0.027-0.067 0.064z"></path>
<path fill="#fff" d="M18.524 16.494c-0.086-0.015-0.107 0.113-0.021 0.127 0.084 0.014 0.105-0.113 0.021-0.127z"></path>
<path fill="#fff" d="M20.609 12.966c-0.034 0.001-0.061 0.027-0.064 0.061-0.003 0.058 0.066 0.089 0.107 0.049 0.043-0.040 0.015-0.11-0.043-0.11z"></path>
<path fill="#fff" d="M19.781 15.273c-0.086-0.002-0.087 0.128-0.002 0.128 0.034-0.002 0.061-0.026 0.066-0.060 0-0.037-0.027-0.067-0.064-0.069z"></path>
<path fill="#fff" d="M13.794 16.676c-0.034 0.003-0.061 0.029-0.063 0.064-0.002 0.034 0.026 0.063 0.060 0.064 0.037 0.002 0.067-0.027 0.069-0.066-0.005-0.034-0.032-0.060-0.066-0.063z"></path>
<path fill="#fff" d="M17.565 16.965c-0.034 0.002-0.061 0.026-0.064 0.060-0.003 0.082 0.119 0.092 0.128 0.009 0-0.037-0.029-0.067-0.064-0.069z"></path>
<path fill="#fff" d="M16.884 17.153c-0.037 0-0.066 0.029-0.064 0.066 0.002 0.034 0.029 0.060 0.061 0.063 0.037-0.002 0.066-0.032 0.066-0.067-0.002-0.034-0.029-0.060-0.063-0.061z"></path>
<path fill="#fff" d="M15.111 8.201c0.034 0 0.061-0.026 0.063-0.060 0-0.037-0.027-0.067-0.064-0.069-0.034 0.003-0.060 0.029-0.064 0.063 0 0.037 0.029 0.066 0.066 0.066z"></path>
<path fill="#fff" d="M17.88 8.516c0.037 0 0.066-0.030 0.066-0.066-0.002-0.037-0.032-0.066-0.067-0.064-0.037 0.002-0.064 0.034-0.063 0.069 0.003 0.034 0.031 0.060 0.064 0.061z"></path>
<path fill="#fff" d="M13.778 8.683c0.035 0.003 0.067-0.024 0.070-0.061 0.003-0.086-0.125-0.092-0.128-0.006 0 0.034 0.024 0.063 0.058 0.067z"></path>
<path fill="#fff" d="M13.193 9.069c0.032-0.003 0.060-0.027 0.064-0.061 0-0.037-0.029-0.066-0.066-0.066-0.034-0.002-0.061 0.026-0.063 0.060-0.001 0.037 0.027 0.067 0.064 0.067z"></path>
<path fill="#fff" d="M12.021 10.384c0.084 0 0.086-0.125 0.002-0.128-0.085-0.002-0.087 0.128-0.002 0.128z"></path>
<path fill="#fff" d="M11.85 10.697c0.037-0.002 0.066-0.031 0.067-0.066-0.003-0.085-0.128-0.082-0.128 0.002 0.002 0.034 0.027 0.061 0.061 0.064z"></path>
<path fill="#fff" d="M11.71 11.019c0.034-0.002 0.061-0.027 0.063-0.061 0-0.037-0.029-0.067-0.066-0.067-0.032 0.003-0.058 0.029-0.063 0.063 0 0.035 0.029 0.066 0.066 0.066z"></path>
<path fill="#fff" d="M11.49 11.694c0.037 0.003 0.069-0.024 0.070-0.061 0-0.037-0.029-0.067-0.066-0.067-0.032 0.003-0.060 0.029-0.063 0.063 0 0.034 0.024 0.061 0.058 0.066z"></path>
<path fill="#fff" d="M20.501 11.957c0.003 0.035 0.032 0.064 0.067 0.066 0.037-0.003 0.064-0.035 0.061-0.070-0.003-0.034-0.032-0.060-0.064-0.058-0.034 0.003-0.061 0.029-0.064 0.063z"></path>
<path fill="#fff" d="M20.435 11.61c0 0.037 0.032 0.066 0.069 0.064 0.034-0.005 0.058-0.034 0.058-0.067-0.002-0.034-0.031-0.061-0.066-0.060-0.034 0-0.061 0.027-0.061 0.063z"></path>
<path fill="#fff" d="M19.977 14.975c-0.035 0-0.063 0.026-0.066 0.060-0.003 0.037 0.024 0.067 0.060 0.069 0.037 0.002 0.067-0.026 0.067-0.063-0.002-0.034-0.027-0.061-0.061-0.066z"></path>
<path fill="#fff" d="M14.103 8.524c0.053-0.003 0.078-0.069 0.040-0.107-0.037-0.038-0.102-0.014-0.107 0.040 0 0.037 0.030 0.067 0.067 0.067z"></path>
<path fill="#fff" d="M19.971 10.369c0.081-0.006 0.078-0.127-0.003-0.13-0.085 0.003-0.082 0.131 0.003 0.13z"></path>
<path fill="#fff" d="M12.215 10.086c0.035-0.002 0.063-0.029 0.064-0.063-0.002-0.037-0.032-0.066-0.070-0.064-0.034 0.003-0.060 0.032-0.058 0.067 0.002 0.034 0.031 0.060 0.064 0.060z"></path>
<path fill="#fff" d="M12.663 9.541c0.034 0 0.061-0.026 0.066-0.058 0.002-0.037-0.026-0.069-0.063-0.070-0.084-0.002-0.087 0.124-0.003 0.128z"></path>
<path fill="#fff" d="M12.44 15.558c-0.037 0-0.067 0.030-0.066 0.067 0.002 0.034 0.029 0.061 0.063 0.061 0.034-0.003 0.061-0.029 0.063-0.063 0-0.035-0.026-0.063-0.060-0.066z"></path>
<path fill="#fff" d="M18.79 9.057c0.035 0.002 0.066-0.026 0.067-0.063 0-0.035-0.029-0.066-0.064-0.066-0.081 0.003-0.084 0.122-0.003 0.128z"></path>
<path fill="#fff" d="M13.205 16.294c-0.037-0.003-0.069 0.027-0.069 0.064 0.003 0.034 0.031 0.061 0.064 0.063 0.034-0.002 0.061-0.027 0.063-0.063 0.002-0.034-0.024-0.063-0.058-0.064z"></path>
<path fill="#fff" d="M18.202 8.672c0.034-0.003 0.060-0.032 0.060-0.066-0.005-0.081-0.125-0.079-0.127 0.002 0 0.037 0.030 0.066 0.067 0.064z"></path>
<path fill="#fff" d="M14.783 17.075c-0.035-0.002-0.064 0.023-0.069 0.057-0.002 0.037 0.027 0.069 0.064 0.070 0.034-0.002 0.061-0.029 0.064-0.063 0-0.034-0.026-0.061-0.060-0.064z"></path>
<path fill="#fff" d="M11.375 12.748c0.082 0.002 0.087-0.122 0.005-0.128-0.034 0-0.061 0.024-0.066 0.058-0.002 0.035 0.024 0.067 0.061 0.070z"></path>
<path fill="#fff" d="M17.219 8.278c0.034-0.003 0.060-0.031 0.061-0.064-0.003-0.034-0.031-0.061-0.066-0.063-0.037 0-0.066 0.032-0.063 0.069 0.003 0.034 0.032 0.060 0.067 0.058z"></path>
<path fill="#fff" d="M15.464 8.148c0.034-0.002 0.060-0.032 0.060-0.066-0.002-0.034-0.030-0.061-0.064-0.061-0.035 0.002-0.061 0.029-0.064 0.063 0.002 0.037 0.032 0.066 0.069 0.064z"></path>
<path fill="#fff" d="M15.813 8.122c0.034-0.003 0.060-0.029 0.063-0.063 0.002-0.037-0.029-0.066-0.064-0.066-0.034 0-0.061 0.028-0.063 0.061-0.002 0.037 0.027 0.067 0.064 0.067z"></path>
<path fill="#fff" d="M20.407 11.334c0.079-0.006 0.078-0.125-0.003-0.128-0.037 0.002-0.066 0.032-0.063 0.069 0.003 0.034 0.030 0.060 0.066 0.060z"></path>
<path fill="#fff" d="M20.407 14.007c-0.034 0.002-0.061 0.029-0.063 0.063s0.023 0.063 0.057 0.067c0.037 0.001 0.067-0.026 0.070-0.061 0-0.037-0.029-0.067-0.064-0.069z"></path>
<path fill="#fff" d="M20.278 11.001c0.037 0.002 0.069-0.027 0.067-0.064 0.002-0.084-0.122-0.085-0.125-0.003 0 0.034 0.024 0.063 0.058 0.067z"></path>
<path fill="#fff" d="M19.071 9.283c0.034-0.005 0.058-0.034 0.058-0.067-0.001-0.035-0.029-0.061-0.064-0.061-0.034 0.002-0.061 0.029-0.061 0.063 0 0.037 0.031 0.067 0.067 0.066z"></path>
<path fill="#fff" d="M19.772 10.071c0.035 0 0.063-0.026 0.064-0.061 0.006-0.082-0.118-0.092-0.124-0.009-0.006 0.037 0.023 0.070 0.060 0.070z"></path>
<path fill="#fff" d="M12.428 9.803c0.055 0 0.084-0.067 0.044-0.107s-0.107-0.012-0.107 0.044c0.002 0.034 0.027 0.061 0.063 0.063z"></path>
<path fill="#fff" d="M19.322 9.526c0.034 0.002 0.063-0.026 0.063-0.060 0.002-0.034-0.023-0.063-0.057-0.067-0.037-0.002-0.069 0.027-0.067 0.064-0.002 0.035 0.026 0.063 0.061 0.063z"></path>
<path fill="#fff" d="M19.56 9.79c0.034 0 0.061-0.027 0.061-0.063 0.001-0.034-0.026-0.063-0.060-0.063-0.037-0.003-0.067 0.024-0.069 0.061 0 0.037 0.031 0.066 0.067 0.064z"></path>
<path fill="#fff" d="M20.143 14.666c-0.034-0.002-0.063 0.026-0.064 0.060 0 0.037 0.030 0.066 0.067 0.066 0.034-0.002 0.061-0.031 0.060-0.064 0-0.034-0.027-0.061-0.063-0.061z"></path>
<path fill="#fff" d="M17.556 8.383c0.084-0.003 0.078-0.128-0.005-0.125-0.035 0.002-0.063 0.027-0.064 0.063 0 0.037 0.032 0.066 0.069 0.063z"></path>
<path fill="#fff" d="M14.763 8.285c0.037 0 0.066-0.031 0.066-0.067 0-0.034-0.027-0.060-0.061-0.061-0.037-0.002-0.067 0.027-0.067 0.064 0.005 0.034 0.030 0.060 0.063 0.064z"></path>
<path fill="#fff" d="M20.502 13.667c-0.057 0.002-0.082 0.069-0.043 0.107 0.041 0.040 0.107 0.011 0.107-0.046-0.003-0.034-0.031-0.060-0.064-0.061z"></path>
<path fill="#fff" d="M17.223 17.073c-0.034 0.002-0.060 0.031-0.058 0.064 0 0.035 0.029 0.063 0.063 0.061 0.034 0 0.061-0.027 0.063-0.061 0-0.037-0.031-0.067-0.067-0.064z"></path>
<path fill="#fff" d="M12.666 15.824c-0.035 0.003-0.063 0.034-0.058 0.069 0.003 0.035 0.037 0.061 0.070 0.055 0.035-0.003 0.060-0.034 0.057-0.069-0.005-0.034-0.035-0.060-0.069-0.055z"></path>
<path fill="#fff" d="M15.471 17.208c-0.034 0.002-0.061 0.029-0.063 0.063-0.002 0.058 0.069 0.087 0.108 0.047 0.041-0.041 0.012-0.111-0.046-0.11z"></path>
<path fill="#fff" d="M19.077 16.067c-0.034-0.002-0.064 0.023-0.067 0.058 0 0.037 0.029 0.067 0.067 0.066 0.034 0 0.061-0.027 0.061-0.063 0.002-0.034-0.026-0.063-0.061-0.061z"></path>
<path fill="#fff" d="M15.829 17.232c-0.038 0-0.067 0.032-0.066 0.069 0.006 0.081 0.127 0.078 0.127-0.003-0.001-0.035-0.027-0.063-0.061-0.066z"></path>
<path fill="#fff" d="M18.799 16.291c-0.034 0.002-0.061 0.029-0.061 0.064 0.002 0.034 0.029 0.060 0.064 0.061 0.034 0 0.061-0.026 0.064-0.061 0-0.037-0.031-0.067-0.067-0.064z"></path>
<path fill="#fff" d="M13.497 16.496c-0.038-0.002-0.069 0.027-0.069 0.064-0.002 0.035 0.026 0.064 0.061 0.064 0.034 0 0.063-0.026 0.064-0.061 0.002-0.034-0.023-0.063-0.057-0.067z"></path>
<path fill="#fff" d="M12.922 9.295c0.034-0.003 0.060-0.031 0.060-0.066 0-0.037-0.032-0.066-0.070-0.061-0.034 0.003-0.058 0.034-0.055 0.067s0.030 0.060 0.066 0.060z"></path>
<path fill="#fff" d="M11.386 12.392c0.035 0.005 0.067-0.024 0.067-0.061 0.001-0.034-0.024-0.063-0.058-0.064-0.037-0.001-0.067 0.026-0.069 0.063 0 0.032 0.026 0.060 0.060 0.063z"></path>
<path fill="#fff" d="M18.506 8.852c0.035-0.002 0.061-0.031 0.060-0.064 0-0.035-0.029-0.061-0.063-0.061-0.037-0.002-0.066 0.029-0.064 0.064 0 0.037 0.032 0.064 0.067 0.061z"></path>
<path fill="#fff" d="M20.568 13.318c-0.034 0.001-0.061 0.029-0.063 0.063s0.026 0.063 0.060 0.064c0.037 0.003 0.069-0.027 0.066-0.064-0.001-0.034-0.029-0.061-0.063-0.063z"></path>
<path fill="#fff" d="M17.897 16.833c-0.038-0.003-0.069 0.027-0.067 0.066 0.002 0.034 0.030 0.061 0.064 0.060 0.084 0.002 0.085-0.124 0.003-0.125z"></path>
<path fill="#fff" d="M11.562 13.735c-0.003-0.082-0.124-0.081-0.125 0.002 0 0.037 0.031 0.066 0.067 0.064 0.035-0.003 0.060-0.032 0.058-0.066z"></path>
<path fill="#fff" d="M11.455 13.037c-0.001-0.035-0.029-0.063-0.063-0.063-0.037 0.002-0.066 0.032-0.066 0.069 0.005 0.034 0.034 0.058 0.069 0.057 0.034 0 0.061-0.029 0.060-0.063z"></path>
<path fill="#fff" d="M11.597 14.016c-0.037-0.003-0.067 0.027-0.066 0.064 0 0.035 0.029 0.063 0.063 0.061 0.035 0 0.063-0.026 0.064-0.061 0-0.034-0.026-0.063-0.061-0.064z"></path>
<path fill="#fff" d="M12.218 15.277c-0.034 0.003-0.060 0.032-0.060 0.066 0.002 0.034 0.029 0.061 0.063 0.061 0.035 0.002 0.063-0.027 0.063-0.061 0.002-0.037-0.029-0.067-0.066-0.066z"></path>
<path fill="#fff" d="M11.716 14.349c-0.034-0.003-0.063 0.023-0.064 0.058-0.005 0.056 0.061 0.089 0.104 0.052 0.043-0.038 0.017-0.107-0.040-0.11z"></path>
<path fill="#fff" d="M20.142 10.677c0.034-0.003 0.060-0.032 0.061-0.066-0.003-0.034-0.032-0.060-0.066-0.060-0.035-0.002-0.063 0.026-0.063 0.061-0.002 0.037 0.031 0.067 0.067 0.064z"></path>
<path fill="#fff" d="M11.588 11.352c0.037 0.002 0.067-0.029 0.064-0.067-0.002-0.034-0.031-0.060-0.064-0.058-0.034 0-0.061 0.027-0.061 0.063 0 0.034 0.027 0.061 0.061 0.063z"></path>
<path fill="#fff" d="M12.026 14.982c-0.034 0-0.061 0.027-0.060 0.063 0 0.035 0.029 0.063 0.064 0.061s0.063-0.031 0.060-0.066c-0.002-0.035-0.031-0.061-0.064-0.058z"></path>
<path fill="#fff" d="M14.442 16.968c-0.037 0-0.067 0.030-0.064 0.067 0.003 0.035 0.032 0.061 0.066 0.058 0.034-0.002 0.061-0.029 0.060-0.063 0-0.035-0.027-0.061-0.061-0.063z"></path>
<path fill="#fff" d="M16.524 8.145c0.034-0.003 0.060-0.031 0.058-0.066-0.002-0.034-0.029-0.060-0.064-0.060-0.034 0-0.061 0.027-0.061 0.061 0 0.038 0.031 0.067 0.067 0.064z"></path>
<path fill="#fff" d="M16.536 17.208c-0.035-0.002-0.063 0.024-0.066 0.058-0.003 0.056 0.063 0.089 0.105 0.052 0.041-0.038 0.017-0.108-0.040-0.11z"></path>
</svg>
