<?xml version="1.0" encoding="UTF-8" standalone="no"?>
<!DOCTYPE svg PUBLIC "-//W3C//DTD SVG 1.1//EN" "http://www.w3.org/Graphics/SVG/1.1/DTD/svg11.dtd">
<svg width="100%" height="100%" viewBox="0 0 32 32" version="1.1" xmlns="http://www.w3.org/2000/svg" xmlns:xlink="http://www.w3.org/1999/xlink" xml:space="preserve" xmlns:serif="http://www.serif.com/" style="fill-rule:evenodd;clip-rule:evenodd;stroke-linejoin:round;stroke-miterlimit:2;">
    <g id="Монтажная-область1" serif:id="Монтажная область1" transform="matrix(0.0972222,0,0,0.180645,-3.77083,-22.1935)">
        <rect x="38.786" y="122.857" width="329.143" height="177.143" style="fill:none;"/>
        <g transform="matrix(9.91337,0,0,5.33534,43.9599,126.658)">
            <g transform="matrix(1,0,0,1,-2.88589e-13,-0.145903)">
                <path d="M30.941,17.998L30.941,18.852L1.218,18.852L1.218,17.998L30.941,17.998ZM18.019,3.936L16.973,3.007C16.74,2.8 16.584,2.696 16.426,2.696C16.268,2.696 16.11,2.8 15.875,3.008L14.522,4.211C13.473,5.143 12.424,6.075 11.37,7.001C11.268,7.093 11.122,7.157 11.018,7.158C8.7,7.167 6.382,7.168 4.065,7.166L2.576,7.166C2.567,7.166 2.557,7.165 2.547,7.165L4.49,1.105L28.27,1.105L30.213,7.166L28.424,7.166C26.26,7.166 24.096,7.167 21.932,7.156C21.774,7.155 21.573,7.079 21.454,6.975C20.303,5.968 19.161,4.952 18.019,3.936ZM11.987,7.892C13.089,6.901 14.198,5.917 15.305,4.933L16.329,4.024C16.359,3.998 16.389,3.974 16.424,3.944L16.531,4.037C16.67,4.157 16.808,4.277 16.945,4.399L17.812,5.169C18.847,6.087 19.883,7.005 20.913,7.93C21.141,8.134 21.378,8.226 21.682,8.226L21.687,8.226C23.546,8.219 25.408,8.221 27.267,8.221L29.251,8.221L29.251,16.906L3.508,16.906L3.508,8.221L5.522,8.221C7.393,8.219 9.258,8.219 11.124,8.228L11.132,8.228C11.465,8.228 11.729,8.124 11.987,7.892ZM27.835,21.628L22.557,21.628C22.048,21.628 21.877,21.8 21.876,22.31L21.876,29.013L21.136,29.013L21.136,19.947L30.131,19.947L30.131,29.012L28.648,29.012L28.648,22.427C28.648,21.786 28.488,21.628 27.835,21.628ZM27.575,22.699L27.575,29L22.954,29L22.954,22.699L27.575,22.699ZM11.923,29.021L11.923,19.95L20.037,19.95L20.037,29.009L19.432,29.009L19.431,22.469C19.431,21.909 19.284,21.763 18.715,21.763C16.923,21.761 15.13,21.761 13.337,21.763C12.811,21.763 12.659,21.914 12.659,22.435L12.659,29.021L11.923,29.021ZM18.361,22.835L18.361,29.002L13.736,29.002L13.736,22.835L18.361,22.835ZM9.531,21.763C7.738,21.761 5.946,21.761 4.153,21.763C3.589,21.763 3.443,21.91 3.443,22.475L3.443,29.012L2.033,29.012L2.033,19.948L10.824,19.948L10.824,29.011L10.216,29.011L10.216,22.462C10.216,21.907 10.076,21.763 9.531,21.763ZM9.134,22.836L9.134,29.003L4.513,29.003L4.513,22.836L9.134,22.836ZM30.937,30.098L30.937,30.953L1.227,30.953L1.227,30.098L30.937,30.098ZM32.008,29.574C32.004,29.246 31.801,29.043 31.465,29.03C31.386,29.027 31.309,29.027 31.226,29.028L31.226,19.928C31.238,19.927 31.25,19.926 31.261,19.926C31.857,19.913 32.011,19.757 32.011,19.172L32.012,18.799C32.013,18.384 32.015,17.971 32.01,17.557C32.005,17.128 31.803,16.927 31.376,16.921C31.105,16.917 30.835,16.917 30.559,16.919L30.349,16.919L30.349,8.221L30.675,8.221C30.96,8.221 31.241,8.195 31.372,8.015C31.503,7.834 31.441,7.559 31.355,7.289L29.241,0.669C29.059,0.101 28.968,0.035 28.361,0.035L4.416,0.035L4.336,0.036C4.284,0.036 4.232,0.036 4.184,0.035C3.891,0.03 3.679,0.174 3.587,0.463L2.986,2.343C2.437,4.062 1.889,5.78 1.342,7.5C1.263,7.75 1.323,7.91 1.386,8.001C1.452,8.094 1.587,8.208 1.863,8.219C2.02,8.225 2.175,8.223 2.332,8.222L2.412,8.222L2.412,16.92L1.972,16.919C1.565,16.917 1.166,16.916 0.769,16.921C0.36,16.926 0.153,17.133 0.149,17.538C0.143,18.132 0.143,18.727 0.149,19.324C0.154,19.709 0.347,19.906 0.741,19.925C0.804,19.927 0.866,19.926 0.936,19.926L0.936,29.025C0.917,29.026 0.899,29.027 0.883,29.028C0.285,29.044 0.147,29.187 0.147,29.79L0.146,31.236C0.147,31.892 0.291,32.033 0.953,32.033L31.219,32.033L31.288,32.034L31.361,32.034C31.394,32.034 31.427,32.034 31.46,32.032C31.797,32.015 32.002,31.815 32.007,31.494C32.015,30.9 32.016,30.272 32.008,29.574Z" style="fill:rgb(33,160,56);fill-rule:nonzero;"/>
            </g>
            <path d="M22.141,15.29L22.141,12.956L25.148,12.956L25.148,15.29L22.141,15.29ZM22.271,11.866C22.423,11.362 22.969,10.936 23.537,10.907C24.211,10.863 24.797,11.251 25.023,11.866L22.271,11.866ZM21.731,16.359C22.167,16.362 22.606,16.362 23.041,16.361L23.615,16.36L24.213,16.361C24.414,16.361 24.614,16.362 24.813,16.362C25.064,16.362 25.314,16.361 25.565,16.359C26.007,16.356 26.223,16.142 26.225,15.705L26.228,14.967C26.232,14.106 26.236,13.217 26.22,12.341C26.197,10.964 25.042,9.849 23.641,9.849L23.627,9.849C22.24,9.856 21.093,10.976 21.073,12.345C21.058,13.269 21.062,14.207 21.067,15.116L21.069,15.708C21.07,16.143 21.287,16.356 21.731,16.359Z" style="fill:rgb(33,160,56);fill-rule:nonzero;"/>
            <path d="M10.693,12.954L10.693,15.287L7.754,15.287L7.754,12.954L10.693,12.954ZM7.838,11.854C7.999,11.342 8.544,10.93 9.125,10.907C9.795,10.878 10.359,11.255 10.583,11.854L7.838,11.854ZM9.214,9.849L9.208,9.849C7.834,9.852 6.7,10.961 6.677,12.321C6.663,13.239 6.666,14.172 6.67,15.074L6.673,15.716C6.674,16.171 6.863,16.357 7.326,16.36C7.757,16.362 8.186,16.361 8.62,16.361L9.208,16.36L9.766,16.361L10.324,16.361C10.589,16.361 10.856,16.361 11.122,16.359C11.556,16.356 11.76,16.156 11.762,15.729L11.765,15.015C11.77,14.126 11.774,13.205 11.756,12.301C11.728,10.947 10.588,9.849 9.214,9.849Z" style="fill:rgb(33,160,56);fill-rule:nonzero;"/>
            <path d="M14.949,15.278L14.949,12.944L17.888,12.944L17.888,15.278L14.949,15.278ZM15.05,11.863C15.216,11.336 15.764,10.93 16.362,10.913L16.407,10.913C17.039,10.913 17.597,11.299 17.797,11.863L15.05,11.863ZM14.522,16.359C14.772,16.361 15.022,16.362 15.272,16.362C15.466,16.362 15.661,16.361 15.856,16.361L16.439,16.36L16.993,16.361C17.427,16.361 17.857,16.362 18.288,16.36C18.77,16.359 18.959,16.173 18.96,15.699L18.961,15.187C18.965,14.264 18.969,13.309 18.958,12.37C18.94,11.006 17.815,9.853 16.5,9.851L16.496,9.851C15.017,9.851 13.89,10.936 13.873,12.375C13.862,13.341 13.866,14.323 13.869,15.272L13.871,15.706C13.872,16.155 14.073,16.357 14.522,16.359Z" style="fill:rgb(33,160,56);fill-rule:nonzero;"/>
            <path d="M16.436,7.482C16.293,7.479 16.146,7.43 16.034,7.322C15.922,7.214 15.856,7.064 15.854,6.912C15.85,6.579 16.085,6.334 16.415,6.328L16.426,6.328C16.745,6.328 16.999,6.573 17.006,6.89C17.013,7.198 16.746,7.475 16.436,7.482ZM16.417,8.539L16.419,8.539C16.854,8.538 17.266,8.366 17.578,8.054C17.89,7.742 18.061,7.331 18.06,6.897C18.059,6.009 17.336,5.28 16.449,5.272L16.434,5.272C15.525,5.272 14.808,5.978 14.797,6.884C14.793,7.326 14.962,7.742 15.275,8.058C15.583,8.368 15.987,8.539 16.417,8.539Z" style="fill:rgb(33,160,56);fill-rule:nonzero;"/>
        </g>
    </g>
</svg>
