<svg width="25" height="25" viewBox="0 0 25 25" fill="none" xmlns="http://www.w3.org/2000/svg">
<circle cx="12.5" cy="12.5" r="12.5" fill="white"/>
<path d="M13.8047 15.2635H6.83097V13.0455H13.728C14.2479 13.0455 14.674 12.9687 15.0064 12.8153C15.3388 12.6619 15.5838 12.4446 15.7415 12.1634C15.8991 11.8821 15.978 11.5497 15.978 11.1662C15.978 10.7912 15.8991 10.4524 15.7415 10.1499C15.5838 9.8473 15.343 9.60653 15.0192 9.42756C14.6953 9.24858 14.2905 9.15909 13.8047 9.15909H11.4396V20H8.69105V6.90909H13.8047C14.8402 6.90909 15.7266 7.09446 16.4638 7.4652C17.2053 7.83168 17.772 8.33452 18.1641 8.97372C18.5561 9.60866 18.75 10.3288 18.7457 11.1342C18.75 11.978 18.5518 12.7088 18.1513 13.3267C17.7507 13.9446 17.1797 14.4219 16.4382 14.7585C15.6967 15.0952 14.8189 15.2635 13.8047 15.2635ZM14.2969 16.1072V18.3253H6.83097V16.1072H14.2969Z" fill="#21A038"/>
</svg>
