<?xml version="1.0" encoding="UTF-8" standalone="no"?>
<!DOCTYPE svg PUBLIC "-//W3C//DTD SVG 1.1//EN" "http://www.w3.org/Graphics/SVG/1.1/DTD/svg11.dtd">
<svg width="100%" height="100%" viewBox="0 0 32 32" version="1.1" xmlns="http://www.w3.org/2000/svg" xmlns:xlink="http://www.w3.org/1999/xlink" xml:space="preserve" xmlns:serif="http://www.serif.com/" style="fill-rule:evenodd;clip-rule:evenodd;stroke-linejoin:round;stroke-miterlimit:2;">
    <g id="Монтажная-область1" serif:id="Монтажная область1" transform="matrix(0.061742,0,0,0.125843,-10.1566,-17.7618)">
        <rect x="164.5" y="141.143" width="518.286" height="254.286" style="fill:none;"/>
        <g transform="matrix(16.0036,0,0,7.8518,166.786,141.851)">
            <path d="M25.572,11.63C25.976,12.034 26.39,12.449 26.793,12.851C27.003,12.27 27.237,11.628 27.493,10.924C26.771,11.189 26.124,11.427 25.572,11.63ZM11.983,24.644C11.472,25.053 11.092,25.519 11.261,26.217C11.383,26.723 11.718,27.054 12.232,27.164C12.932,27.314 13.384,26.926 13.775,26.444C13.175,25.84 12.589,25.252 11.983,24.644ZM0.047,14.227C0.194,14.056 0.332,13.874 0.491,13.714C4.894,9.308 9.298,4.904 13.703,0.499C14.229,-0.026 14.489,-0.028 15.006,0.489C17.246,2.728 19.485,4.967 21.723,7.207C21.818,7.303 21.914,7.401 21.989,7.512C22.166,7.771 22.134,8.066 21.923,8.282C21.713,8.497 21.414,8.534 21.156,8.363C21.043,8.289 20.945,8.194 20.849,8.099C18.786,6.038 16.723,3.976 14.661,1.913C14.573,1.825 14.495,1.728 14.446,1.673C10.388,5.731 6.352,9.767 2.33,13.789C2.977,13.789 3.69,13.797 4.403,13.779C4.503,13.777 4.612,13.66 4.697,13.576C7.667,10.61 10.635,7.641 13.604,4.673C13.663,4.614 13.721,4.555 13.78,4.496C14.214,4.069 14.51,4.071 14.95,4.507C15.113,4.668 15.274,4.831 15.437,4.993C17.742,7.299 20.047,9.604 22.352,11.91C22.439,11.998 22.513,12.1 22.624,12.232C22.996,11.851 23.316,11.497 23.667,11.175C23.845,11.01 24.06,10.862 24.286,10.777C25.589,10.284 26.899,9.811 28.209,9.334C28.665,9.168 29.016,9.294 29.125,9.681C29.166,9.829 29.153,10.016 29.1,10.163C28.61,11.533 28.11,12.9 27.599,14.263C27.54,14.423 27.426,14.575 27.305,14.697C25.793,16.219 24.274,17.735 22.754,19.249C22.653,19.351 22.536,19.456 22.406,19.505C22.152,19.605 21.91,19.547 21.728,19.333C21.549,19.123 21.517,18.881 21.658,18.641C21.73,18.517 21.834,18.41 21.936,18.307C23.319,16.921 24.704,15.537 26.067,14.175C25.465,13.573 24.873,12.98 24.312,12.42C20.552,16.18 16.757,19.975 12.984,23.748C13.531,24.296 14.124,24.891 14.731,25.499C14.781,25.453 14.864,25.377 14.942,25.299C16.136,24.106 17.328,22.913 18.522,21.72C18.61,21.632 18.703,21.544 18.806,21.479C19.055,21.321 19.381,21.366 19.576,21.572C19.775,21.782 19.799,22.097 19.628,22.347C19.571,22.432 19.498,22.508 19.424,22.582C17.753,24.254 16.083,25.927 14.408,27.596C13.483,28.518 12.338,28.698 11.245,28.105C9.947,27.402 9.567,25.559 10.482,24.402C10.559,24.303 10.625,24.185 10.724,24.117C11.211,23.78 11.253,23.309 11.246,22.761C11.218,20.616 11.234,18.469 11.235,16.324C11.235,15.686 11.442,15.478 12.076,15.478C13.597,15.477 15.118,15.476 16.639,15.479C16.772,15.479 16.912,15.483 17.04,15.52C17.322,15.603 17.474,15.814 17.475,16.101C17.475,16.386 17.325,16.599 17.043,16.683C16.916,16.721 16.776,16.725 16.643,16.726C15.382,16.728 14.122,16.727 12.861,16.727L12.504,16.727L12.504,22.205C15.548,19.163 18.615,16.098 21.662,13.052C19.254,10.644 16.804,8.193 14.269,5.657C14.216,5.745 14.169,5.87 14.084,5.957C11.192,8.854 8.294,11.746 5.407,14.647C5.128,14.926 4.836,15.061 4.44,15.046C3.827,15.022 3.211,15.04 2.572,15.04L2.572,30.853L11.456,30.853C11.529,30.853 11.602,30.852 11.675,30.853C12.136,30.856 12.386,31.016 12.462,31.359C12.532,31.667 12.383,31.9 11.985,32.102L1.734,32.102C1.386,31.909 1.291,31.607 1.291,31.219C1.299,25.957 1.297,20.694 1.297,15.431L1.297,15.045C0.812,15.033 0.308,15.136 0.047,14.602L0.047,14.227Z" style="fill:rgb(34,161,73);fill-rule:nonzero;"/>
            <path d="M18.517,27.647C18.684,27.796 18.88,27.952 19.052,28.13C19.357,28.446 19.365,28.812 19.09,29.071C18.835,29.313 18.471,29.292 18.17,29.005C17.992,28.835 17.829,28.649 17.729,28.544C16.922,29.336 16.143,30.101 15.403,30.828L30.782,30.828L30.782,15.421C30.019,16.185 29.246,16.958 28.462,17.743C28.592,17.87 28.751,18.02 28.904,18.176C29.236,18.516 29.271,18.899 28.997,19.165C28.719,19.432 28.37,19.404 28.034,19.067C27.873,18.906 27.735,18.723 27.615,18.583C27.043,19.154 26.523,19.67 25.953,20.237C26.11,20.374 26.3,20.521 26.466,20.691C26.77,21.002 26.788,21.375 26.53,21.633C26.274,21.89 25.897,21.871 25.587,21.57C25.412,21.4 25.254,21.209 25.103,21.043C24.533,21.612 24.017,22.124 23.454,22.686C23.631,22.843 23.83,22.997 24.001,23.175C24.303,23.49 24.312,23.861 24.043,24.118C23.784,24.366 23.429,24.351 23.124,24.059C22.944,23.887 22.787,23.691 22.646,23.534C22.086,24.096 21.568,24.618 21.003,25.185C21.15,25.314 21.33,25.456 21.49,25.617C21.812,25.94 21.842,26.318 21.582,26.582C21.318,26.848 20.938,26.827 20.618,26.501C20.452,26.333 20.32,26.132 20.188,25.965C19.59,26.567 19.078,27.082 18.517,27.647ZM13.547,32.102C12.985,31.71 12.96,31.369 13.461,30.868C19.248,25.081 25.035,19.294 30.82,13.507C31.049,13.278 31.284,13.072 31.639,13.213C32.004,13.357 32.05,13.663 32.05,14.007C32.047,19.744 32.045,25.481 32.053,31.218C32.054,31.606 31.96,31.909 31.611,32.102L13.547,32.102Z" style="fill:rgb(34,161,73);fill-rule:nonzero;"/>
            <path d="M8.775,22.713L8.775,19.001L5.063,19.001L5.063,22.713L8.775,22.713ZM10.047,20.884C10.047,21.655 10.049,22.425 10.046,23.196C10.044,23.75 9.82,23.976 9.266,23.977C7.703,23.979 6.141,23.979 4.579,23.977C4.024,23.976 3.799,23.75 3.798,23.196C3.795,21.633 3.795,20.071 3.798,18.509C3.799,17.955 4.024,17.729 4.579,17.728C6.141,17.726 7.703,17.726 9.266,17.728C9.82,17.729 10.044,17.955 10.046,18.509C10.049,19.3 10.047,20.092 10.047,20.884Z" style="fill:rgb(34,161,73);fill-rule:nonzero;"/>
            <path d="M14.361,13.037C14.97,13.037 15.475,12.538 15.482,11.929C15.491,11.31 14.979,10.791 14.358,10.792C13.751,10.793 13.245,11.293 13.237,11.9C13.23,12.521 13.74,13.038 14.361,13.037ZM16.732,11.905C16.741,13.191 15.671,14.272 14.377,14.287C13.082,14.302 11.982,13.207 11.987,11.909C11.993,10.618 13.069,9.543 14.358,9.542C15.646,9.541 16.724,10.613 16.732,11.905Z" style="fill:rgb(34,161,73);fill-rule:nonzero;"/>
            <path d="M20.658,19.856C20.989,19.862 21.271,20.155 21.265,20.486C21.259,20.818 20.967,21.103 20.639,21.097C20.305,21.09 20.033,20.806 20.038,20.467C20.042,20.129 20.326,19.85 20.658,19.856Z" style="fill:rgb(34,161,73);fill-rule:nonzero;"/>
            <path d="M23.668,9.438C23.652,9.765 23.343,10.05 23.024,10.034C22.698,10.019 22.413,9.71 22.428,9.391C22.444,9.064 22.752,8.779 23.072,8.795C23.398,8.811 23.683,9.119 23.668,9.438Z" style="fill:rgb(34,161,73);fill-rule:nonzero;"/>
            <path d="M22.851,27.707L27.647,27.707L27.647,22.908C26.044,24.511 24.458,26.099 22.851,27.707ZM28.923,24.827C28.923,25.94 28.924,27.054 28.922,28.167C28.921,28.759 28.704,28.977 28.109,28.977C25.892,28.978 23.676,28.976 21.46,28.98C21.134,28.981 20.849,28.921 20.712,28.592C20.577,28.266 20.726,28.017 20.958,27.787C23.218,25.531 25.478,23.271 27.735,21.01C27.965,20.779 28.214,20.631 28.541,20.769C28.869,20.907 28.927,21.193 28.925,21.517C28.918,22.621 28.923,23.724 28.923,24.827Z" style="fill:rgb(34,161,73);fill-rule:nonzero;"/>
        </g>
    </g>
</svg>
