<svg width="16" height="16" viewBox="0 0 16 16" fill="none" xmlns="http://www.w3.org/2000/svg">
<path d="M13.9999 3.33326L1.99994 3.33326C1.87845 3.33364 1.75936 3.36715 1.65549 3.43018C1.55163 3.49321 1.46692 3.58337 1.41048 3.69096C1.35404 3.79856 1.32802 3.9195 1.33521 4.04078C1.3424 4.16207 1.38253 4.27909 1.45128 4.37926L7.45128 13.0459C7.69994 13.4053 8.29861 13.4053 8.54794 13.0459L14.5479 4.37926C14.6174 4.2793 14.6581 4.16222 14.6657 4.04073C14.6733 3.91925 14.6474 3.79801 14.5909 3.69019C14.5344 3.58237 14.4495 3.49209 14.3453 3.42917C14.2411 3.36624 14.1217 3.33307 13.9999 3.33326Z" fill="white"/>
</svg>
