<svg width="360" height="386" viewBox="0 0 360 386" fill="none" xmlns="http://www.w3.org/2000/svg">
<g clip-path="url(#clip0_1_182)">
<g opacity="0.3">
<path d="M313.617 176.642H370.396V218.946H313.617V176.642ZM250.96 29.2037H307.74V70.9147H251.248V76.3645H307.74V121.054H251.248V126.502H307.74V171.193H251.248V176.642H307.74V218.946H250.96V29.2037ZM313.617 76.3645H370.396V121.054H313.617V76.3645ZM313.617 126.502H370.396V171.192H313.617V126.502ZM370.396 70.9147H313.617V29.2037H370.396V70.9147ZM246.27 226.395H375.085V21.7539H246.27V226.395Z" stroke="black" stroke-width="0.853263" stroke-miterlimit="10" stroke-linecap="round" stroke-linejoin="round"/>
<path d="M299.602 41.6757L270.956 65.3828" stroke="black" stroke-width="0.853263" stroke-miterlimit="10" stroke-linecap="round" stroke-linejoin="round"/>
<path d="M356.401 88.1021L327.755 111.809" stroke="black" stroke-width="0.853263" stroke-miterlimit="10" stroke-linecap="round" stroke-linejoin="round"/>
<path d="M291.699 188.365L263.053 212.072" stroke="black" stroke-width="0.853263" stroke-miterlimit="10" stroke-linecap="round" stroke-linejoin="round"/>
<path d="M284.579 48.5902L271.449 59.4559" stroke="black" stroke-width="0.853263" stroke-miterlimit="10" stroke-linecap="round" stroke-linejoin="round"/>
<path d="M354.219 82.67L341.089 93.5356" stroke="black" stroke-width="0.853263" stroke-miterlimit="10" stroke-linecap="round" stroke-linejoin="round"/>
<path d="M290.012 195.773L276.882 206.639" stroke="black" stroke-width="0.853263" stroke-miterlimit="10" stroke-linecap="round" stroke-linejoin="round"/>
<path d="M286.06 143.42L272.931 154.286" stroke="black" stroke-width="0.853263" stroke-miterlimit="10" stroke-linecap="round" stroke-linejoin="round"/>
<path d="M353.232 189.352L340.101 200.218" stroke="black" stroke-width="0.853263" stroke-miterlimit="10" stroke-linecap="round" stroke-linejoin="round"/>
<path d="M238.852 226.26H383.072V244.176H238.852V226.26Z" stroke="black" stroke-width="0.853263" stroke-miterlimit="10" stroke-linecap="round" stroke-linejoin="round"/>
</g>
<path d="M311.312 160.036C306.435 172.229 290.141 177.588 274.918 172.006C259.694 166.422 251.306 152.01 256.182 139.816C261.058 127.621 277.352 122.263 292.575 127.846C307.799 133.429 316.188 147.841 311.312 160.036Z" fill="#21A038"/>
<path d="M256.181 139.816C261.057 127.622 277.352 122.263 292.575 127.846C307.799 133.43 316.188 147.841 311.312 160.036C306.436 172.23 290.142 177.589 274.918 172.006C259.694 166.422 251.306 152.01 256.181 139.816Z" stroke="#111311" stroke-width="0.830991" stroke-miterlimit="10" stroke-linecap="round" stroke-linejoin="round"/>
<path d="M265.476 158.221C265.476 158.221 259.358 159.248 257.157 155.614C254.956 151.979 260.342 142.672 265.383 138.7C270.422 134.728 283.129 134.14 289.446 135.539C295.763 136.938 302.674 142.785 302.996 148.192C303.318 153.6 300.452 158.517 300.083 160.174C299.713 161.83 295.97 161.42 295.554 160.527C295.137 159.632 288.848 146.501 287.323 145.769C285.798 145.036 284.57 146.032 282.695 146.817C280.82 147.601 266.761 151.999 266.761 151.999L265.476 158.221Z" fill="#111311" stroke="#111311" stroke-width="0.830991" stroke-miterlimit="10" stroke-linecap="round" stroke-linejoin="round"/>
<path d="M268.146 295.648L268.012 277.923L259.266 298.463L259.266 298.465C257.508 300.856 255.388 303.961 254.273 306.433C252.16 311.122 257.351 327.245 258.056 325.683C258.759 324.12 264.363 303.669 264.363 303.669C264.363 303.669 265.363 300.162 265.524 297.34L268.146 295.648Z" fill="#9D9D9D" stroke="#111311" stroke-width="0.830991" stroke-miterlimit="10" stroke-linecap="round" stroke-linejoin="round"/>
<path d="M264.764 307.612C264.764 307.612 259.053 308.942 257.351 320.936C256.886 324.207 256.497 359.05 255.681 364.797L252.298 388.634L282.342 391.908L289.263 369.679L288.901 392.135L319.034 395.419C319.034 395.419 327.004 360.834 327.851 356.525C328.698 352.216 332.118 343.053 333.267 329.975C334.418 316.896 332.354 311.537 332.354 311.537L266.088 303.092L264.764 307.612Z" fill="#111311" stroke="#111311" stroke-width="0.830991" stroke-miterlimit="10" stroke-linecap="round" stroke-linejoin="round"/>
<path d="M285.545 189.181C285.545 189.181 269.741 200.112 266.214 203.195C262.557 206.392 261.114 226.061 263.248 239.956C265.382 253.852 266.724 275.121 266.332 279.348C265.941 283.574 263.04 308.785 263.04 308.785C263.04 308.785 286.647 321.831 302.333 320.989C318.022 320.145 329.865 314.611 329.865 314.611C329.865 314.611 333.531 271.252 334.867 261.791C336.203 252.332 338.609 220.788 338.136 209.636C337.663 198.484 331.522 191.194 326.367 189.988C321.21 188.783 301.721 185.718 301.721 185.718L285.545 189.181Z" fill="#9D9D9D" stroke="#111311" stroke-width="0.830991" stroke-miterlimit="10" stroke-linecap="round" stroke-linejoin="round"/>
<path d="M277.174 185.857C277.174 185.857 280.896 205.085 281.926 205.384C282.957 205.684 286.19 203.056 286.19 203.056L300.025 186.124L297.911 168.87C297.911 168.87 294.096 177.461 288.361 182.61C282.628 187.758 277.174 185.857 277.174 185.857Z" fill="#9D9D9D" stroke="#111311" stroke-width="0.830991" stroke-miterlimit="10" stroke-linecap="round" stroke-linejoin="round"/>
<path d="M289.899 183.41L279.6 195.981L277.026 185.706L289.899 183.41Z" fill="#111311" stroke="#111311" stroke-width="0.830991" stroke-miterlimit="10" stroke-linecap="round" stroke-linejoin="round"/>
<path d="M287.986 140.491C287.986 140.491 279.869 145.736 273.751 147.297C267.63 148.859 264.609 149.365 264.609 149.365C264.609 149.365 264.725 161.778 264.767 165.265C264.809 168.753 265.179 174.645 267.205 177.373C269.231 180.102 274.203 186.635 276.629 188.433C279.055 190.23 283.718 189.485 285.136 188.943C286.553 188.401 295.922 177.162 296.551 175.559C297.181 173.956 297.354 168.959 297.354 168.959C297.354 168.959 301.058 167.412 301.858 165.549C302.659 163.687 302.483 156.422 301.563 155.347C300.643 154.271 298.771 155.181 298.351 156.25C297.931 157.319 296.907 158.879 296.907 158.879C296.907 158.879 297.183 155.984 296.38 154.085C295.577 152.186 295.674 151.5 293.457 149.168C291.241 146.837 287.986 140.491 287.986 140.491Z" fill="#9D9D9D" stroke="#111311" stroke-width="0.830991" stroke-miterlimit="10" stroke-linecap="round" stroke-linejoin="round"/>
<path d="M275.273 166.398L275.143 170.203C275.143 170.203 279.574 170.547 281.894 168.538" stroke="#111311" stroke-width="0.830991" stroke-miterlimit="10" stroke-linecap="round" stroke-linejoin="round"/>
<path d="M272.251 173.784C272.251 173.784 275.312 175.261 280.488 174.265C285.664 173.27 287.383 169.757 287.383 169.757" stroke="#111311" stroke-width="0.830991" stroke-miterlimit="10" stroke-linecap="round" stroke-linejoin="round"/>
<path d="M273.348 156.975C273.348 156.975 267.773 154.344 265.572 157.65" stroke="#111311" stroke-width="0.830991" stroke-miterlimit="10" stroke-linecap="round" stroke-linejoin="round"/>
<path d="M279.575 155.545C279.575 155.545 283.958 152.053 287.846 154.14" stroke="#111311" stroke-width="0.830991" stroke-miterlimit="10" stroke-linecap="round" stroke-linejoin="round"/>
<path d="M272.086 162.1C272.347 163.204 272.118 164.2 271.575 164.321C271.034 164.442 270.381 163.644 270.12 162.539C269.861 161.433 270.088 160.439 270.631 160.317C271.174 160.197 271.825 160.994 272.086 162.1Z" fill="#111311"/>
<path d="M285.147 159.801C285.408 160.906 285.179 161.9 284.636 162.022C284.094 162.142 283.443 161.345 283.181 160.24C282.921 159.134 283.149 158.139 283.692 158.019C284.235 157.898 284.885 158.695 285.147 159.801Z" fill="#111311"/>
<path d="M311.257 212.263L316.641 256.134C316.641 256.134 315.762 258.156 315.984 259.454C316.206 260.752 316.26 261.817 316.26 261.817C316.26 261.817 310.807 278.171 306.639 288.094C302.471 298.018 289.537 319.255 289.587 321.806C289.638 324.357 284.686 342.887 285.755 343.855C286.824 344.824 289.412 346.388 290.201 346.477C290.989 346.566 294.483 347.383 295.666 347.516C296.849 347.649 301.217 347.929 302.236 346.346C303.254 344.765 303.201 343.698 301.96 343.983C300.719 344.267 298.718 344.254 298.718 344.254L298.159 342.494C298.159 342.494 300.15 335.296 299.911 329.754C299.671 324.213 299.535 322.289 299.535 322.289C299.535 322.289 330.018 282.666 332.095 274.84C334.171 267.015 336.956 258.42 337.501 254.452C338.047 250.484 339.012 214.325 338.374 210.224C337.737 206.123 337.691 202.088 334.995 198.391C332.298 194.695 330.128 194.45 328.55 194.273" fill="#9D9D9D"/>
<path d="M311.257 212.263L316.641 256.134C316.641 256.134 315.762 258.156 315.984 259.454C316.206 260.752 316.26 261.817 316.26 261.817C316.26 261.817 310.807 278.171 306.639 288.094C302.471 298.018 289.537 319.255 289.587 321.806C289.638 324.357 284.686 342.887 285.755 343.855C286.824 344.824 289.412 346.388 290.201 346.477C290.989 346.566 294.483 347.383 295.666 347.516C296.849 347.649 301.217 347.929 302.236 346.346C303.254 344.765 303.201 343.698 301.96 343.983C300.719 344.267 298.718 344.254 298.718 344.254L298.159 342.494C298.159 342.494 300.15 335.296 299.911 329.754C299.671 324.213 299.535 322.289 299.535 322.289C299.535 322.289 330.018 282.666 332.095 274.84C334.171 267.015 336.956 258.42 337.501 254.452C338.047 250.484 339.012 214.325 338.374 210.224C337.737 206.123 337.691 202.088 334.995 198.391C332.298 194.695 330.128 194.45 328.55 194.273" stroke="#111311" stroke-width="0.830991" stroke-miterlimit="10" stroke-linecap="round" stroke-linejoin="round"/>
<path d="M317.924 261.013C317.924 261.013 324.374 258.99 329.257 262.081" stroke="#111311" stroke-width="0.830991" stroke-miterlimit="10" stroke-linecap="round" stroke-linejoin="round"/>
<path d="M322.436 256.937C322.436 256.937 329.732 255.886 333.382 261.825" stroke="#111311" stroke-width="0.830991" stroke-miterlimit="10" stroke-linecap="round" stroke-linejoin="round"/>
<path d="M310.015 280.343C309.015 282.949 308.004 285.487 307.058 287.706C302.811 297.67 289.641 319.001 289.689 321.56C289.737 324.121 284.684 342.726 285.768 343.698C286.853 344.669 289.482 346.236 290.284 346.324C291.086 346.413 294.635 347.229 295.838 347.362C297.04 347.495 301.478 347.771 302.515 346.183C303.552 344.593 303.499 343.522 302.237 343.81C300.977 344.096 298.942 344.085 298.942 344.085L298.376 342.32C298.376 342.32 300.408 335.091 300.171 329.529C299.935 323.968 299.799 322.036 299.799 322.036C299.799 322.036 314.705 302.912 324.559 288.559C320.33 282.574 314.186 280.803 310.015 280.343Z" fill="#9D9D9D" stroke="#111311" stroke-width="0.830991" stroke-miterlimit="10" stroke-linecap="round" stroke-linejoin="round"/>
<path d="M294.423 342.839C294.423 342.839 296.201 344.846 296.823 345.491C297.445 346.136 297.6 346.73 298.904 347.037" fill="#9D9D9D"/>
<path d="M294.423 342.839C294.423 342.839 296.201 344.846 296.823 345.491C297.445 346.136 297.6 346.73 298.904 347.037" stroke="#111311" stroke-width="0.830991" stroke-miterlimit="10" stroke-linecap="round" stroke-linejoin="round"/>
<path d="M290.184 343.368C290.184 343.368 292.969 346.065 294.827 346.754L290.184 343.368Z" fill="#9D9D9D"/>
<path d="M290.184 343.368C290.184 343.368 292.969 346.065 294.827 346.754" stroke="#111311" stroke-width="0.830991" stroke-miterlimit="10" stroke-linecap="round" stroke-linejoin="round"/>
<path d="M286.83 342.467C286.83 342.467 288.014 344.55 289.515 345.457L286.83 342.467Z" fill="#9D9D9D"/>
<path d="M286.83 342.467C286.83 342.467 288.014 344.55 289.515 345.457" stroke="#111311" stroke-width="0.830991" stroke-miterlimit="10" stroke-linecap="round" stroke-linejoin="round"/>
<path d="M263.922 302.4C263.922 302.4 263.862 308.101 264.025 309.044C264.187 309.988 263.521 311.611 263.323 315.136C263.125 318.662 263.485 322.403 261.401 321.556C259.317 320.706 259.13 314.671 259.487 313.167C259.843 311.664 257.875 306.818 257.875 306.818" fill="#9D9D9D"/>
<path d="M263.922 302.4C263.922 302.4 263.862 308.101 264.025 309.044C264.187 309.988 263.521 311.611 263.323 315.136C263.125 318.662 263.485 322.403 261.401 321.556C259.317 320.706 259.13 314.671 259.487 313.167C259.843 311.664 257.875 306.818 257.875 306.818" stroke="#111311" stroke-width="0.830991" stroke-miterlimit="10" stroke-linecap="round" stroke-linejoin="round"/>
<path d="M225.42 273.423C223.783 268.851 214.938 207.316 214.938 207.316C210.844 215.755 203.686 258.625 203.686 258.625L202.681 281.628L201.846 285.878C206.424 283.253 217.465 278.257 223.355 286.888C223.514 286.478 223.636 286.131 223.713 285.856C225.298 280.187 227.057 277.996 225.42 273.423Z" fill="#21A038"/>
<path d="M225.42 273.423C223.783 268.851 214.938 207.316 214.938 207.316C210.844 215.755 203.686 258.625 203.686 258.625L202.681 281.628L201.846 285.878C206.424 283.253 217.465 278.257 223.355 286.888C223.514 286.478 223.636 286.131 223.713 285.856C225.298 280.187 227.057 277.996 225.42 273.423Z" stroke="#111311" stroke-width="0.89071" stroke-miterlimit="10" stroke-linecap="round" stroke-linejoin="round"/>
<path d="M220.214 278.647C221.338 278.955 222.414 279.382 223.397 279.961" stroke="#111311" stroke-width="0.89071" stroke-miterlimit="10" stroke-linecap="round" stroke-linejoin="round"/>
<path d="M204.199 279.037C204.199 279.037 210.096 277.393 216.126 277.944" stroke="#111311" stroke-width="0.89071" stroke-miterlimit="10" stroke-linecap="round" stroke-linejoin="round"/>
<path d="M222.634 276.485C222.634 276.485 218.069 272.837 213.915 273.759" stroke="#111311" stroke-width="0.89071" stroke-miterlimit="10" stroke-linecap="round" stroke-linejoin="round"/>
<path d="M109.152 387.173L115.941 340.901L122.284 315.757L196.729 320.092L201.075 338.951L198.095 396.125L160.577 392.606L158.159 354.325L155.681 357.756L150.782 390.873L109.152 387.173Z" fill="#111311" stroke="#111311" stroke-width="0.89071" stroke-miterlimit="10" stroke-linecap="round" stroke-linejoin="round"/>
<path d="M155.441 191.767C155.441 191.767 122.354 197.546 120.28 198.362C118.206 199.177 118.774 229.739 120.432 241.007C122.09 252.276 124.433 293.308 124.433 293.308L120.332 322.421C120.332 322.421 151.622 326.171 164.381 325.754C177.141 325.338 191.351 323.037 191.351 323.037C191.351 323.037 199 297.693 199.573 280.573C200.146 263.452 209.822 221.731 210.233 218.941C210.645 216.151 213.908 205.951 213.908 205.951C213.908 205.951 190.941 196.114 184.892 194.738C178.844 193.361 164.452 191.604 155.441 191.767Z" fill="#21A038" stroke="#111311" stroke-width="0.89071" stroke-miterlimit="10" stroke-linecap="round" stroke-linejoin="round"/>
<path d="M147 199.017C147 199.017 149.951 210.676 158.814 218.493" stroke="#111311" stroke-width="0.89071" stroke-miterlimit="10" stroke-linecap="round" stroke-linejoin="round"/>
<path d="M181.07 200.671C181.07 200.671 178.838 204.832 175.504 209.26" stroke="#111311" stroke-width="0.89071" stroke-miterlimit="10" stroke-linecap="round" stroke-linejoin="round"/>
<path d="M174.647 211.549L172.701 213.726" stroke="#111311" stroke-width="0.89071" stroke-miterlimit="10" stroke-linecap="round" stroke-linejoin="round"/>
<path d="M150.881 321.12C158.548 321.508 172.645 321.816 182.058 319.605" stroke="#111311" stroke-width="0.89071" stroke-miterlimit="10" stroke-linecap="round" stroke-linejoin="round"/>
<path d="M145.438 320.796C145.438 320.796 146.307 320.87 147.806 320.963" stroke="#111311" stroke-width="0.89071" stroke-miterlimit="10" stroke-linecap="round" stroke-linejoin="round"/>
<path d="M177.72 315.584C167.566 315.965 152.272 315.677 140.777 311.659" stroke="#111311" stroke-width="0.89071" stroke-miterlimit="10" stroke-linecap="round" stroke-linejoin="round"/>
<path d="M188.537 315.162C188.537 315.162 185.955 315.413 181.83 315.584" stroke="#111311" stroke-width="0.89071" stroke-miterlimit="10" stroke-linecap="round" stroke-linejoin="round"/>
<path d="M189.182 301.197C182.774 304.09 170.609 308.841 158.918 309.315" stroke="#111311" stroke-width="0.89071" stroke-miterlimit="10" stroke-linecap="round" stroke-linejoin="round"/>
<path d="M193.806 299.019C193.806 299.019 192.93 299.479 191.382 300.204" stroke="#111311" stroke-width="0.89071" stroke-miterlimit="10" stroke-linecap="round" stroke-linejoin="round"/>
<path d="M151.067 180.564L150.419 196.779C150.419 196.779 153.727 208.882 164.874 209.167C175.806 209.446 179.184 195.317 179.184 195.317L179.099 178.129C179.099 178.129 168.557 185.459 163.307 184.244C158.058 183.028 151.067 180.564 151.067 180.564Z" fill="#9D9D9D" stroke="#111311" stroke-width="0.89071" stroke-miterlimit="10" stroke-linecap="round" stroke-linejoin="round"/>
<path d="M141.821 160.852C141.821 160.852 140.178 158.075 138.403 160.281C136.627 162.486 137.606 168.945 140.146 170.557C142.685 172.169 143.401 172.236 143.401 172.236C143.401 172.236 145.689 178.818 147.084 180.822C148.479 182.825 159.221 192.698 162.007 193.46C164.793 194.22 168.971 193.739 170.774 192.16C172.578 190.582 179.09 179.208 180.222 176.443C181.356 173.678 181.566 173.074 181.821 171.35C182.076 169.626 182.174 168.138 182.174 168.138C182.174 168.138 185.551 164.085 186.298 160.66C187.046 157.235 186.594 154.57 184.88 153.91C183.166 153.249 180.715 156.764 180.715 156.764L177.083 137.198C177.083 137.198 175.702 131.824 174.006 131.041C172.31 130.257 159.326 130.661 153.62 132.496C147.914 134.333 142.308 136.303 141.568 138.855C140.829 141.408 141.821 160.852 141.821 160.852Z" fill="#9D9D9D" stroke="#111311" stroke-width="0.89071" stroke-miterlimit="10" stroke-linecap="round" stroke-linejoin="round"/>
<path d="M154.453 135.324C154.453 135.324 143.922 136.476 143.109 138.151C142.297 139.824 141.071 143.016 141.817 145.614C142.562 148.213 142.148 161.204 142.148 161.204C142.148 161.204 143.224 165.39 142.193 164.71C141.164 164.03 140.944 159.147 140.658 158.537C140.372 157.927 136.903 148.266 135.928 144.673C134.953 141.081 138.408 138.098 139.265 137.401C140.121 136.703 141.035 135.622 141.035 135.622C141.035 135.622 140.929 129.971 143.713 127.704C146.498 125.437 164.902 123.273 166.473 122.837C168.045 122.4 170.014 119.279 171.428 118.634C172.842 117.989 176.459 120.272 178.166 125.295C179.871 130.317 179.487 131.643 178.601 132.531L177.717 133.421C177.717 133.421 180.261 134.048 180.836 137.798C181.412 141.548 182.387 145.14 181.962 148.018C181.536 150.895 180.436 156.402 180.351 156.977C180.266 157.553 179.698 156.947 179.425 154.976C179.151 153.005 176.207 138.531 175.691 136.926C175.175 135.322 174.473 133.7 174.187 133.09C173.9 132.48 158.579 131.627 154.453 135.324Z" fill="#111311" stroke="#111311" stroke-width="0.89071" stroke-miterlimit="10" stroke-linecap="round" stroke-linejoin="round"/>
<path d="M162.235 193.4C165.037 194.163 169.238 193.68 171.052 192.095C172.866 190.509 179.414 179.086 180.554 176.309C181.693 173.531 181.904 172.924 182.161 171.192C182.417 169.461 182.517 167.965 182.517 167.965L181.443 156.025C181.336 156.16 181.249 156.273 181.183 156.361C181.02 160.002 180.68 167.03 180.444 168.023C180.123 169.372 178.465 170.721 176.992 170.833C175.517 170.946 168.853 169.193 165.822 169.159C162.791 169.126 161.668 170.148 159.208 171.173C156.749 172.196 151.638 174.725 150.385 174.984C149.132 175.243 146.983 174.164 146.208 172.837C145.432 171.511 142.787 160.777 142.787 160.777C142.704 161.442 141.885 162.651 141.885 162.651L143.526 172.084C143.526 172.084 145.827 178.695 147.23 180.707C148.632 182.72 159.433 192.636 162.235 193.4Z" fill="#111311"/>
<path d="M162.235 193.4C165.037 194.163 169.238 193.68 171.052 192.095C172.866 190.509 179.414 179.086 180.554 176.309C181.693 173.531 181.904 172.924 182.161 171.192C182.417 169.461 182.517 167.965 182.517 167.965L181.443 156.025C181.336 156.16 181.249 156.273 181.183 156.361C181.02 160.002 180.68 167.03 180.444 168.023C180.123 169.372 178.465 170.721 176.992 170.833C175.517 170.946 168.853 169.193 165.822 169.159C162.791 169.126 161.668 170.148 159.208 171.173C156.749 172.196 151.638 174.725 150.385 174.984C149.132 175.243 146.983 174.164 146.208 172.837C145.432 171.511 142.787 160.777 142.787 160.777C142.704 161.442 141.885 162.651 141.885 162.651L143.526 172.084C143.526 172.084 145.827 178.695 147.23 180.707C148.632 182.72 159.433 192.636 162.235 193.4Z" stroke="#111311" stroke-width="0.89071" stroke-miterlimit="10" stroke-linecap="round" stroke-linejoin="round"/>
<path d="M165.716 151.909C165.716 151.909 163.419 154.011 163.687 154.778C163.956 155.547 167.036 169.429 166.709 170.875C166.383 172.32 164.305 172.844 162.768 172.189C161.23 171.536 160.727 167.045 160.727 167.045" fill="#9D9D9D"/>
<path d="M165.716 151.909C165.716 151.909 163.419 154.011 163.687 154.778C163.956 155.547 167.036 169.429 166.709 170.875C166.383 172.32 164.305 172.844 162.768 172.189C161.23 171.536 160.727 167.045 160.727 167.045" stroke="#111311" stroke-width="0.89071" stroke-miterlimit="10" stroke-linecap="round" stroke-linejoin="round"/>
<path d="M167.855 150.916C167.855 150.916 172.558 148.422 176.161 150.775" stroke="#111311" stroke-width="2.67213" stroke-miterlimit="10" stroke-linecap="round" stroke-linejoin="round"/>
<path d="M156.18 152.429C156.18 152.429 149.631 150.073 146.216 154.987" stroke="#111311" stroke-width="2.67213" stroke-miterlimit="10" stroke-linecap="round" stroke-linejoin="round"/>
<path d="M154.824 158.527C154.961 159.565 154.555 160.482 153.92 160.575C153.284 160.667 152.658 159.899 152.521 158.861C152.384 157.823 152.79 156.906 153.425 156.814C154.061 156.721 154.688 157.489 154.824 158.527Z" fill="#111311"/>
<path d="M152.499 158.862C152.341 157.826 152.738 156.911 153.386 156.817C154.035 156.723 154.688 157.486 154.847 158.522C155.005 159.557 154.608 160.473 153.959 160.567C153.311 160.661 152.658 159.897 152.499 158.862Z" stroke="#111311" stroke-width="0.89071" stroke-miterlimit="10" stroke-linecap="round" stroke-linejoin="round"/>
<path d="M171.288 156.049C171.424 157.087 171.02 158.004 170.383 158.096C169.747 158.188 169.121 157.42 168.986 156.383C168.848 155.345 169.253 154.428 169.889 154.336C170.526 154.243 171.152 155.011 171.288 156.049Z" fill="#111311"/>
<path d="M168.964 156.387C168.806 155.352 169.203 154.436 169.851 154.342C170.499 154.248 171.153 155.012 171.311 156.047C171.469 157.083 171.072 157.998 170.424 158.092C169.776 158.186 169.122 157.423 168.964 156.387Z" stroke="#111311" stroke-width="0.89071" stroke-miterlimit="10" stroke-linecap="round" stroke-linejoin="round"/>
<path d="M157.54 177.474C157.54 177.474 165.891 180.158 171.459 174.976" stroke="#111311" stroke-width="0.89071" stroke-miterlimit="10" stroke-linecap="round" stroke-linejoin="round"/>
<path d="M224.719 285.844C224.685 285.969 224.638 286.112 224.587 286.264C224.638 286.113 224.685 285.969 224.719 285.844Z" stroke="#111311" stroke-width="0.89071" stroke-miterlimit="10" stroke-linecap="round" stroke-linejoin="round"/>
<path d="M224.299 286.226C218.296 277.541 207.02 282.581 202.345 285.227L197.483 306.263L195.931 310.16C195.931 310.16 186.922 318.207 185.693 319.91C184.464 321.613 182.716 322.864 181.412 323.752C180.108 324.64 177.484 325.202 177.114 326.38C176.745 327.558 180.513 328.519 181.758 328.029C183.003 327.54 186.366 324.621 186.366 324.621L183.865 329.642L198.096 337.851C198.096 337.851 199.544 333.339 200.343 330.584C201.141 327.829 202.69 321.306 203.059 320.127C203.419 318.979 221.974 292.774 224.496 285.702C224.438 285.864 224.374 286.036 224.299 286.226Z" fill="#9D9D9D" stroke="#111311" stroke-width="0.89071" stroke-miterlimit="10" stroke-linecap="round" stroke-linejoin="round"/>
<path d="M119.347 197.84C119.347 197.84 114.978 201.249 113.663 204.948C112.348 208.647 93.5941 254.728 89.6848 261.601C85.7763 268.474 84.5526 274.194 85.8631 277.136C87.1746 280.077 114.3 305.02 114.3 305.02C114.3 305.02 116.108 316.46 116.656 319.33C117.203 322.199 118.224 327.124 118.224 327.124L130.898 322.491C130.898 322.491 132.811 325.289 134.163 326.625C135.516 327.96 137.336 328.737 137.893 327.583C138.449 326.427 136.653 322.836 136.653 322.836C136.653 322.836 135.857 320.346 135.956 318.343C136.056 316.34 133.716 312.496 132.832 310.601C131.949 308.706 123.556 301.269 123.556 301.269L108.557 268.824L119.514 240.315C119.514 240.315 117.01 205.87 119.347 197.84Z" fill="#9D9D9D" stroke="#111311" stroke-width="0.89071" stroke-miterlimit="10" stroke-linecap="round" stroke-linejoin="round"/>
<path d="M107.761 268.692L119.205 244.767C119.205 244.767 116.128 205.857 118.445 197.843C118.445 197.843 114.107 201.245 112.803 204.936C111.499 208.627 92.899 254.617 89.0213 261.476C85.1437 268.336 83.9302 274.045 85.2335 276.981C85.6024 277.815 87.7367 281.554 92.4422 284.942C94.5878 281.65 100.043 274.045 109.857 274.279L107.761 268.692Z" fill="#21A038" stroke="#111311" stroke-width="0.89071" stroke-miterlimit="10" stroke-linecap="round" stroke-linejoin="round"/>
<path d="M94.0103 265.753C94.0103 265.753 100.065 265.453 105.26 268.312" stroke="#111311" stroke-width="0.89071" stroke-miterlimit="10" stroke-linecap="round" stroke-linejoin="round"/>
<path d="M102.14 264.797C102.14 264.797 106.912 266.653 108.422 268.653" stroke="#111311" stroke-width="0.89071" stroke-miterlimit="10" stroke-linecap="round" stroke-linejoin="round"/>
<path d="M203.683 305.385C203.683 305.385 189.477 334.686 191.347 351.389C193.217 368.09 194.301 388.246 194.301 388.246L247.968 393.294C247.968 393.294 256.493 373.672 257.288 361.491C258.081 349.31 258.35 335.595 258.35 335.595L259.842 300.455L206.352 295.423L203.683 305.385Z" fill="#111311" stroke="#111311" stroke-width="0.853263" stroke-miterlimit="10" stroke-linecap="round" stroke-linejoin="round"/>
<path d="M225.892 337.746C225.892 337.746 232.225 357.902 234.207 373.399C236.189 388.896 235.684 391.613 235.684 391.613" stroke="#111311" stroke-width="0.853263" stroke-miterlimit="10" stroke-linecap="round" stroke-linejoin="round"/>
<path d="M233.578 355.012C233.578 355.012 244.029 347.625 248.106 338.018" stroke="#111311" stroke-width="0.853263" stroke-miterlimit="10" stroke-linecap="round" stroke-linejoin="round"/>
<path d="M244.854 217.743L218.802 223.981C218.802 223.981 225.949 239.651 226.322 261.161C226.694 282.671 222.798 304.147 222.798 304.147C222.798 304.147 228.814 308.789 241.314 308.49C253.815 308.191 258.392 301.404 258.392 301.404C258.392 301.404 261.891 265.821 259.054 251.297C256.216 236.774 244.854 217.743 244.854 217.743Z" fill="#21A038" stroke="#111311" stroke-width="0.853263" stroke-miterlimit="10" stroke-linecap="round" stroke-linejoin="round"/>
<path d="M213.486 151.3C213.486 151.3 207.458 150.231 204.006 157.123C200.555 164.015 190.251 188.22 191.013 193.83C191.776 199.44 194.754 201.566 195.295 207.657C195.834 213.75 192.496 217.129 192.496 217.129C192.496 217.129 194.328 220.657 199.756 221.334C205.186 222.012 213.916 218.3 219.53 217.485C225.145 216.67 237.31 216.638 244.988 216.183C252.665 215.729 254.989 210.074 254.989 210.074C254.989 210.074 249.798 210.09 249.889 206.743C249.982 203.395 255.695 191.345 255.003 182.553C254.313 173.762 243.364 164.007 238.61 159.197C233.857 154.388 229.321 150.438 223.732 149.745C218.143 149.052 214.716 149.234 213.486 151.3Z" fill="#111311" stroke="#111311" stroke-width="0.853263" stroke-miterlimit="10" stroke-linecap="round" stroke-linejoin="round"/>
<path d="M206.614 181.905C206.614 181.905 200.885 189.998 200.593 197.617C200.302 205.235 205.717 206.255 206.931 205.374" stroke="#111311" stroke-width="0.853263" stroke-miterlimit="10" stroke-linecap="round" stroke-linejoin="round"/>
<path d="M239.2 172.904C239.2 172.904 249.677 185.232 250.397 196.965" stroke="#111311" stroke-width="0.853263" stroke-miterlimit="10" stroke-linecap="round" stroke-linejoin="round"/>
<path d="M218.76 202.25L222.248 218.043C222.248 218.043 231.852 232.712 236.98 231.251C242.108 229.789 239.079 215.729 239.148 213.793C239.218 211.857 238.871 202.287 238.871 202.287C238.871 202.287 234.805 207.557 232.614 207.351C230.422 207.145 218.76 202.25 218.76 202.25Z" fill="#9D9D9D" stroke="#111311" stroke-width="0.853263" stroke-miterlimit="10" stroke-linecap="round" stroke-linejoin="round"/>
<path d="M218.877 161.975C218.877 161.975 208.016 177.792 207.734 180.069C207.451 182.347 212.477 196.999 213.989 199.977C215.502 202.955 227.595 210.296 230.448 210.741C233.302 211.187 236.59 208.129 237.593 205.563C238.595 203 242.355 196.08 242.663 192.06C242.778 190.559 239.65 173.269 238.237 172.25C236.823 171.23 218.877 161.975 218.877 161.975Z" fill="#9D9D9D" stroke="#111311" stroke-width="0.853263" stroke-miterlimit="10" stroke-linecap="round" stroke-linejoin="round"/>
<path d="M221.656 185.761C221.656 185.761 218.489 183.958 216.264 186.757" stroke="#111311" stroke-width="0.853263" stroke-miterlimit="10" stroke-linecap="round" stroke-linejoin="round"/>
<path d="M230.774 183.493C230.774 183.493 231.784 179.975 235.799 181.545" stroke="#111311" stroke-width="0.853263" stroke-miterlimit="10" stroke-linecap="round" stroke-linejoin="round"/>
<path d="M220.113 180.892C220.113 180.892 214.889 179.864 212.956 183.409" stroke="#111311" stroke-width="0.853263" stroke-miterlimit="10" stroke-linecap="round" stroke-linejoin="round"/>
<path d="M227.534 178.312C227.534 178.312 230.749 174.681 234.609 176.592" stroke="#111311" stroke-width="0.853263" stroke-miterlimit="10" stroke-linecap="round" stroke-linejoin="round"/>
<path d="M230.955 191.107C230.955 191.107 229.012 193.47 226.564 192.444" stroke="#111311" stroke-width="0.853263" stroke-miterlimit="10" stroke-linecap="round" stroke-linejoin="round"/>
<path d="M235.684 193.037C235.684 193.037 231.811 197.724 222.753 197.577C222.753 197.577 228.149 202.549 231.769 201.714C235.391 200.88 235.684 193.037 235.684 193.037Z" fill="#9D9D9D" stroke="#111311" stroke-width="0.853263" stroke-miterlimit="10" stroke-linecap="round" stroke-linejoin="round"/>
<path d="M209.648 188.861C209.648 188.861 206.92 187.204 206.014 190.856C205.109 194.508 212.425 196.48 212.425 196.48L209.648 188.861Z" fill="#9D9D9D" stroke="#111311" stroke-width="0.853263" stroke-miterlimit="10" stroke-linecap="round" stroke-linejoin="round"/>
<path d="M240.399 178.97C240.399 178.97 240.579 177.494 241.985 178.033C243.393 178.571 245.378 183.198 244.864 185.767C244.348 188.335 242.628 188.195 242.628 188.195L240.399 178.97Z" fill="#9D9D9D" stroke="#111311" stroke-width="0.853263" stroke-miterlimit="10" stroke-linecap="round" stroke-linejoin="round"/>
<path d="M214.304 216.371C214.304 216.371 193.364 228.023 192.245 230.367C191.125 232.713 196.418 305.916 196.418 305.916C196.418 305.916 172.437 348.106 176.13 356.168C179.823 364.231 199.889 373.515 200.71 374.995C201.532 376.475 214.55 339.363 219.924 325.341C225.299 311.318 234.392 285.916 236.215 273.654C238.038 261.392 235.232 244.656 234.234 239.131C233.237 233.604 231.404 223.968 231.404 223.968L214.304 216.371Z" fill="#111311" stroke="#111311" stroke-width="0.853263" stroke-miterlimit="10" stroke-linecap="round" stroke-linejoin="round"/>
<path d="M219.13 208.789C219.13 208.789 231.828 223.959 231.058 224.575C230.289 225.19 220.789 236.377 220.789 236.377L210.372 216.998L219.13 208.789Z" fill="#111311" stroke="#111311" stroke-width="0.853263" stroke-miterlimit="10" stroke-linecap="round" stroke-linejoin="round"/>
<path d="M242.423 224.965C242.423 224.965 252.433 241.338 256.052 252.718C259.67 264.098 259.626 283.708 258.703 291.323L256.962 305.69C256.962 305.69 257.663 342.531 258.575 348.747C259.487 354.963 260.758 366.468 260.758 366.468C260.758 366.468 262.819 365.966 263.577 358.335C264.334 350.703 265.454 319.466 264.639 306.954C263.823 294.443 265.334 273.974 264.293 270.196L263.251 266.418L281.494 262.744C281.494 262.744 271.789 251.244 270.16 234.908C269.419 227.475 266.288 223.235 264.335 221.471C262.384 219.707 246.951 216.47 244.295 216.39C241.64 216.309 242.423 224.965 242.423 224.965Z" fill="#111311" stroke="#111311" stroke-width="0.853263" stroke-miterlimit="10" stroke-linecap="round" stroke-linejoin="round"/>
<path d="M240.563 225.087C240.563 225.087 241.35 222.864 242.319 223.309C243.288 223.753 251.261 229.626 252.17 229.18C253.079 228.736 244.96 215.784 243.322 213.863C241.684 211.942 239.958 210.72 239.958 210.72L239.545 214.039L240.563 225.087Z" fill="#111311" stroke="#111311" stroke-width="0.853263" stroke-miterlimit="10" stroke-linecap="round" stroke-linejoin="round"/>
<path d="M257.247 226.902C257.247 226.902 261.116 247.034 260.987 255.536L257.247 226.902Z" fill="#9D9D9D"/>
<path d="M257.247 226.902C257.247 226.902 261.116 247.034 260.987 255.536" stroke="#111311" stroke-width="0.853263" stroke-miterlimit="10" stroke-linecap="round" stroke-linejoin="round"/>
<path d="M256.476 266.566C256.476 266.566 261.701 252.613 262.635 251.834C263.569 251.054 270.704 248.691 271.273 248.6C271.843 248.51 275.85 252.207 276.451 252.987C277.052 253.765 279.84 256.048 279.146 257.138C278.452 258.23 276.764 257.204 275.798 257.113C274.833 257.023 269.907 259.594 269.578 259.996C269.248 260.399 267.286 263.826 266.61 264.773C265.934 265.721 256.476 266.566 256.476 266.566Z" fill="#9D9D9D" stroke="#111311" stroke-width="0.853263" stroke-miterlimit="10" stroke-linecap="round" stroke-linejoin="round"/>
<path d="M277.617 254.343C277.617 254.343 275.881 253.41 275.298 253.643C274.715 253.876 267.836 256.398 267.412 256.839C266.987 257.28 266.437 257.996 266.437 257.996" stroke="#111311" stroke-width="0.853263" stroke-miterlimit="10" stroke-linecap="round" stroke-linejoin="round"/>
<path d="M264.913 255.673C264.913 255.673 266.198 254.255 267.376 253.693C268.557 253.13 272.585 251.972 273.066 251.826C273.547 251.679 275.261 252.034 275.261 252.034" stroke="#111311" stroke-width="0.853263" stroke-miterlimit="10" stroke-linecap="round" stroke-linejoin="round"/>
<path d="M272.582 250.082C272.582 250.082 264.929 252.146 264.389 252.768L263.851 253.391" stroke="#111311" stroke-width="0.853263" stroke-miterlimit="10" stroke-linecap="round" stroke-linejoin="round"/>
<path d="M264.181 264.817C264.181 264.817 271.717 260.407 274.923 259.295C278.128 258.185 284.037 261.388 285.021 263.069C286.006 264.75 286.59 272.396 285.729 277.963C284.867 283.531 284.395 285.958 280.537 286.831C276.679 287.705 271.539 287.927 271.011 288.053C270.485 288.18 271.3 277.49 268.814 271.431C266.329 265.372 264.181 264.817 264.181 264.817Z" fill="#111311" stroke="#111311" stroke-width="0.853263" stroke-miterlimit="10" stroke-linecap="round" stroke-linejoin="round"/>
<path d="M254.875 267.267C254.875 267.267 254.093 287.285 255.135 289.85C256.177 292.415 259.602 292.21 263.239 291.671C266.874 291.132 272.234 290.404 272.553 289.199C272.873 287.996 274.151 276.308 272.908 271.257C271.664 266.205 268.903 262.42 266.297 262.88C263.689 263.339 255.242 264.306 254.875 267.267Z" fill="#111311" stroke="#111311" stroke-width="0.853263" stroke-miterlimit="10" stroke-linecap="round" stroke-linejoin="round"/>
<path d="M235.122 297.82L258.035 282.103L249.794 275.18L232.184 280.696C232.184 280.696 235.456 293.164 235.122 297.82Z" fill="#9D9D9D" stroke="#111311" stroke-width="0.853263" stroke-miterlimit="10" stroke-linecap="round" stroke-linejoin="round"/>
<path d="M223.483 306.842C223.483 306.842 225.662 307.048 228.969 304.784C232.278 302.52 235.21 301.079 235.283 293.786C235.357 286.49 233.316 275.131 231.858 273.561C230.4 271.991 219.71 272.699 219.35 273.38C218.991 274.063 225.977 287.751 225.732 295.315C225.486 302.88 223.483 306.842 223.483 306.842Z" fill="#111311" stroke="#111311" stroke-width="0.853263" stroke-miterlimit="10" stroke-linecap="round" stroke-linejoin="round"/>
<path d="M195.539 231.046C195.539 231.046 194.381 227.846 191.552 230.269C188.721 232.694 186.434 240.067 187.086 249.294C187.738 258.52 187.957 296.92 189.288 301.771C190.618 306.622 191.846 311.178 195.233 311.641C198.622 312.105 209.982 311.604 217.994 309.209C226.005 306.817 226.749 297.436 225.159 289.123C223.567 280.81 219.621 273.706 217.005 271.454C214.391 269.202 213.206 266.513 210.926 260.426C208.647 254.339 203.654 238.974 202.01 236.67" fill="#111311"/>
<path d="M195.539 231.046C195.539 231.046 194.381 227.846 191.552 230.269C188.721 232.694 186.434 240.067 187.086 249.294C187.738 258.52 187.957 296.92 189.288 301.771C190.618 306.622 191.846 311.178 195.233 311.641C198.622 312.105 209.982 311.604 217.994 309.209C226.005 306.817 226.749 297.436 225.159 289.123C223.567 280.81 219.621 273.706 217.005 271.454C214.391 269.202 213.206 266.513 210.926 260.426C208.647 254.339 203.654 238.974 202.01 236.67" stroke="#111311" stroke-width="0.853263" stroke-miterlimit="10" stroke-linecap="round" stroke-linejoin="round"/>
<path d="M202.474 285.01C201.699 285.58 200.907 286.084 200.104 286.49" stroke="#111311" stroke-width="0.853263" stroke-miterlimit="10" stroke-linecap="round" stroke-linejoin="round"/>
<path d="M212.432 273.842C212.432 273.842 208.956 279.305 204.487 283.37" stroke="#111311" stroke-width="0.853263" stroke-miterlimit="10" stroke-linecap="round" stroke-linejoin="round"/>
<path d="M257.986 269.221C257.986 269.221 237.264 269.305 231.99 268.655C226.716 268.006 219.552 264.382 219.552 264.382C219.552 264.382 210.98 259.596 209.154 258.392C207.329 257.188 202.734 256.751 201.409 257.213C200.084 257.675 197.014 259.736 197.254 261.229C197.494 262.722 199.289 261.864 200.214 261.217C201.139 260.57 202.602 260.12 202.602 260.12L206.935 261.562L207.627 262.806C207.627 262.806 201.358 263.385 200.469 263.741C199.579 264.098 196.536 269.396 195.976 270.52C195.415 271.643 195.851 271.537 196.686 271.616L197.522 271.696C197.522 271.696 196.819 273.982 197.619 274.352C198.419 274.722 199.605 274.247 199.605 274.247C199.605 274.247 200.455 275.358 200.873 275.398C201.291 275.438 205.91 273.377 206.66 273.007C207.409 272.638 213.238 274.516 214.769 274.662C216.303 274.808 222.169 275.22 222.169 275.22C222.169 275.22 249.267 286.331 252.957 287.271C256.646 288.21 259.171 288.304 261.097 284.076C263.023 279.847 261.117 270.107 257.986 269.221Z" fill="#9D9D9D" stroke="#111311" stroke-width="0.853263" stroke-miterlimit="10" stroke-linecap="round" stroke-linejoin="round"/>
<path d="M199.486 273.81C199.486 273.81 203.751 269.87 204.789 269.388C205.828 268.907 207.851 268.374 207.851 268.374" stroke="#111311" stroke-width="0.853263" stroke-miterlimit="10" stroke-linecap="round" stroke-linejoin="round"/>
<path d="M197.344 271.315L201.801 266.958L206.16 265.632" stroke="#111311" stroke-width="0.853263" stroke-miterlimit="10" stroke-linecap="round" stroke-linejoin="round"/>
<path d="M96.5559 153.638C96.5559 153.638 97.7138 154.333 99.5679 155.028C101.421 155.723 106.054 157.345 108.139 159.662C110.223 161.978 109.529 167.538 109.529 167.538" stroke="#111311" stroke-width="0.853263" stroke-miterlimit="10" stroke-linecap="round" stroke-linejoin="round"/>
<path d="M70.1087 172.909L68.2936 176.802" stroke="#111311" stroke-width="0.853263" stroke-miterlimit="10" stroke-linecap="round" stroke-linejoin="round"/>
<path d="M55.4788 160.681C55.4788 160.681 54.2152 166.649 52.9387 168.016C51.6622 169.384 49.634 171 50.3072 173.984C50.9813 176.968 54.914 178.832 54.902 179.33C54.8901 179.827 47.7705 181.195 47.9642 183.433C48.1587 185.671 50.082 188.406 50.082 188.406C50.082 188.406 44.8173 190.147 44.3719 193.131C43.9265 196.114 45.7192 199.098 45.6928 200.218C45.6655 201.336 42.4964 203.823 43.4436 205.813C44.389 207.802 46.6331 207.553 46.7491 207.926C46.8635 208.299 45.4573 209.915 45.4334 210.91C45.4086 211.904 46.1339 212.774 46.1339 212.774H88.1563L76.2379 150.611L60.4244 156.702L55.4788 160.681Z" fill="#21A038" stroke="#111311" stroke-width="0.853263" stroke-miterlimit="10" stroke-linecap="round" stroke-linejoin="round"/>
<path d="M112.408 301.755C112.408 301.755 121.075 321.48 122.213 326.322C123.35 331.164 123.89 352.717 122.086 361.111C118.8 376.397 109.383 390.879 109.383 390.879H61.648L51.8048 344.917L66.1806 300.14L112.408 301.755Z" fill="#9D9D9D" stroke="#111311" stroke-width="0.853263" stroke-miterlimit="10" stroke-linecap="round" stroke-linejoin="round"/>
<path d="M104.491 339.771L100.473 350.172L102.387 390.656" stroke="#111311" stroke-width="0.853263" stroke-miterlimit="10" stroke-linecap="round" stroke-linejoin="round"/>
<path d="M111.649 288.664C111.649 288.664 120.083 295.836 121.093 298.527C122.104 301.216 122.749 318.97 123.214 322.018C123.678 325.067 121.635 327.935 121.635 327.935L114.364 309.824C114.364 309.824 113.663 301.755 113.497 301.216C113.33 300.678 112 296.374 112 296.374L111.649 288.664Z" fill="#9D9D9D" stroke="#111311" stroke-width="0.853263" stroke-miterlimit="10" stroke-linecap="round" stroke-linejoin="round"/>
<path d="M118.601 305.162C118.601 305.162 118.702 308.389 119.004 310.721C119.306 313.052 120.277 317.356 118.279 318.432" fill="#9D9D9D"/>
<path d="M118.601 305.162C118.601 305.162 118.702 308.389 119.004 310.721C119.306 313.052 120.277 317.356 118.279 318.432" stroke="#111311" stroke-width="0.853263" stroke-miterlimit="10" stroke-linecap="round" stroke-linejoin="round"/>
<path d="M81.0445 212.27L92.5124 212.628L100.711 212.899L110.245 220.878C110.245 220.878 118.246 260.688 118.902 263.199C119.558 265.709 112.108 284.539 111.526 286.331C110.945 288.125 112.407 301.754 112.407 301.754C112.407 301.754 108.738 305.161 96.864 306.775C84.9891 308.388 71.3028 303.368 71.3028 303.368C71.3028 303.368 80.3056 279.696 82.228 266.964C82.228 266.964 83.9004 242.397 83.3526 235.404C82.8048 228.409 81.0445 212.27 81.0445 212.27Z" fill="#21A038" stroke="#111311" stroke-width="0.853263" stroke-miterlimit="10" stroke-linecap="round" stroke-linejoin="round"/>
<path d="M109.652 271.195L91.087 280.611" stroke="#111311" stroke-width="0.853263" stroke-miterlimit="10" stroke-linecap="round" stroke-linejoin="round"/>
<path d="M108.575 274.424L99.966 278.728" stroke="#111311" stroke-width="0.853263" stroke-miterlimit="10" stroke-linecap="round" stroke-linejoin="round"/>
<path d="M77.9036 199.088C77.9036 199.088 84.8013 222.97 85.693 227.197C86.5855 231.425 95.4168 236.397 100.829 233.662C106.241 230.927 104.503 225.705 103.588 222.473C102.671 219.24 100.711 212.899 100.711 212.899L102.798 193.504C102.798 193.504 96.2462 202.207 93.8596 203.201C91.473 204.196 77.9036 199.088 77.9036 199.088Z" fill="#9D9D9D" stroke="#111311" stroke-width="0.853263" stroke-miterlimit="10" stroke-linecap="round" stroke-linejoin="round"/>
<path d="M90.8083 205.371L99.847 214.093L102.067 195.381L90.8083 205.371Z" fill="#111311" stroke="#111311" stroke-width="0.853263" stroke-miterlimit="10" stroke-linecap="round" stroke-linejoin="round"/>
<path d="M100.164 213.142L99.6889 221.704" stroke="#111311" stroke-width="0.853263" stroke-miterlimit="10" stroke-linecap="round" stroke-linejoin="round"/>
<path d="M100.773 210.926C100.773 210.926 113.546 247.418 114.96 255.667C116.374 263.916 116.689 265.71 116.799 268.579C116.909 271.447 114.604 277.725 114.604 277.725C114.604 277.725 123.661 266.606 123.717 256.923C123.772 247.238 117.194 217.989 114.124 216.216C101.92 209.168 100.773 210.926 100.773 210.926Z" fill="#111311" stroke="#111311" stroke-width="0.853263" stroke-miterlimit="10" stroke-linecap="round" stroke-linejoin="round"/>
<path d="M112.63 228.918C112.63 228.918 118.084 245.332 117.43 257.575" stroke="#111311" stroke-width="0.853263" stroke-miterlimit="10" stroke-linecap="round" stroke-linejoin="round"/>
<path d="M69.2899 170.504L75.0844 162.298L101.9 189.526C101.9 189.526 100.27 205.44 100.258 205.937C100.246 206.435 101.92 209.169 101.92 209.169C101.92 209.169 102.652 209.791 103.252 210.662C103.852 211.532 103.231 211.532 103.077 212.775C102.922 214.018 103.777 214.64 104.384 215.263C104.99 215.884 106.467 216.506 107.325 217.003C108.183 217.5 107.41 218.618 106.762 219.738C106.113 220.857 105.191 222.971 106.256 225.208C107.321 227.446 107.951 227.073 109.774 228.813C111.596 230.554 108.947 232.171 108.947 232.171C108.947 232.171 110.323 231.797 111.451 231.425C112.579 231.051 113.107 229.808 112.631 228.938C112.154 228.067 111.229 225.208 111.614 224.711C111.999 224.214 115.522 222.473 116.55 221.105C117.578 219.738 116.465 219.49 117.347 218.992C118.23 218.495 119.998 217.375 120.413 215.635C120.828 213.895 118.766 211.78 119.402 211.159C120.039 210.537 122.43 206.709 122.458 205.591C122.484 204.471 121.068 202.579 121.068 202.579C121.068 202.579 121.991 201.835 122.576 198.229C123.161 194.624 120.328 193.504 120.128 191.515C119.928 189.526 122.854 186.791 122.898 179.828C122.942 172.866 111.431 170.753 111.079 169.882C110.728 169.011 111.134 167.644 110.93 165.779C110.727 163.914 106.206 160.682 106.206 160.682C106.206 160.682 106.747 158.817 107.151 157.573C107.554 156.33 106.96 155.212 104.77 153.222C102.58 151.233 91.9901 141.908 87.5387 140.913C83.0863 139.919 75.6339 144.768 74.7508 145.265C73.8685 145.763 66.824 144.022 64.6687 145.763C62.5125 147.502 61.8188 150.487 61.2906 151.73C60.7633 152.973 58.8989 152.973 57.7495 154.217C56.6002 155.46 54.7222 166.277 54.7222 166.277" fill="#21A038"/>
<path d="M69.2899 170.504L75.0844 162.298L101.9 189.526C101.9 189.526 100.27 205.44 100.258 205.937C100.246 206.435 101.92 209.169 101.92 209.169C101.92 209.169 102.652 209.791 103.252 210.662C103.852 211.532 103.231 211.532 103.077 212.775C102.922 214.018 103.777 214.64 104.384 215.263C104.99 215.884 106.467 216.506 107.325 217.003C108.183 217.5 107.41 218.618 106.762 219.738C106.113 220.857 105.191 222.971 106.256 225.208C107.321 227.446 107.951 227.073 109.774 228.813C111.596 230.554 108.947 232.171 108.947 232.171C108.947 232.171 110.323 231.797 111.451 231.425C112.579 231.051 113.107 229.808 112.631 228.938C112.154 228.067 111.229 225.208 111.614 224.711C111.999 224.214 115.522 222.473 116.55 221.105C117.578 219.738 116.465 219.49 117.347 218.992C118.23 218.495 119.998 217.375 120.413 215.635C120.828 213.895 118.766 211.78 119.402 211.159C120.039 210.537 122.43 206.709 122.458 205.591C122.484 204.471 121.068 202.579 121.068 202.579C121.068 202.579 121.991 201.835 122.576 198.229C123.161 194.624 120.328 193.504 120.128 191.515C119.928 189.526 122.854 186.791 122.898 179.828C122.942 172.866 111.431 170.753 111.079 169.882C110.728 169.011 111.134 167.644 110.93 165.779C110.727 163.914 106.206 160.682 106.206 160.682C106.206 160.682 106.747 158.817 107.151 157.573C107.554 156.33 106.96 155.212 104.77 153.222C102.58 151.233 91.9901 141.908 87.5387 140.913C83.0863 139.919 75.6339 144.768 74.7508 145.265C73.8685 145.763 66.824 144.022 64.6687 145.763C62.5125 147.502 61.8188 150.487 61.2906 151.73C60.7633 152.973 58.8989 152.973 57.7495 154.217C56.6002 155.46 54.7222 166.277 54.7222 166.277" stroke="#111311" stroke-width="0.853263" stroke-miterlimit="10" stroke-linecap="round" stroke-linejoin="round"/>
<path d="M80.3243 208.236C80.3243 208.236 93.305 253.873 93.8784 259.792C94.4526 265.709 74.1458 304.444 70.0041 312.513C65.8632 320.583 56.8391 345.15 55.3791 353.579C53.9192 362.007 52.7793 372.049 52.7793 372.049C52.7793 372.049 41.9667 366.849 34.9025 362.366C27.8384 357.883 26.6438 355.372 27.2035 354.476C27.7633 353.579 30.7233 342.461 30.7233 342.461C30.7233 342.461 24.6122 335.646 24.9876 334.928C25.3639 334.211 39.2533 286.511 39.2533 286.511C39.2533 286.511 42.9087 209.76 44.3439 209.76C45.7782 209.76 80.3243 208.236 80.3243 208.236Z" fill="#111311" stroke="#111311" stroke-width="0.853263" stroke-miterlimit="10" stroke-linecap="round" stroke-linejoin="round"/>
<path d="M79.0136 230.028L93.8786 259.792" stroke="#111311" stroke-width="0.853263" stroke-miterlimit="10" stroke-linecap="round" stroke-linejoin="round"/>
<path d="M52.9387 210.297C52.9387 210.297 42.2311 208.145 40.3684 211.014C38.5049 213.884 22.0838 262.481 21.0787 266.964C20.0727 271.447 50.8294 304.622 50.8294 304.622L66.6873 294.042L47.9599 267.681L58.1982 230.023" fill="#111311"/>
<path d="M52.9387 210.297C52.9387 210.297 42.2311 208.145 40.3684 211.014C38.5049 213.884 22.0838 262.481 21.0787 266.964C20.0727 271.447 50.8294 304.622 50.8294 304.622L66.6873 294.042L47.9599 267.681L58.1982 230.023" stroke="#111311" stroke-width="0.853263" stroke-miterlimit="10" stroke-linecap="round" stroke-linejoin="round"/>
<path d="M55.5093 241.727L47.8649 265.356L64.9677 290.994" stroke="#111311" stroke-width="0.853263" stroke-miterlimit="10" stroke-linecap="round" stroke-linejoin="round"/>
<path d="M57.594 234.315L56.4985 237.809" stroke="#111311" stroke-width="0.853263" stroke-miterlimit="10" stroke-linecap="round" stroke-linejoin="round"/>
<path d="M64.8861 290.992L47.763 305.25L53.5885 312.326L71.6041 298.437L64.8861 290.992Z" fill="#9D9D9D" stroke="#111311" stroke-width="0.853263" stroke-miterlimit="10" stroke-linecap="round" stroke-linejoin="round"/>
<path d="M70.3317 299.064C70.3317 299.064 84.6537 314.844 86.2502 315.562C87.8466 316.28 90.9918 319.687 91.8493 321.3C92.7068 322.914 93.9099 325.066 95.1429 325.962C96.3767 326.859 96.5303 327.935 94.3647 328.474C92.2 329.011 90.223 329.191 89.0284 326.68C87.8347 324.17 85.9183 321.838 85.9183 321.838L73.6816 330.984C73.6816 330.984 71.0476 321.3 70.737 319.327C70.4256 317.355 69.7865 314.127 69.7865 314.127L61.5499 306.237L70.3317 299.064Z" fill="#9D9D9D" stroke="#111311" stroke-width="0.853263" stroke-miterlimit="10" stroke-linecap="round" stroke-linejoin="round"/>
<path d="M50.2647 197.233C50.2647 197.233 49.0778 205.188 49.757 207.926C50.4763 210.822 56.3049 210.303 55.1095 214.149C54.7238 215.389 53.2178 216.712 53.6888 218.119C54.1718 219.56 56.0686 219.642 57.1224 220.46C59.0584 221.964 58.3656 223.578 59.0234 225.707C59.4996 227.245 61.1378 227.777 61.5807 228.997C62.1063 230.442 61.0986 231.345 62.7027 232.916C65.4954 235.652 67.597 236.148 67.9759 235.9C68.3547 235.652 67.6243 235.03 69.3855 234.159C71.1474 233.289 74.5434 231.673 73.9555 230.305C73.3762 228.959 72.7968 227.613 72.7832 227.58C73.6031 229.468 76.1493 227.561 76.8447 226.567C78.4335 224.299 76.0042 221.856 76.2884 219.405C76.6024 216.688 79.6622 215.288 80.0043 212.55C80.3388 209.869 77.5546 208.023 78.1613 205.564C78.4369 204.445 78.5913 203.201 78.5913 203.201C78.5913 203.201 77.7816 200.715 76.5588 199.844C75.337 198.974 74.924 195.493 74.8301 194.25" fill="#21A038"/>
<path d="M50.2647 197.233C50.2647 197.233 49.0778 205.188 49.757 207.926C50.4763 210.822 56.3049 210.303 55.1095 214.149C54.7238 215.389 53.2178 216.712 53.6888 218.119C54.1718 219.56 56.0686 219.642 57.1224 220.46C59.0584 221.964 58.3656 223.578 59.0234 225.707C59.4996 227.245 61.1378 227.777 61.5807 228.997C62.1063 230.442 61.0986 231.345 62.7027 232.916C65.4954 235.652 67.597 236.148 67.9759 235.9C68.3547 235.652 67.6243 235.03 69.3855 234.159C71.1474 233.289 74.5434 231.673 73.9555 230.305C73.3762 228.959 72.7968 227.613 72.7832 227.58C73.6031 229.468 76.1493 227.561 76.8447 226.567C78.4335 224.299 76.0042 221.856 76.2884 219.405C76.6024 216.688 79.6622 215.288 80.0043 212.55C80.3388 209.869 77.5546 208.023 78.1613 205.564C78.4369 204.445 78.5913 203.201 78.5913 203.201C78.5913 203.201 77.7816 200.715 76.5588 199.844C75.337 198.974 74.924 195.493 74.8301 194.25" stroke="#111311" stroke-width="0.853263" stroke-miterlimit="10" stroke-linecap="round" stroke-linejoin="round"/>
<path d="M72.6304 157.813C72.6304 157.813 62.579 172.427 63.3478 175.519C64.1157 178.611 71.7857 198.425 74.4078 200.393C77.0298 202.36 87.5984 206.998 91.1078 207.139C94.6173 207.279 97.1805 205.874 98.6447 203.484C100.108 201.096 105.683 191.399 105.734 189.291C105.785 187.183 101.286 166.953 100.45 166.672C99.614 166.39 72.6304 157.813 72.6304 157.813Z" fill="#9D9D9D" stroke="black" stroke-width="0.853263" stroke-miterlimit="10" stroke-linecap="round" stroke-linejoin="round"/>
<path d="M87.99 173.34C87.99 173.34 87.7008 177.241 88.06 178.508C88.4192 179.776 91.7214 184.359 91.799 185.139C91.8784 185.919 90.5916 186.699 88.8194 187.382" stroke="#111311" stroke-width="0.853263" stroke-miterlimit="10" stroke-linecap="round" stroke-linejoin="round"/>
<path d="M65.304 181.559C65.304 181.559 63.1048 179.588 61.926 181.978C60.7471 184.368 61.6545 187.602 65.3812 190.276C69.1089 192.95 69.9509 192.951 69.9509 192.951L65.304 181.559Z" fill="#9D9D9D" stroke="#111311" stroke-width="0.853263" stroke-miterlimit="10" stroke-linecap="round" stroke-linejoin="round"/>
<path d="M102.085 171.724C102.085 171.724 104.076 170.74 104.999 173.27C105.921 175.799 104.5 182.265 104.5 182.265L102.085 171.724Z" fill="#9D9D9D" stroke="#111311" stroke-width="0.853263" stroke-miterlimit="10" stroke-linecap="round" stroke-linejoin="round"/>
<path d="M83.0264 192.3C83.0264 192.3 89.4992 191.958 91.0683 191.196C92.6367 190.431 95.3273 187.228 95.3273 187.228C95.3273 187.228 95.5001 194.42 92.1072 195.567C89.7228 196.373 83.0264 192.3 83.0264 192.3Z" fill="#9D9D9D" stroke="#111311" stroke-width="0.853263" stroke-miterlimit="10" stroke-linecap="round" stroke-linejoin="round"/>
<path d="M72.4201 177.142C72.4201 177.142 72.8305 173.363 79.3252 172.791L72.4201 177.142Z" fill="#9D9D9D"/>
<path d="M72.4201 177.142C72.4201 177.142 72.8305 173.363 79.3252 172.791" stroke="#111311" stroke-width="0.853263" stroke-miterlimit="10" stroke-linecap="round" stroke-linejoin="round"/>
<path d="M87.8946 170.2C87.8946 170.2 91.8852 166.622 96.1277 170.901L87.8946 170.2Z" fill="#9D9D9D"/>
<path d="M87.8946 170.2C87.8946 170.2 91.8852 166.622 96.1277 170.901" stroke="#111311" stroke-width="0.853263" stroke-miterlimit="10" stroke-linecap="round" stroke-linejoin="round"/>
<path d="M80.3615 179.057C80.7216 180.217 80.3906 181.347 79.6205 181.584C78.8506 181.819 77.9337 181.07 77.5729 179.911C77.2126 178.75 77.5435 177.619 78.3136 177.383C79.0835 177.148 80.0004 177.896 80.3615 179.057Z" fill="#111311"/>
<path d="M93.6277 175.381C93.9885 176.541 93.6565 177.672 92.8868 177.908C92.1174 178.144 91.2004 177.394 90.8396 176.234C90.4783 175.074 90.81 173.943 91.5797 173.707C92.3494 173.472 93.2669 174.22 93.6277 175.381Z" fill="#111311"/>
</g>
<defs>
<clipPath id="clip0_1_182">
<rect width="426.632" height="386" fill="white" transform="translate(-29)"/>
</clipPath>
</defs>
</svg>
