<svg width="25" height="25" viewBox="0 0 25 25" fill="none" xmlns="http://www.w3.org/2000/svg">
<circle cx="12.5" cy="12.5" r="12.5" fill="white"/>
<path fill-rule="evenodd" clip-rule="evenodd" d="M9.16667 8.33333C9.16667 7.44928 9.51786 6.60143 10.143 5.97631C10.7681 5.35119 11.6159 5 12.5 5C13.3841 5 14.2319 5.35119 14.857 5.97631C15.4821 6.60143 15.8333 7.44928 15.8333 8.33333C15.8333 9.21739 15.4821 10.0652 14.857 10.6904C14.2319 11.3155 13.3841 11.6667 12.5 11.6667C11.6159 11.6667 10.7681 11.3155 10.143 10.6904C9.51786 10.0652 9.16667 9.21739 9.16667 8.33333ZM9.16667 13.3333C8.0616 13.3333 7.00179 13.7723 6.22039 14.5537C5.43899 15.3351 5 16.3949 5 17.5C5 18.163 5.26339 18.7989 5.73223 19.2678C6.20107 19.7366 6.83696 20 7.5 20H17.5C18.163 20 18.7989 19.7366 19.2678 19.2678C19.7366 18.7989 20 18.163 20 17.5C20 16.3949 19.561 15.3351 18.7796 14.5537C17.9982 13.7723 16.9384 13.3333 15.8333 13.3333H9.16667Z" fill="#21A038"/>
</svg>
