<?xml version="1.0" encoding="UTF-8" standalone="no"?>
<!DOCTYPE svg PUBLIC "-//W3C//DTD SVG 1.1//EN" "http://www.w3.org/Graphics/SVG/1.1/DTD/svg11.dtd">
<svg width="100%" height="100%" viewBox="0 0 32 32" version="1.1" xmlns="http://www.w3.org/2000/svg" xmlns:xlink="http://www.w3.org/1999/xlink" xml:space="preserve" xmlns:serif="http://www.serif.com/" style="fill-rule:evenodd;clip-rule:evenodd;stroke-linejoin:round;stroke-miterlimit:2;">
    <g transform="matrix(1,0,0,1,-21.6029,0)">
        <g id="Монтажная-область1" serif:id="Монтажная область1" transform="matrix(0.0631342,0,0,0.110672,18.4687,-9.35968)">
            <rect x="49.643" y="84.571" width="506.857" height="289.143" style="fill:none;"/>
            <g transform="matrix(2.90812,0,0,1.65897,41.3408,79.8354)">
                <g transform="matrix(1.60088,0,0,1,-42.0925,1.87438)">
                    <path d="M102.525,114.346L79.32,121.807L60.902,115.213L59.86,171.983L104.333,171.983L102.525,114.346Z" style="fill:rgb(232,153,75);"/>
                </g>
                <g transform="matrix(1.60088,0,0,1,-40.4256,-22.0718)">
                    <path d="M100.941,121.981L81.471,116.428L63.004,120.072L59.861,135.689L81.471,145.753L101.483,137.771L100.941,121.981Z" style="fill:rgb(229,150,75);"/>
                </g>
                <g transform="matrix(0.767497,0,0,0.738583,3.10797,-19.3937)">
                    <path d="M99.199,128.571L79.691,146.424L88.396,150.901L99.655,174.712L113.215,173.519L125.827,170.367L133.421,149.832L99.199,128.571Z" style="fill:rgb(153,153,153);"/>
                </g>
                <g transform="matrix(0.785731,-0.796907,0.249346,0.245849,5.83377,105.94)">
                    <path d="M132.555,35.034L68.611,31.705L68.62,77.752L93.783,68.076L132.367,77.752L132.555,35.034Z" style="fill:rgb(232,171,114);"/>
                </g>
                <g transform="matrix(0.917691,0,0,0.944225,-9.71237,-47.2633)">
                    <path d="M93.819,118.525L82.024,111.771L63.921,129.189L75.99,145.371L97.315,127.792L93.819,118.525Z" style="fill:rgb(179,179,179);"/>
                </g>
                <g transform="matrix(0.95555,0,0,0.95555,-361.673,-148.646)">
                    <path d="M504.376,257.563C501.991,256.235 499.536,255.038 497.021,253.976C495.791,253.422 494.471,253.067 493.067,252.576C493.146,251.214 493.245,249.922 493.29,248.629C493.383,245.95 492.141,244.68 489.485,244.511C487.862,244.442 486.248,244.235 484.66,243.89C477.435,242.156 471.46,238.15 465.944,233.362C464.997,232.54 464.92,231.878 465.662,230.603C467.168,228.017 468.597,225.367 470.318,222.928C476.318,214.629 483.263,207.055 491.013,200.361C495.946,195.996 501.053,191.845 507.013,188.894C507.475,188.655 507.897,188.345 508.263,187.975C510.902,185.362 513.563,182.765 516.136,180.09C516.652,179.608 517.068,179.028 517.36,178.384C517.651,177.74 517.813,177.045 517.834,176.339C517.856,175.632 517.738,174.929 517.487,174.268C517.235,173.608 516.856,173.003 516.37,172.49C513.485,169.39 510.483,166.39 507.397,163.497C506.367,162.512 504.992,161.97 503.567,161.99C502.142,162.01 500.782,162.589 499.78,163.603C499.295,164.037 498.848,164.515 498.387,164.975C482.587,180.783 466.787,196.594 450.987,212.407C450.63,212.866 450.182,213.247 449.672,213.526C449.161,213.805 448.598,213.976 448.019,214.028C446.37,214.142 444.831,214.896 443.73,216.128C439.077,220.783 434.39,225.406 429.78,230.101C429.075,230.765 428.512,231.565 428.125,232.453C427.739,233.341 427.537,234.298 427.531,235.266C427.526,236.234 427.717,237.194 428.094,238.086C428.47,238.978 429.024,239.784 429.722,240.456C432.694,243.563 435.773,246.57 438.835,249.59C439.545,250.367 440.434,250.958 441.425,251.313C442.416,251.668 443.478,251.775 444.52,251.626C446.413,251.311 447.275,252.158 448.008,253.735C447.308,254.044 446.664,254.335 446.014,254.608C442.971,255.785 440.136,257.439 437.614,259.508C436.06,260.757 434.813,262.344 433.968,264.15C433.124,265.955 432.704,267.93 432.741,269.923C432.789,290.907 432.761,311.89 432.77,332.874C432.754,333.59 432.821,334.306 432.97,335.006C433.122,335.592 433.432,336.124 433.866,336.546C434.3,336.967 434.842,337.262 435.431,337.397C436.021,337.533 436.636,337.504 437.211,337.314C437.785,337.123 438.297,336.779 438.689,336.319C439.33,335.567 439.648,334.593 439.574,333.608C439.559,330.415 439.559,327.222 439.574,324.029C439.574,323.48 439.666,322.929 439.731,322.229C440.152,322.378 440.565,322.548 440.969,322.738C445.431,325.044 450.2,326.7 455.131,327.654C455.639,327.77 456.158,327.834 456.679,327.845C457.467,327.865 458.237,327.605 458.852,327.111C459.466,326.616 459.886,325.92 460.036,325.146C460.186,324.372 460.057,323.57 459.671,322.882C459.286,322.194 458.669,321.665 457.93,321.389C457.205,321.113 456.405,321.044 455.664,320.807C452.383,319.756 449.064,318.799 445.857,317.558C444.313,316.865 442.872,315.964 441.574,314.878C440.891,314.37 440.347,313.698 439.993,312.924C439.638,312.15 439.484,311.299 439.545,310.45C439.628,307.324 439.56,304.195 439.576,301.066C439.613,300.559 439.682,300.054 439.784,299.556C441.846,300.565 443.665,301.578 445.577,302.37C454.077,305.895 463.002,307.102 472.136,307.102C472.397,307.109 472.657,307.093 472.915,307.054C473.531,306.96 474.107,306.694 474.578,306.285C475.048,305.877 475.393,305.344 475.573,304.747C475.767,304.19 475.801,303.589 475.67,303.013C475.539,302.437 475.249,301.91 474.832,301.492C474.473,301.115 474.038,300.819 473.554,300.626C473.071,300.433 472.552,300.347 472.032,300.373C468.782,300.191 465.524,300.046 462.29,299.703C457.355,299.212 452.521,297.99 447.946,296.077C445.702,295.181 443.625,293.914 441.801,292.329C441.24,291.928 440.764,291.42 440.399,290.835C440.035,290.25 439.79,289.598 439.678,288.918C439.535,286.027 439.635,283.123 439.635,279.918C441.335,280.804 442.721,281.608 444.176,282.27C445.654,282.944 447.176,283.525 448.715,284.061C450.189,284.575 451.688,285.033 453.202,285.414C454.779,285.814 456.381,286.119 457.983,286.4C459.585,286.681 461.197,286.919 462.814,287.1C464.431,287.281 466.056,287.411 467.68,287.495C469.241,287.577 470.807,287.595 472.369,287.595C473.998,287.595 475.629,287.575 477.255,287.495C478.881,287.415 480.504,287.28 482.121,287.095C483.738,286.91 485.347,286.659 486.947,286.37C488.547,286.081 490.147,285.759 491.721,285.36C493.234,284.978 494.738,284.536 496.209,284.016C497.741,283.476 499.252,282.859 500.73,282.185C502.167,281.531 503.552,280.762 504.992,280.026C505.075,280.235 505.138,280.451 505.182,280.671C505.196,286.666 505.205,292.661 505.209,298.656C505.215,299.312 505.086,299.962 504.829,300.566C504.573,301.17 504.195,301.715 503.719,302.166C502.751,303.128 501.692,303.996 500.559,304.757C498.009,306.339 495.24,307.538 492.342,308.316C491.094,308.683 489.823,308.976 488.575,309.342C487.933,309.486 487.35,309.824 486.907,310.311C486.465,310.799 486.183,311.411 486.102,312.064C486.002,312.629 486.049,313.211 486.239,313.753C486.43,314.295 486.757,314.778 487.188,315.157C487.62,315.536 488.142,315.797 488.704,315.914C489.266,316.032 489.849,316.003 490.397,315.83C494.997,314.872 499.422,313.209 503.513,310.898C503.976,310.629 504.478,310.427 505.221,310.068L505.221,332.684C505.197,333.335 505.218,333.987 505.283,334.635C505.393,335.435 505.791,336.167 506.401,336.695C507.011,337.223 507.793,337.511 508.6,337.505C509.407,337.499 510.185,337.2 510.787,336.663C511.39,336.126 511.776,335.388 511.875,334.587C511.939,333.873 511.958,333.156 511.933,332.44L511.933,287.67C511.933,281.544 511.89,275.419 511.95,269.293C511.988,267.79 511.721,266.295 511.165,264.898C510.608,263.501 509.774,262.232 508.713,261.167C507.433,259.779 505.974,258.568 504.376,257.563ZM486.095,251.153C486.137,251.664 486.133,252.177 486.083,252.687C485.131,257.78 482.598,262.444 478.845,266.016C478.469,266.415 478.012,266.728 477.504,266.935C476.997,267.142 476.451,267.238 475.903,267.216C471.877,267.145 467.848,267.189 463.623,267.189C461.056,259.86 457.038,253.124 451.811,247.381L461.048,238.158C468.244,244.341 476.228,249.448 486.095,251.153ZM504.09,169.589C505.661,171.183 507.397,172.941 509.129,174.704C509.536,175.119 509.924,175.551 510.412,176.073C510.068,176.498 509.782,176.909 509.441,177.267C506.47,180.543 503.027,183.359 499.227,185.622C494.062,188.555 489.587,192.506 485.195,196.498C477.899,203.012 471.283,210.249 465.447,218.098C464.187,219.824 463.016,221.616 461.909,223.226C459.9,221.226 457.936,219.276 456.16,217.511L504.09,169.589ZM443.79,244.989C440.62,241.864 437.421,238.689 434.452,235.622C439.452,230.627 444.262,225.816 449.142,220.94C452.506,223.795 455.638,226.914 458.507,230.267C457.782,231.58 445.584,243.851 443.79,244.993L443.79,244.989ZM504.422,271.039C503.461,272.263 502.331,273.344 501.066,274.25C497.803,276.422 494.153,277.944 490.314,278.735C476.846,281.865 463.463,281.765 450.231,277.451C447.486,276.599 444.913,275.269 442.631,273.522C438.641,270.388 438.585,267.45 442.51,264.306C445.319,262.172 448.524,260.618 451.939,259.734C452.177,259.712 452.417,259.722 452.652,259.765C454.136,261.987 455.334,264.387 456.218,266.908C455.585,267.075 455.095,267.171 454.627,267.333C453.912,267.575 453.295,268.042 452.869,268.665C452.443,269.288 452.231,270.032 452.264,270.786C452.341,271.571 452.687,272.305 453.244,272.864C453.801,273.422 454.534,273.77 455.319,273.849C455.903,273.898 456.49,273.913 457.076,273.896L487.76,273.896C488.346,273.915 488.932,273.897 489.516,273.844C490.329,273.744 491.076,273.349 491.617,272.733C492.157,272.118 492.452,271.325 492.446,270.506C492.439,269.687 492.132,268.899 491.583,268.292C491.033,267.685 490.279,267.301 489.465,267.214C488.782,267.133 488.092,267.114 487.252,267.057L491.492,259.282C495.692,260.53 499.758,262.016 503.082,265.021C503.608,265.507 504.071,266.058 504.459,266.66C504.948,267.288 505.211,268.062 505.204,268.858C505.197,269.654 504.922,270.424 504.422,271.043L504.422,271.039Z" style="fill-rule:nonzero;"/>
                </g>
            </g>
        </g>
    </g>
</svg>
