<svg xmlns="http://www.w3.org/2000/svg" xmlns:xlink="http://www.w3.org/1999/xlink" aria-hidden="true" style="position: absolute; width: 0; height: 0; overflow: hidden;" version="1.1">
  <defs>
    <symbol id="icon-calc-icon" viewBox="0 0 34 32">
      <path fill="#939393" style="fill: var(--color1, #939393)" d="M34.033 14.416l-16.7-14.272c-0.226-0.193-0.559-0.192-0.782 0.003l-16.345 14.221c-0.25 0.217-0.276 0.595-0.059 0.845s0.596 0.276 0.845 0.059l3.522-3.064v19.119c0 0.331 0.268 0.599 0.599 0.599h23.406c0.331 0 0.599-0.268 0.599-0.599v-19.535l4.136 3.535c0.113 0.097 0.251 0.144 0.389 0.144 0.169 0 0.337-0.071 0.456-0.21 0.215-0.252 0.185-0.63-0.066-0.845zM27.92 30.728h-22.207v-19.563l11.235-9.775 10.973 9.377v19.961z"/>
      <path fill="#939393" style="fill: var(--color1, #939393)" d="M10.511 13.298v11.494c0 0.331 0.268 0.599 0.599 0.599h11.493c0.331 0 0.599-0.268 0.599-0.599v-11.494c0-0.331-0.268-0.599-0.599-0.599h-11.493c-0.331 0-0.599 0.268-0.599 0.599zM17.5 24.193v-4.548h4.505v4.548h-4.505zM22.005 18.446h-4.505v-4.549h4.505v4.549h0zM11.71 13.897h4.593v4.926c-0.028 0.069-0.044 0.143-0.044 0.222s0.016 0.153 0.044 0.222v4.925h-4.593v-10.296z"/>
    </symbol>
    <symbol id="icon-thanks-check" viewBox="0 0 32 32">
      <path fill="none" stroke="#21a038" style="stroke: var(--color1, #21a038)" stroke-linejoin="round" stroke-linecap="butt" stroke-miterlimit="2" stroke-width="1.5574" d="M16.111 0.779c-8.503 0-15.332 6.765-15.332 15.187s6.83 15.187 15.332 15.187c8.503 0 15.333-6.765 15.333-15.187s-6.83-15.187-15.333-15.187zM14.021 22.454l-5.366-5.315 0.976-0.966 4.391 4.349 10.663-10.562 0.976 0.966-11.639 11.528z"/>
    </symbol>
    <symbol id="icon-telegram" viewBox="0 0 32 32">
      <path d="M15.997 0.308c-4.16 0-8.153 1.654-11.093 4.595-2.942 2.941-4.596 6.934-4.596 11.094s1.655 8.153 4.596 11.094c2.939 2.941 6.933 4.595 11.093 4.595s8.153-1.654 11.093-4.595c2.942-2.941 4.596-6.934 4.596-11.094s-1.655-8.153-4.596-11.094c-2.939-2.941-6.933-4.595-11.093-4.595z"/>
      <path id="center" fill="#292929" d="M7.41 15.832c4.574-1.993 7.624-3.306 9.149-3.941 4.359-1.813 5.263-2.127 5.854-2.138 0.13-0.002 0.419 0.030 0.608 0.183 0.157 0.129 0.201 0.303 0.223 0.425 0.020 0.122 0.047 0.4 0.024 0.617-0.235 2.481-1.258 8.501-1.777 11.28-0.218 1.176-0.652 1.57-1.072 1.608-0.912 0.084-1.603-0.602-2.486-1.18-1.38-0.905-2.159-1.468-3.501-2.352-1.549-1.021-0.544-1.582 0.338-2.499 0.23-0.24 4.246-3.892 4.322-4.223 0.010-0.041 0.020-0.196-0.074-0.277-0.090-0.082-0.226-0.053-0.323-0.031-0.14 0.031-2.343 1.489-6.619 4.374-0.625 0.43-1.191 0.64-1.701 0.628-0.559-0.012-1.637-0.317-2.439-0.577-0.981-0.32-1.763-0.488-1.694-1.031 0.034-0.282 0.424-0.572 1.167-0.867z"/>
    </symbol>
    <symbol id="icon-vk" viewBox="0 0 32 32">
      <path d="M0.833 15.295c0-6.862 0-10.294 2.141-12.425s5.586-2.132 12.476-2.132h1.218c6.89 0 10.336 0 12.476 2.132s2.141 5.563 2.141 12.425v1.213c0 6.862 0 10.294-2.141 12.426s-5.586 2.132-12.476 2.132h-1.218c-6.89 0-10.336 0-12.476-2.132s-2.141-5.563-2.141-12.426v-1.213z"/>
      <path id="center2" fill="#262626" d="M17.036 22.586c-6.941 0-10.899-4.739-11.064-12.624h3.477c0.114 5.788 2.677 8.239 4.707 8.745v-8.745h3.274v4.992c2.005-0.215 4.111-2.489 4.821-4.992h3.274c-0.545 3.083-2.83 5.358-4.454 6.293 1.624 0.758 4.225 2.742 5.215 6.331h-3.603c-0.774-2.401-2.703-4.258-5.253-4.511v4.511h-0.393z"/>
    </symbol>
    <symbol id="icon-youtube" viewBox="0 0 43 32">
      <path d="M21.449 31.941h-0.043c-0.133 0-13.41-0.027-16.76-0.996-0.905-0.26-1.729-0.768-2.393-1.475-0.664-0.704-1.139-1.584-1.383-2.549-0.601-3.62-0.892-7.29-0.869-10.965-0.015-3.682 0.282-7.356 0.892-10.981 0.25-0.967 0.73-1.846 1.391-2.558 0.661-0.714 1.486-1.231 2.389-1.507 3.258-0.912 16.169-0.912 16.717-0.912h0.045c0.135 0 13.447 0.027 16.762 0.996 1.839 0.531 3.275 2.061 3.772 4.019 0.621 3.634 0.914 7.32 0.871 11.013 0.015 3.677-0.285 7.347-0.895 10.967-0.246 0.964-0.726 1.84-1.389 2.546-0.664 0.704-1.488 1.213-2.393 1.473-3.254 0.919-16.167 0.928-16.715 0.928zM17.168 9.13l-0.011 13.677 11.156-6.839-11.146-6.839z"/>
    </symbol>
    <symbol id="icon-11" viewBox="0 0 34 32">
      <path fill="#fff" style="fill: var(--color1, #fff)" d="M2.604 13.548v17.709l29.21 0.331v-18.205l-29.21 0.165z"/>
      <path fill="#0aa700" style="fill: var(--color2, #0aa700)" d="M4.333 13.606l-0.931-0.648-0.938 0.898 0.047 9.832 0.094 7.65 1.698 0.25 0.267-8.364-0.236-9.617z"/>
      <path fill="#0aa700" style="fill: var(--color2, #0aa700)" d="M4.117 29.687l-0.601 0.969 0.924 0.913 9.667 0.019c0.663-0.133 0.068-0.086 1.804-0.001l0.021-2.236-2.765-0-9.050 0.335z"/>
      <path fill="#0aa700" style="fill: var(--color2, #0aa700)" d="M5.971 13.607h-1.13l-0.272 1.278 5.532 8.077 4.852 6.39 1.429-0.663-4.598-7.604-5.814-7.477z"/>
      <path fill="#0aa700" style="fill: var(--color2, #0aa700)" d="M17.924 13.206l-0.933-0.646-0.936 0.9 0.074 9.832 0.451 8.050 1.549 0.269 0.435-8.907-0.64-9.498z"/>
      <path fill="#0aa700" style="fill: var(--color2, #0aa700)" d="M24.674 18.32l-6.224 9.338-0.16 1.693 0.956-0.058 10.971-14.446-0.81-2.032-4.732 5.504z"/>
      <path fill="#0aa700" style="fill: var(--color2, #0aa700)" d="M29.886 20.131l-0.017 11.218 1.171 0.238 0.773-0.353 0.254-17.244-1.826-1.173-0.356 7.314z"/>
      <path fill="#0aa700" style="fill: var(--color2, #0aa700)" d="M18.122 29.096v2.592l11.72 0.048v-2.664l-11.72 0.024z"/>
      <path fill="#0aa700" style="fill: var(--color2, #0aa700)" d="M4.466 29.133v2.592l11.72 0.048v-2.664l-11.72 0.024z"/>
      <path fill="#fff" style="fill: var(--color1, #fff)" d="M27.423 3.562v3.401l2.547 0.064v-3.497l-2.547 0.032z"/>
      <path fill="#0aa700" style="fill: var(--color2, #0aa700)" d="M1.727 11.109v2.196l30.67 0.041v-2.257l-30.67 0.021z"/>
      <path fill="#0aa700" style="fill: var(--color2, #0aa700)" d="M1.381 9.22l0.814 2.035 14.968-8.122-0.070-2.499-15.712 8.586z"/>
      <path fill="#0aa700" style="fill: var(--color2, #0aa700)" d="M33.009 9.257l-0.814 2.035-14.968-8.122 0.070-2.499 15.712 8.586z"/>
      <path fill="#fff" style="fill: var(--color1, #fff)" d="M17.282 3.227l-14.057 8.116 28.006-0.144-13.949-7.972z"/>
      <path fill="#0aa700" style="fill: var(--color2, #0aa700)" d="M19.901 6.468l-8.845 0.706-0.036 1.058-0.002 0.888 12.288 0.066 0.085-2.18-3.491-0.538z"/>
      <path fill="#0aa700" style="fill: var(--color2, #0aa700)" d="M26.018 10.981l-0.393-3.153-1.372-0.721-0.528 0.183-0.125 3.799 2.112-0 0.307-0.108z"/>
      <path fill="#0aa700" style="fill: var(--color2, #0aa700)" d="M11.018 10.981l-0.393-3.153 0.021-0.906-1.856 0.906-0.19 3.261 2.112-0 0.307-0.108z"/>
      <path fill="#000" style="fill: var(--color3, #000)" d="M15.72 26.205l-9.116-12.514h-0.994l10.11 14.026v3.275h0.912v-17.385h-0.912v12.598z"/>
      <path fill="#000" style="fill: var(--color3, #000)" d="M4.947 16.462l9.033 12.514h1.077l-10.11-14.026v1.512z"/>
      <path fill="#000" style="fill: var(--color3, #000)" d="M19.45 28.976h0.994l9.033-12.514 0.083-1.512-10.11 14.026z"/>
      <path fill="#000" style="fill: var(--color3, #000)" d="M28.897 13.691h-1.077l-9.116 12.598v-12.682h-0.829v17.385h0.829v-3.191l10.193-14.11z"/>
      <path fill="#000" style="fill: var(--color3, #000)" d="M23.759 7.392h-13.177l1.415-0.924h10.269l1.492 0.924z"/>
      <path fill="#000" style="fill: var(--color3, #000)" d="M11.080 8.652h12.265v0.924h-12.265v-0.924z"/>
      <path fill="#000" style="fill: var(--color3, #000)" d="M11.328 6.888v3.96l-0.931 0.029 0.019-3.485 0.912-0.504z"/>
      <path fill="#000" style="fill: var(--color3, #000)" d="M9.174 8.148v2.749l-0.82-0.019-0.009-2.31 0.829-0.42z"/>
      <path fill="#000" style="fill: var(--color3, #000)" d="M24.008 7.392l0.009 3.476h-0.921v-3.896l0.912 0.42z"/>
      <path fill="#000" style="fill: var(--color3, #000)" d="M26.162 8.652v2.255l-0.902-0.049-0.010-2.626 0.912 0.42z"/>
      <path fill="#000" style="fill: var(--color3, #000)" d="M32.958 9.576c0-0.588-0.249-1.008-0.829-1.344-0.994-0.588-1.989-1.092-2.983-1.68l-2.652-1.428c-2.818-1.596-5.635-3.191-8.453-4.703-0.166-0.084-0.249-0.168-0.414-0.252l-0.166-0.084h-0.414l-1.492 0.84c-1.077 0.588-2.238 1.176-3.315 1.848-1.16 0.672-2.32 1.344-3.563 2.016-2.072 1.176-4.061 2.268-6.132 3.359-0.58 0.336-0.912 0.672-1.077 1.176v3.695c0 0.084 0.083 0.084 0.083 0.168 0.083 0.168 0.249 0.252 0.331 0.42 0.083 0.084 0.083 0.252 0.083 0.42v16.713c0 0.672 0.249 1.008 0.746 1.26h28.922c0.497-0.168 0.746-0.588 0.746-1.26v-16.629c0-0.252 0.083-0.504 0.249-0.672s0.249-0.42 0.249-0.672c0.083-1.092 0.083-2.184 0.083-3.191zM17.129 3.613l12.762 7.223h-25.441l12.679-7.223zM2.295 10.919v-1.344c0-0.336 0.249-0.504 0.497-0.588 1.657-0.924 3.232-1.764 4.889-2.688l8.701-4.871c0.083 0 0.166-0.084 0.249-0.084l0.249-0.168v1.596c0 0.168-0.249 0.336-0.249 0.336-2.652 1.428-5.221 2.856-7.79 4.283l-2.652 1.512c-1.077 0.588-2.072 1.176-3.149 1.764-0.166 0.084-0.249 0.084-0.414 0.168-0.083 0-0.166 0-0.249 0.084h-0.083zM4.118 31.16h-1.243v-17.385h1.243v17.385zM15.72 31.16h-10.773v-1.26h10.773v1.26zM29.477 31.16h-10.773v-1.26h10.773v1.26zM29.477 28.976h-11.602v2.184h-1.243v-2.184h-11.685v-15.285h24.53v15.285zM31.549 31.16h-1.243v-17.385h1.243v17.385zM32.129 12.935h-29.834v-1.26h29.834v1.26zM32.129 10.751v0.168l-0.166-0.084c-0.083 0-0.166-0.084-0.249-0.084-0.166 0-0.249-0.084-0.414-0.168-2.403-1.344-4.807-2.688-7.21-4.031-2.072-1.176-4.144-2.352-6.215-3.527-0.166-0.084-0.331-0.168-0.331-0.504v-1.512l0.249 0.168c0.083 0 0.166 0.084 0.166 0.084l3.315 1.848c3.398 1.932 6.795 3.779 10.276 5.711 0.414 0.252 0.58 0.504 0.497 0.84v0.588c0.083 0.252 0.083 0.42 0.083 0.504z"/>
      <path fill="#000" style="fill: var(--color3, #000)" d="M30.389 7.644l-0.965-0.155-0.029-3.372h-1.74v1.735l-0.994-0.223v-2.352h3.729v4.367z"/>
      <path fill="#000" style="fill: var(--color3, #000)" d="M29.228 2.521c-0.249 0-0.414-0.168-0.414-0.42v-2.52c0-0.252 0.166-0.42 0.414-0.42s0.414 0.168 0.414 0.42v2.52c0 0.252-0.166 0.42-0.414 0.42z"/>
      <path fill="#000" style="fill: var(--color3, #000)" d="M27.902 2.857c-0.166 0-0.331-0.168-0.331-0.336v-1.26c0-0.168 0.166-0.336 0.331-0.336s0.331 0.168 0.331 0.336v1.26c0 0.168-0.166 0.336-0.331 0.336z"/>
    </symbol>
    <symbol id="icon-12" viewBox="0 0 34 32">
      <path fill="#0aa700" style="fill: var(--color2, #0aa700)" d="M5.241 14.194l0.037 4.178c0 0-0.908-0.036-1.053 1.012s0.218 1.265 0.836 1.481l0.181 2.38c0 0-1.235 1.198-1.126 1.812s0.836 1.265 1.053 1.59c0.219 0.325 0.037 2.348 0.037 2.348s-1.163 0.275-0.981 1.627c0.182 1.351 0.872 1.243 0.872 1.243l24.050-0.109c0 0 1.635-0.939 0.327-2.529l-1.239-0.217 0.367-2.385c0 0 3.378-1.084 0.145-2.964l-0.512-2.457c0 0 3.884-1.3 0-2.855v-4.156l-11.026-8.238-11.966 8.238z"/>
      <path fill="#fff" style="fill: var(--color1, #fff)" d="M13.965 21.315v10.524l6.494-0.045v-10.705l-6.494 0.226z"/>
      <path fill="#fff" style="fill: var(--color1, #fff)" d="M24.827 5.67v3.85l3.151-0.016v-3.916l-3.151 0.083z"/>
      <path fill="#000" style="fill: var(--color3, #000)" d="M29.088 27.112c0.427-0.255 0.854-0.425 1.111-0.765 0.94-0.935 0.427-2.55-0.854-2.975-0.171 0-0.256-0.17-0.256-0.34v-1.275c0.427-0.17 0.769-0.34 1.025-0.595 1.111-1.020 0.684-2.72-0.684-3.145h-0.427v-3.825h-1.111v0.85h-6.152c-0.342 0-0.513 0.255-0.513 0.51 0 0.34 0.256 0.51 0.513 0.51h6.152v1.87c-4.528 0-17.858-0.085-22.044 0v-1.785h6.152c0.342 0 0.513-0.255 0.513-0.51 0-0.34-0.256-0.51-0.513-0.51h-6.152v-0.85h-1.111v3.825c-0.256 0.085-0.427 0.17-0.598 0.34-0.684 0.85-0.598 2.125 0.427 2.805 0.085 0 0.171 0.17 0.171 0.255v1.615c0 0.085-0.085 0.17-0.171 0.255-1.196 0.85-1.196 2.38 0 3.23 0.085 0.085 0.171 0.255 0.171 0.34v1.615c0 0.085-0.085 0.17-0.171 0.255-0.684 0.425-1.025 1.020-0.854 1.87 0.085 0.765 0.598 1.275 1.367 1.53l0.085 0.085h24.009c0.427-0.17 0.94-0.425 1.196-0.85 0.684-1.020 0.171-2.465-1.025-2.805-0.085 0-0.171-0.085-0.256-0.085v-1.445zM28.063 27.027v1.53h-6.835v1.105h7.434c0.342 0 0.598 0 0.769 0.255 0.171 0.17 0.256 0.51 0.171 0.765-0.085 0.34-0.342 0.595-0.684 0.595h-23.155c-0.513 0-0.854-0.255-0.94-0.595-0.171-0.34 0.085-0.85 0.513-1.020h7.861v-1.105h-7.348v-1.53h7.348v-1.105h-7.519c-0.085 0-0.256 0-0.427-0.085-0.342-0.085-0.598-0.51-0.513-0.85s0.427-0.68 0.769-0.68h7.69v-1.020h-7.348v-1.615h7.348v-1.19h-7.434c-0.342 0-0.598 0-0.854-0.34-0.342-0.425-0.085-1.105 0.513-1.19h11.791c3.845 0 7.604 0.085 11.364 0 0.342 0 0.684 0.085 0.854 0.425 0.171 0.425 0.085 1.020-0.513 1.105h-7.69v1.19h6.835v1.615h-6.835v1.020h7.604c0.513 0 0.854 0.255 0.94 0.595 0.085 0.425-0.171 0.935-0.598 1.020h-7.946v1.105h6.835z"/>
      <path fill="#000" style="fill: var(--color3, #000)" d="M7.899 13.004h4.101c0.342 0 0.513-0.255 0.513-0.51 0-0.34-0.256-0.51-0.513-0.51h-4.101c-0.342 0-0.513 0.255-0.513 0.51s0.256 0.51 0.513 0.51z"/>
      <path fill="#000" style="fill: var(--color3, #000)" d="M21.74 13.004h4.101c0.342 0 0.513-0.255 0.513-0.51 0-0.34-0.256-0.51-0.513-0.51h-4.101c-0.342 0-0.513 0.255-0.513 0.51s0.256 0.51 0.513 0.51z"/>
      <path fill="#000" style="fill: var(--color3, #000)" d="M28.234 9.519h-1.025v-3.57h-1.794v1.53h-1.025v-2.38h3.845v4.42z"/>
      <path fill="#fff" style="fill: var(--color1, #fff)" d="M1.827 12.771c-0.618 0.542-0.385 3.108 1.841 2.566s13.539-9.323 13.539-9.323l13.54 9.757c0 0 3.23 0.181 1.922-2.349l-15.462-11.6c0 0-14.763 10.407-15.381 10.949z"/>
      <path fill="#000" style="fill: var(--color3, #000)" d="M21.265 31.391h-1.148v-9.888h-5.81v9.878l-1.14 0.009 0.029-10.908h8.032l0.038 10.908z"/>
      <path fill="#000" style="fill: var(--color3, #000)" d="M15.674 27.112c0.331 0 0.598-0.266 0.598-0.595s-0.267-0.595-0.598-0.595c-0.331 0-0.598 0.266-0.598 0.595s0.267 0.595 0.598 0.595z"/>
      <path fill="#000" style="fill: var(--color3, #000)" d="M17.297 1.275c-0.598 0.425-1.111 0.765-1.709 1.19-4.358 3.060-8.801 6.119-13.158 9.179-0.684 0.425-1.282 0.935-1.453 1.785v0.595c0.171 0.51 0.342 1.020 0.854 1.275 0.769 0.595 1.623 0.595 2.478 0.085 0.085-0.085 7.861-5.269 8.459-5.694 0.342-0.255 0.684-0.34 1.025-0.34h6.75c0.171 0 0.342 0.085 0.513 0.17 0.513 0.425 8.459 6.204 8.715 6.374 0.684 0.51 1.367 0.68 2.136 0.425s1.282-0.85 1.453-1.615l0.085-0.085v-0.68c-0.171-0.85-0.684-1.36-1.367-1.785-0.684-0.51-12.133-8.924-14.782-10.879zM5.677 14.874v0zM14.99 8.159c0.085-0.085 0.085-0.085 0.171-0.085 0.598-0.425 1.282-0.85 1.88-1.275 0-0.085 0.171-0.085 0.256-0.085 0.684 0.51 1.367 1.020 1.965 1.53h-4.187l-0.085-0.085zM32.335 14.534c-0.171 0.51-0.598 0.765-1.111 0.85-0.256-0.17-0.513-0.255-0.854-0.51-3.161-2.21-6.237-4.505-9.399-6.799-1.111-0.85-2.307-1.7-3.503-2.55-0.256-0.17-0.342-0.17-0.598 0-4.272 2.975-8.63 5.949-12.902 8.924-0.171 0.17-0.342 0.255-0.598 0.34-0.513 0.085-1.025-0.17-1.196-0.595-0.256-0.51-0.085-1.020 0.342-1.36 1.282-0.935 2.478-1.785 3.76-2.635 3.589-2.465 7.177-5.014 10.68-7.479 0.256-0.17 0.342-0.17 0.598 0 4.699 3.485 9.484 7.054 14.269 10.539 0.513 0.425 0.684 0.765 0.513 1.275z"/>
      <path fill="#fff" style="fill: var(--color1, #fff); stroke: var(--color3, #000)" stroke="#000" stroke-linejoin="round" stroke-linecap="round" stroke-miterlimit="1.5" stroke-width="0.4848" d="M14.487 10.971h5.45l-0.045 5.263h-5.45l0.045-5.263z"/>
      <path fill="#000" style="fill: var(--color3, #000)" d="M13.965 10.454v6.374h6.494v-6.374h-6.494zM16.614 11.474v1.615h-1.538v-1.615h1.538zM16.614 15.809h-1.538v-1.615h1.538v1.615zM17.81 15.809v-1.615h1.538v1.615h-1.538zM19.348 13.089h-1.538v-1.615h1.538v1.615z"/>
      <path fill="#000" style="fill: var(--color3, #000)" d="M27.038 4.335c-0.256 0-0.427-0.17-0.427-0.425v-2.55c0-0.255 0.171-0.425 0.427-0.425s0.427 0.17 0.427 0.425v2.55c0 0.255-0.171 0.425-0.427 0.425z"/>
      <path fill="#000" style="fill: var(--color3, #000)" d="M25.671 2.125c-0.171 0-0.342-0.17-0.342-0.34v-1.275c0-0.17 0.171-0.34 0.342-0.34s0.342 0.17 0.342 0.34v1.275c0 0.17-0.171 0.34-0.342 0.34z"/>
    </symbol>
    <symbol id="icon-13" viewBox="0 0 34 32">
      <path fill="#0aa700" style="fill: var(--color2, #0aa700)" d="M10.654 24.582c0 0 3.735 5.988 11.323 4.435l4.5 2.306 0.309-4.522c0 0 9.662-8.389 0.309-16.392 0 0-15.345-2.097-16.441 14.173z"/>
      <path fill="#fff" style="fill: var(--color1, #fff)" d="M3.447 8.103c0 0-1.913 7.001 3.19 12.718l0.511 4.576 4.040-2.013c0 0 12.679 2.348 14.878-8.025 3.227-4.752-4.43-19.297-17.124-12.488-1.816 0.974-3.356 3.45-5.495 5.232z"/>
      <path fill="#000" style="fill: var(--color3, #000)" d="M26.21 31.948c-0.539-0.009-1.301-0.502-2.365-1.317-0.609-0.41-1.521-1.143-1.829-1.148-0.851 0.224-1.777 0.288-2.701 0.272-3.388-0.058-6.52-1.548-8.711-4.058-0.151-0.163-0.146-0.482 0.011-0.638s0.465-0.151 0.616 0.011c2.040 2.348 5.021 3.676 8.101 3.729 0.847 0.014 1.772-0.049 2.623-0.275 0.541-0.149 1.302 0.421 2.519 1.32 0.532 0.408 1.521 1.142 1.829 1.148 0.159-0.237 0.023-1.356 0.034-1.994-0.134-1.198-0.191-2.317 0.354-2.706 2.421-1.952 3.781-4.879 3.832-7.91 0.048-2.791-1.024-5.52-2.993-7.548-0.151-0.162-0.983-0.87-1.080-1.069-0.281-0.574 0.883-0.239 1.745 0.601 2.184 2.125 3.225 5.081 3.175 8.031-0.056 3.35-1.573 6.434-4.151 8.543-0.158 0.237-0.099 1.274-0.034 1.994 0.131 1.359 0.188 2.555-0.511 2.862-0.234 0.156-0.311 0.154-0.465 0.152z"/>
      <path fill="#848484" style="fill: var(--color4, #848484)" d="M14.805 14.247c1.101 0 1.992-0.896 1.992-2.003s-0.892-2.003-1.992-2.003c-1.1 0-1.992 0.897-1.992 2.003s0.892 2.003 1.992 2.003z"/>
      <path fill="#848484" style="fill: var(--color4, #848484)" d="M8.661 14.414c1.1 0 1.992-0.896 1.992-2.003s-0.892-2.003-1.992-2.003c-1.101 0-1.992 0.897-1.992 2.003s0.892 2.003 1.992 2.003z"/>
      <path fill="#848484" style="fill: var(--color4, #848484)" d="M20.865 14.414c1.101 0 1.992-0.896 1.992-2.003s-0.892-2.003-1.992-2.003c-1.1 0-1.992 0.897-1.992 2.003s0.892 2.003 1.992 2.003z"/>
      <path fill="#000" style="fill: var(--color3, #000)" d="M7.566 26.801c-0.164 0-0.326 0-0.489-0.082-0.978-0.492-0.815-1.802-0.652-3.276 0.081-0.573 0.164-1.475 0.081-1.803-2.689-2.293-4.237-5.57-4.237-9.093 0-6.717 5.704-12.124 12.631-12.124 7.008 0 12.631 5.407 12.631 12.124s-5.704 12.124-12.631 12.124c-0.978 0-1.956-0.082-2.934-0.327-0.325 0.082-1.222 0.655-1.711 1.065-1.141 0.737-1.956 1.392-2.689 1.392zM14.819 1.98c-6.112 0-11.083 4.752-11.083 10.567 0 3.031 1.386 5.898 3.748 7.946 0.652 0.573 0.571 1.72 0.408 3.113-0.081 0.41-0.081 1.147-0.081 1.556 0.408-0.245 1.059-0.655 1.467-0.983 1.303-0.901 2.2-1.475 2.934-1.31 0.897 0.164 1.792 0.327 2.689 0.327 6.112 0 11.083-4.751 11.083-10.567s-5.052-10.649-11.164-10.649z"/>
    </symbol>
    <symbol id="icon-21" viewBox="0 0 34 32">
      <path fill="#0aa700" style="fill: var(--color2, #0aa700)" d="M6.482 16.93l10.311-8.46 10.348 8.103-0.044 14.782-20.704-0.133 0.090-14.292z"/>
      <path fill="#fff" style="fill: var(--color1, #fff)" d="M3.766 15.104l1.781 1.959 11.22-9.083 11.041 8.771 1.737-1.781-12.752-10.062-13.027 10.196z"/>
      <path fill="#fff" style="fill: var(--color1, #fff)" d="M23.763 6.891h2.444l0.066 5.897h-2.504l-0.005-5.897z"/>
      <path fill="#000" style="fill: var(--color3, #000)" d="M26.591 30.798v-0.291c0 0.985 0 2.043 0 0.516v-0.219c0-0.291 0.219 0.256 0.509 0.256s0.509-0.62 0.509-0.256c0 0.655 0-1.204 0-0.549 0 1.019 0-0.476 0 0.542h2.181c0.436 0 0.653 0.146 0.726 0.436 0.073 0.219-0.073 0.437-0.364 0.655h-27.181v-0.727c0.146-0.292 0.436-0.364 0.727-0.364h2.18v-13.313c-0.508 0.219-0.581 0.219-0.945-0.218-0.291-0.292-0.581-0.582-0.872-0.873-0.363-0.364-0.653-0.728-1.017-1.092-0.073-0.073-0.073-0.218-0.073-0.291 0.146-0.146 0.291-0.292 0.436-0.436 4.288-3.347 8.576-6.766 12.936-10.112 0.364-0.292 0.509-0.292 0.872 0 1.817 1.382 3.561 2.765 5.378 4.219 0.073 0.073 0.218 0.146 0.291 0.219v-2.037c0-0.364 0.218-0.581 0.581-0.581h3.053c0.363 0 0.581 0.218 0.581 0.654v5.020c0 0.219 0.072 0.292 0.218 0.436 0.945 0.728 1.89 1.455 2.907 2.255 0.509 0.364 0.509 0.655 0.073 1.092-0.509 0.509-1.090 1.092-1.599 1.601-0.291 0.291-0.581 0.509-1.017 0.145v13.435c0 0.364-0.219 0.582-0.509 0.582s-0.509-0.219-0.509-0.582v-14.017c0-0.145-0.073-0.291-0.145-0.364-3.198-2.473-6.396-5.020-9.594-7.493 0 0-0.073 0-0.073-0.073-0.654 0.509-1.381 1.019-2.035 1.6-2.543 1.964-5.015 3.929-7.558 5.894-0.146 0.072-0.219 0.145-0.219 0.364v13.968h19.55zM5.514 16.321c0.073-0.073 0.146-0.073 0.219-0.146 3.488-2.765 7.050-5.529 10.538-8.221 0.436-0.291 0.581-0.291 0.945 0 3.488 2.765 7.050 5.529 10.538 8.221 0.073 0.073 0.146 0.146 0.219 0.146 0.436-0.436 0.799-0.8 1.163-1.164-4.070-3.201-8.213-6.475-12.356-9.676-4.143 3.274-8.285 6.475-12.428 9.676 0.436 0.436 0.8 0.801 1.163 1.164zM23.974 7.372v2.328c0 0.073 0.073 0.146 0.146 0.219 0.581 0.436 1.163 0.873 1.671 1.309 0.073 0.073 0.146 0.073 0.146 0.073v-4.002c-0.581 0.073-1.236 0.073-1.963 0.073z"/>
      <path fill="#fff" style="fill: var(--color1, #fff)" d="M18.376 18.067h4.742l0.127 5.181-4.814-0.091-0.054-5.090z"/>
      <path fill="#fff" style="fill: var(--color1, #fff)" d="M10.807 21.896h4.742l0.127 9.459h-4.859l-0.010-9.459z"/>
      <path fill="#000" style="fill: var(--color3, #000)" d="M25.59 4.244c-0.251 0-0.419-0.171-0.419-0.427v-2.565c0-0.256 0.168-0.427 0.419-0.427s0.419 0.171 0.419 0.427v2.565c0 0.256-0.168 0.427-0.419 0.427z"/>
      <path fill="#000" style="fill: var(--color3, #000)" d="M24.249 2.021c-0.168 0-0.335-0.171-0.335-0.342v-1.283c0-0.171 0.168-0.342 0.335-0.342s0.335 0.171 0.335 0.342v1.283c0 0.171-0.168 0.342-0.335 0.342z"/>
      <path fill="#000" style="fill: var(--color3, #000)" d="M27.851 30.717h-11.561v-8.88c0-0.168-0.168-0.335-0.335-0.335h-5.194c-0.168 0-0.335 0.168-0.335 0.335v8.88h-3.016zM6.393 30.698l-4.416-0.041c-0.335 0-0.682 0.311-0.682 0.73s0.335 0.67 0.67 0.67h30.578c0.335 0 0.67-0.251 0.67-0.67s-0.329-0.628-0.664-0.628l-3.764-0.030zM11.18 22.255h4.44v8.461l-4.44-0.004v-8.457z"/>
      <path fill="#000" style="fill: var(--color3, #000)" d="M15.034 25.104h-1.927c-0.168 0-0.251 0.084-0.251 0.251s0.084 0.251 0.251 0.251h1.927c0.168 0 0.251-0.084 0.251-0.251s-0.084-0.251-0.251-0.251z"/>
      <path fill="#000" style="fill: var(--color3, #000)" d="M23.244 17.648h-4.859c-0.168 0-0.335 0.168-0.335 0.335v5.278c0 0.168 0.168 0.335 0.335 0.335h4.859c0.168 0 0.335-0.168 0.335-0.335v-5.278c0-0.168-0.168-0.335-0.335-0.335zM18.72 18.402h1.759v4.608h-1.759v-4.608zM22.825 23.009h-1.675v-4.608h1.675v4.608z"/>
    </symbol>
    <symbol id="icon-22" viewBox="0 0 34 32">
      <path fill="#fff" style="fill: var(--color1, #fff)" d="M2.926 13.501l1.681 1.681 12.605-9.244 12.605 10.084 1.681-2.521-14.286-10.924-14.286 10.924z"/>
      <path fill="#0aa700" style="fill: var(--color2, #0aa700)" d="M5.822 14.804l0.115 16.486 22.619 0.116-0.058-16.255-11.396-9.082-11.281 8.735z"/>
      <path fill="#fff" style="fill: var(--color1, #fff)" d="M24.488 4.808h3.339l0.093 5.594-3.471-2.492 0.040-3.102z"/>
      <path fill="#fff" style="fill: var(--color1, #fff)" d="M9.092 15.757l0.178 2.902 5.213 0.060v-3.139l-5.391 0.177z"/>
      <path fill="#fff" style="fill: var(--color1, #fff)" d="M19.073 15.875l0.178 2.902 5.213 0.060v-3.139l-5.391 0.177z"/>
      <path fill="#fff" style="fill: var(--color1, #fff)" d="M19.133 23.724l0.178 2.902 5.213 0.060v-3.139l-5.391 0.177z"/>
      <path fill="#fff" style="fill: var(--color1, #fff)" d="M9.773 21.434l-0.049 9.51 4.64 0.186v-9.774l-4.591 0.078z"/>
      <path fill="#000" style="fill: var(--color3, #000)" d="M27.934 30.794v-0.319c0 0.85 0 1.778 0 0.106 0-0.079 0 0.681 0 0.602 0-0.319 0.238-0.637 0.556-0.637s0.557 0.239 0.557 0.637c0 0.717 0 1.433 0-0.371 0 1.114 0-1.132 0-0.018h2.386c0.477 0 0.716 0.159 0.795 0.477 0.080 0.239-0.079 0.478-0.397 0.717h-29.745v-0.796c0.159-0.319 0.477-0.398 0.795-0.398h2.387v-14.569c-0.557 0.239-0.636 0.239-1.034-0.239-0.318-0.319-0.636-0.637-0.954-0.955-0.398-0.398-0.716-0.796-1.113-1.194-0.080-0.080-0.080-0.239-0.080-0.319 0.159-0.159 0.319-0.319 0.477-0.477 4.692-3.662 9.385-7.404 14.156-11.066 0.397-0.319 0.557-0.319 0.955 0 1.988 1.513 3.897 3.025 5.885 4.618 0.080 0.080 0.239 0.159 0.319 0.239v-2.229c0-0.398 0.239-0.637 0.636-0.637h3.34c0.397 0 0.636 0.239 0.636 0.716v5.493c0 0.239 0.080 0.319 0.239 0.478 1.034 0.796 2.068 1.592 3.182 2.467 0.556 0.398 0.556 0.717 0.079 1.194-0.556 0.558-1.192 1.195-1.75 1.752-0.318 0.319-0.636 0.557-1.113 0.159v14.702c0 0.398-0.239 0.637-0.556 0.637s-0.557-0.239-0.557-0.637v-15.339c0-0.159-0.079-0.319-0.159-0.397-3.499-2.707-6.999-5.493-10.498-8.2 0 0-0.079 0-0.079-0.080-0.716 0.557-1.512 1.114-2.227 1.751-2.784 2.15-5.488 4.299-8.271 6.449-0.159 0.080-0.239 0.159-0.239 0.398v15.285h21.394zM4.869 14.951c0.080-0.079 0.16-0.079 0.239-0.159 3.818-3.025 7.715-6.050 11.532-8.996 0.477-0.319 0.637-0.319 1.034 0 3.818 3.025 7.714 6.050 11.532 8.996 0.079 0.080 0.159 0.159 0.239 0.159 0.477-0.477 0.875-0.876 1.272-1.273-4.454-3.503-8.987-7.086-13.52-10.588-4.534 3.582-9.066 7.085-13.6 10.588 0.477 0.477 0.875 0.876 1.272 1.273zM25.070 5.16v2.547c0 0.080 0.080 0.16 0.16 0.239 0.636 0.478 1.272 0.955 1.829 1.434 0.079 0.080 0.159 0.080 0.159 0.080v-4.379c-0.636 0.080-1.352 0.080-2.148 0.080z"/>
      <path fill="#000" style="fill: var(--color3, #000)" d="M26.678 30.847h-12.142v-9.457c0-0.163-0.164-0.326-0.328-0.326h-4.43c-0.164 0-0.328 0.163-0.328 0.326v9.457h-2.544zM5.922 30.847h-4.103c-0.328 0-0.574 0.245-0.574 0.571s0.246 0.571 0.574 0.571h29.945c0.328 0 0.574-0.245 0.574-0.571s-0.329-0.571-0.574-0.571h-4.103zM10.106 21.716h3.773v9.131h-3.773v-9.131z"/>
      <path fill="#000" style="fill: var(--color3, #000)" d="M24.524 15.181h-5.378c-0.252 0-0.42 0.252-0.42 0.42v3.193c0 0.252 0.252 0.42 0.42 0.42h5.378c0.252 0 0.42-0.252 0.42-0.42v-3.109c0.084-0.252-0.084-0.504-0.42-0.504zM19.566 16.106h1.849v2.269h-1.849v-2.269zM24.272 18.375h-1.933v-2.269h1.933v2.269z"/>
      <path fill="#000" style="fill: var(--color3, #000)" d="M24.524 23.249h-5.378c-0.252 0-0.42 0.252-0.42 0.42v3.109c0 0.252 0.252 0.42 0.42 0.42h5.378c0.252 0 0.42-0.252 0.42-0.42v-3.109c0.084-0.252-0.084-0.42-0.42-0.42zM19.566 24.089h1.849v2.269h-1.849v-2.269zM24.272 26.358h-1.933v-2.269h1.933v2.269z"/>
      <path fill="#000" style="fill: var(--color3, #000)" d="M14.607 15.181h-5.378c-0.252 0-0.42 0.252-0.42 0.42v3.193c0 0.252 0.252 0.42 0.42 0.42h5.378c0.252 0 0.42-0.252 0.42-0.42v-3.109c0-0.252-0.084-0.504-0.42-0.504zM9.649 16.106h1.849v2.269h-1.849v-2.269zM14.271 18.375h-1.933v-2.269h1.933v2.269z"/>
      <path fill="#282828" style="fill: var(--color5, #282828)" d="M13.515 25.181h-1.933c-0.168 0-0.252 0.084-0.252 0.252s0.084 0.252 0.252 0.252h1.933c0.168 0 0.252-0.084 0.252-0.252s-0.084-0.252-0.252-0.252z"/>
      <path fill="#000" style="fill: var(--color3, #000)" d="M27.296 3.417c-0.252 0-0.42-0.129-0.42-0.324v-1.943c0-0.194 0.168-0.324 0.42-0.324s0.42 0.129 0.42 0.324v1.943c0 0.194-0.168 0.324-0.42 0.324z"/>
      <path fill="#000" style="fill: var(--color3, #000)" d="M25.952 2.028c-0.168 0-0.336-0.171-0.336-0.343v-1.287c0-0.171 0.168-0.343 0.336-0.343s0.336 0.171 0.336 0.343v1.287c0 0.171-0.168 0.343-0.336 0.343z"/>
    </symbol>
    <symbol id="icon-23" viewBox="0 0 34 32">
      <path fill="#fff" style="fill: var(--color1, #fff)" d="M9.842 8.756l7.183-8.065 7.016 8.181-14.199-0.116z"/>
      <path fill="#0aa700" style="fill: var(--color2, #0aa700)" d="M11.679 9.452l-0.278 21.583h11.081l0.279-21.467-11.082-0.116z"/>
      <path fill="#0aa700" style="fill: var(--color2, #0aa700)" d="M22.84 12.411l-0.191 18.914h7.605l0.192-18.812-7.605-0.102z"/>
      <path fill="#0aa700" style="fill: var(--color2, #0aa700)" d="M3.74 12.991l-0.191 18.45h7.605l0.191-18.351-7.605-0.099z"/>
      <path fill="#fff" style="fill: var(--color1, #fff)" d="M22.868 13.151l-0.322-6.147 3.277-0.163 5.902 6.383-8.857-0.072z"/>
      <path fill="#fff" style="fill: var(--color1, #fff)" d="M11.357 13.093l0.322-6.147-3.277-0.163-5.902 6.383 8.857-0.072z"/>
      <path fill="#fff" style="fill: var(--color1, #fff)" d="M21.703 3.882l0.167 2.611 2.45 0.29 0.056-3.016-2.673 0.115z"/>
      <path fill="#fff" style="fill: var(--color1, #fff)" d="M14.687 12.701l-0.227 2.669 5.406 0.232 0.11-3.016-5.289 0.115z"/>
      <path fill="#fff" style="fill: var(--color1, #fff)" d="M15.020 20.496l0.017 10.169 4.339 0.254 0.099-10.268-4.455-0.155z"/>
      <path fill="#fff" style="fill: var(--color1, #fff)" d="M24.654 15.39l0.013 2.075 3.254 0.052 0.074-2.095-3.341-0.032z"/>
      <path fill="#fff" style="fill: var(--color1, #fff)" d="M24.709 20.495l0.013 2.075 3.254 0.052 0.074-2.095-3.341-0.032z"/>
      <path fill="#fff" style="fill: var(--color1, #fff)" d="M6 20.379l0.013 2.075 3.254 0.052 0.074-2.095-3.341-0.032z"/>
      <path fill="#fff" style="fill: var(--color1, #fff)" d="M6.055 15.39l0.013 2.075 3.254 0.052 0.074-2.095-3.341-0.032z"/>
      <path fill="#000" style="fill: var(--color3, #000)" d="M32.371 12.512l-6.010-6.169c-0.112-0.115-0.263-0.182-0.421-0.185h-3.543l-4.942-5.9c-0.055-0.063-0.122-0.115-0.197-0.149s-0.157-0.053-0.239-0.053c-0.082 0-0.163 0.019-0.239 0.053s-0.142 0.086-0.198 0.149l-5.031 5.9h-3.058c-0.16 0.002-0.314 0.068-0.429 0.185l-6.010 6.169c-0.095 0.101-0.163 0.228-0.192 0.367s-0.022 0.283 0.023 0.417c0.036 0.138 0.113 0.26 0.221 0.349s0.241 0.137 0.378 0.14h0.914v17.404c-0.009 0.185 0.053 0.365 0.171 0.502s0.284 0.22 0.46 0.231h26.175c0.177-0.011 0.342-0.094 0.46-0.231s0.18-0.318 0.171-0.502v-17.404h1.108c0.138-0.003 0.27-0.051 0.379-0.14s0.185-0.211 0.22-0.349c0.045-0.134 0.053-0.279 0.023-0.417s-0.097-0.265-0.193-0.367zM21.912 10.169v20.463h-9.787v-20.463h9.787zM10.863 13.785v16.856h-6.196v-16.856h6.196zM23.182 10.169h1.31c0.134-0.003 0.264-0.051 0.37-0.136s0.184-0.202 0.221-0.336c0.045-0.133 0.055-0.276 0.028-0.414s-0.090-0.266-0.182-0.37l-1.197-1.273h1.957l4.586 4.703h-7.094v-2.174zM22.915 8.711h-11.931l6.034-6.919 5.897 6.919zM8.792 9.697c0.039 0.136 0.118 0.255 0.226 0.341s0.238 0.136 0.373 0.14h1.472v2.149h-6.714l4.586-4.686h1.424l-1.205 1.273c-0.092 0.104-0.155 0.231-0.184 0.369s-0.020 0.281 0.023 0.415zM29.564 13.785v16.856h-6.382v-16.856h6.382z"/>
      <path fill="#000" style="fill: var(--color3, #000)" d="M24.912 6.209l-0.985-0.016v-1.924h-1.699v2.36h-0.971v-3.203h3.64l0.015 2.783z"/>
      <path fill="#000" style="fill: var(--color3, #000)" d="M23.684 2.584c-0.243 0-0.404-0.103-0.404-0.258v-1.548c0-0.155 0.162-0.258 0.404-0.258s0.404 0.103 0.404 0.258v1.548c0 0.155-0.162 0.258-0.404 0.258z"/>
      <path fill="#000" style="fill: var(--color3, #000)" d="M22.389 1.242c-0.162 0-0.324-0.103-0.324-0.206v-0.774c0-0.104 0.162-0.206 0.324-0.206s0.324 0.103 0.324 0.206v0.774c0 0.104-0.162 0.206-0.324 0.206z"/>
      <path fill="#000" style="fill: var(--color3, #000)" d="M26.544 30.849h-6.48v-10.214c0-0.176-0.175-0.352-0.35-0.352h-4.725c-0.176 0-0.35 0.176-0.35 0.352v10.214h-7.566zM6.022 30.849h-3.566c-0.349 0-0.612 0.265-0.612 0.617s0.263 0.616 0.612 0.616h29.513c0.35 0 0.612-0.264 0.612-0.616s-0.35-0.617-0.612-0.617h-4.375zM15.338 20.987h4.026v9.862h-4.026v-9.862z"/>
      <path fill="#000" style="fill: var(--color3, #000)" d="M27.971 15.226h-3.258c-0.153 0-0.255 0.159-0.255 0.265v2.015c0 0.159 0.153 0.265 0.255 0.265h3.258c0.153 0 0.254-0.159 0.254-0.265v-1.962c0.051-0.159-0.051-0.319-0.254-0.319zM24.967 15.809h1.12v1.433h-1.12v-1.433zM27.819 17.242h-1.171v-1.433h1.171v1.433z"/>
      <path fill="#000" style="fill: var(--color3, #000)" d="M27.971 20.318h-3.258c-0.153 0-0.255 0.159-0.255 0.265v1.962c0 0.159 0.153 0.265 0.255 0.265h3.258c0.153 0 0.254-0.159 0.254-0.265v-1.962c0.051-0.159-0.051-0.265-0.254-0.265zM24.967 20.848h1.12v1.433h-1.12v-1.433zM27.819 22.281h-1.171v-1.433h1.171v1.433z"/>
      <path fill="#000" style="fill: var(--color3, #000)" d="M9.401 15.226h-3.258c-0.153 0-0.255 0.159-0.255 0.265v2.015c0 0.159 0.153 0.265 0.255 0.265h3.258c0.152 0 0.254-0.159 0.254-0.265v-1.962c0.051-0.159-0.051-0.319-0.254-0.319zM6.397 15.809h1.12v1.433h-1.12v-1.433zM9.248 17.242h-1.171v-1.433h1.171v1.433z"/>
      <path fill="#000" style="fill: var(--color3, #000)" d="M9.401 20.318h-3.258c-0.153 0-0.255 0.159-0.255 0.265v1.962c0 0.159 0.153 0.265 0.255 0.265h3.258c0.152 0 0.254-0.159 0.254-0.265v-1.962c0.051-0.159-0.051-0.265-0.254-0.265zM6.397 20.848h1.12v1.433h-1.12v-1.433zM9.248 22.281h-1.171v-1.433h1.171v1.433z"/>
      <path fill="#000" style="fill: var(--color3, #000)" d="M20.010 11.855h-5.596c-0.263 0-0.438 0.264-0.438 0.439v3.336c0 0.264 0.262 0.439 0.438 0.439h5.596c0.263 0 0.438-0.263 0.438-0.439v-3.248c0-0.263-0.087-0.527-0.438-0.527zM14.851 12.82h1.924v2.37h-1.924v-2.37zM19.661 15.19h-2.011v-2.37h2.011v2.37z"/>
      <path fill="#000" style="fill: var(--color3, #000)" d="M18.58 24.497h-1.925c-0.167 0-0.251 0.141-0.251 0.421s0.083 0.421 0.251 0.421h1.925c0.167 0 0.251-0.141 0.251-0.421s-0.083-0.421-0.251-0.421z"/>
    </symbol>
    <symbol id="icon-31" viewBox="0 0 34 32">
      <path fill="#0aa700" style="fill: var(--color2, #0aa700)" d="M3.288 18.521v12.781h28.119l-0.232-12.317-27.887-0.465z"/>
      <path fill="#fff" style="fill: var(--color1, #fff)" d="M9.795 23.159v8.144h6.042l-0.232-8.144h-5.81z"/>
      <path fill="#000" style="fill: var(--color3, #000)" d="M11.168 6.422c-0.108 0-0.216-0.054-0.271-0.108-0.162-0.162-0.433-0.487-0.487-0.974-0.054-0.325 0-0.866 0.487-1.353 0.649-0.649 0.758-1.028 0.216-2.11-0.108-0.216-0.054-0.433 0.162-0.541s0.433-0.054 0.541 0.162c0.703 1.353 0.595 2.11-0.325 3.084-0.487 0.487-0.216 0.92 0 1.136 0.162 0.162 0.162 0.433 0 0.595-0.108 0.108-0.216 0.108-0.325 0.108z"/>
      <path fill="#000" style="fill: var(--color3, #000)" d="M10.031 4.474c-0.162-0.054-0.216-0.162-0.216-0.271 0.054-0.162 0.108-0.325 0.216-0.487 0.162-0.325 0.325-0.595 0.271-1.245-0.162-1.082 0.216-1.894 0.271-1.948 0.054-0.108 0.162-0.162 0.271-0.108s0.162 0.162 0.108 0.271c0 0-0.325 0.757-0.217 1.731 0.108 0.758-0.108 1.191-0.271 1.515-0.054 0.162-0.162 0.271-0.162 0.379-0.054 0.108-0.162 0.162-0.271 0.162z"/>
      <path fill="#000" style="fill: var(--color3, #000)" d="M29.463 30.454h-13.334v-7.344c0-0.193-0.193-0.386-0.386-0.386h-5.991c-0.193 0-0.386 0.193-0.386 0.386v7.344h-3.479zM4.727 30.221l-3.743-0.002c-0.387 0-0.608 0.398-0.608 0.881s0.318 0.899 0.705 0.899h32.394c0.386 0 0.969-0.318 0.969-0.801s-0.275-0.853-0.661-0.853l-3.354-0.028zM10.235 23.593h5.121v6.86h-5.121v-6.86z"/>
      <path fill="#fff" style="fill: var(--color1, #fff)" d="M0.964 18.521h32.302l-2.16-5.81h-27.819l-2.324 5.81z"/>
      <path fill="#fff" style="fill: var(--color1, #fff)" d="M9.795 8.993h3.486v3.718h-3.486v-3.718z"/>
      <path fill="#fff" style="fill: var(--color1, #fff)" d="M19.323 21.775v2.789h5.577v-3.021l-5.577 0.232z"/>
      <path fill="#000" style="fill: var(--color3, #000)" d="M30.43 19.632h3.092c0.29 0 0.483-0.097 0.58-0.29s0.193-0.483 0.097-0.677l-2.512-6.184c-0.097-0.29-0.386-0.483-0.677-0.483h-17.006v-2.995c0-0.386-0.29-0.773-0.773-0.773h-3.672c-0.386 0-0.773 0.29-0.773 0.773v2.995h-5.411c-0.29 0-0.58 0.193-0.676 0.483l-2.512 6.184c-0.097 0.193-0.097 0.483 0.096 0.677 0.097 0.193 0.387 0.29 0.58 0.29h3.672zM5.79 19.632v0zM10.235 9.679h2.222v2.222h-2.222v-2.222zM3.858 13.448h26.862l1.836 4.735h-30.63l1.933-4.735z"/>
      <path fill="#000" style="fill: var(--color3, #000)" d="M14.68 26.879h-2.222c-0.193 0-0.29 0.097-0.29 0.29s0.096 0.29 0.29 0.29h2.222c0.193 0 0.29-0.097 0.29-0.29s-0.096-0.29-0.29-0.29z"/>
      <path fill="#000" style="fill: var(--color3, #000)" d="M25.019 21.178h-5.604c-0.193 0-0.386 0.193-0.386 0.386v3.189c0 0.193 0.193 0.386 0.386 0.386h5.604c0.193 0 0.386-0.193 0.386-0.386v-3.189c0-0.193-0.193-0.386-0.386-0.386zM19.801 22.047h2.029v2.415h-2.029v-2.415zM24.536 24.463h-1.933v-2.415h1.933v2.415z"/>
      <path fill="#000" style="fill: var(--color3, #000)" d="M2.698 19.052h1.353v11.788h-1.353v-11.788z"/>
      <path fill="#000" style="fill: var(--color3, #000)" d="M30.43 19.052h1.353v11.788h-1.353v-11.788z"/>
    </symbol>
    <symbol id="icon-32" viewBox="0 0 34 32">
      <path fill="#000" style="fill: var(--color3, #000)" d="M12.361 6.152c-0.081 0-0.243-0.084-0.324-0.084-0.566-0.59-0.728-1.517 0-2.275 0.647-0.674 0.728-1.011 0.162-2.107-0.081-0.168 0-0.506 0.162-0.506 0.162-0.084 0.485 0 0.485 0.169 0.809 1.264 0.647 2.022-0.243 2.949-0.485 0.506-0.243 0.927 0 1.095 0.162 0.169 0.162 0.421 0 0.59 0 0.084-0.081 0.169-0.243 0.169z"/>
      <path fill="#000" style="fill: var(--color3, #000)" d="M11.31 4.213c0 0 0-0.084 0 0-0.162-0.084-0.243-0.084-0.162-0.253s0.081-0.337 0.243-0.505 0.323-0.59 0.243-1.264c-0.081-1.095 0.243-1.854 0.243-1.854 0.081-0.084 0.162-0.084 0.323-0.084 0.081 0.084 0.081 0.169 0.081 0.337 0 0-0.323 0.674-0.243 1.685 0.081 0.674-0.162 1.095-0.324 1.433-0.081 0.084-0.081 0.253-0.162 0.421-0.081 0-0.081 0.084-0.243 0.084z"/>
      <path fill="#fbbf32" style="fill: var(--color6, #fbbf32)" d="M22.796 25.702h-4.206c-0.162 0-0.324 0.168-0.324 0.337v2.528c0 0.169 0.162 0.337 0.324 0.337h4.206c0.162 0 0.324-0.168 0.324-0.337v-2.528c0-0.169-0.162-0.337-0.324-0.337zM18.913 26.376h1.456v1.854h-1.456v-1.854zM22.472 28.23h-1.456v-1.854h1.456v1.854z"/>
      <path fill="#0aa700" style="fill: var(--color2, #0aa700)" d="M6.328 13.458l10.646-6.497 10.557 6.59 0.045 17.403-21.248 0.232v-17.728z"/>
      <path fill="#fff" style="fill: var(--color1, #fff)" d="M14.97 12.066l-0.045 5.105 4.276 0.139-0.312-5.476-3.92 0.232z"/>
      <path fill="#fff" style="fill: var(--color1, #fff)" d="M11.234 23.45l-0.051 7.441 4.544 0.203 0.047-7.704-4.54 0.060z"/>
      <path fill="#fff" style="fill: var(--color1, #fff)" d="M10.774 7.305l0.053 3.12 3.132-1.375 0.033-1.764-3.218 0.019z"/>
      <path fill="#000" style="fill: var(--color3, #000)" d="M21.906 17.865c0.162 0 0.324-0.169 0.324-0.337v-2.781c0-0.169-0.162-0.337-0.324-0.337h-2.507v-2.444c0-0.168-0.162-0.337-0.323-0.337h-4.206c-0.162 0-0.323 0.168-0.323 0.337v2.444h-2.507c-0.162 0-0.324 0.168-0.324 0.337v2.781c0 0.168 0.162 0.337 0.324 0.337h9.868zM21.582 17.191h-0.809v-2.107h0.809v2.107zM20.126 15.084v2.107h-0.728v-2.107h0.728zM15.192 12.303h3.559v2.107h-3.559v-2.107zM17.457 15.084v2.107h-0.809v-2.107h0.809zM14.545 15.084v2.107h-0.809v-2.107h0.809zM12.361 15.084h0.809v2.107h-0.809v-2.107zM15.192 15.084h0.809v2.107h-0.809v-2.107zM18.023 17.191v-2.107h0.647v2.107h-0.647z"/>
      <path fill="#000" style="fill: var(--color3, #000)" d="M31.45 30.758h-3.397v-16.348l0.89 0.506c0.243 0.168 0.566 0.084 0.728-0.253 0.162-0.253 0.081-0.59-0.243-0.759l-12.214-7.331c-0.162-0.084-0.404-0.084-0.566 0l-2.184 1.264v-0.253c0-0.168-0.081-0.337-0.162-0.421s-0.243-0.168-0.404-0.168h-2.831c-0.324 0-0.566 0.253-0.566 0.59v2.528l-6.228 3.708c-0.243 0.168-0.324 0.506-0.243 0.758 0.243 0.253 0.404 0.337 0.566 0.337 0.081 0 0.162 0 0.243-0.084l1.132-0.674v16.601h-3.883c-0.323 0-0.566 0.253-0.566 0.59s0.243 0.59 0.566 0.59h29.362c0.323 0 0.566-0.253 0.566-0.59-0.081-0.337-0.324-0.59-0.566-0.59zM11.714 8.174h1.699v0.337l-1.699 1.011v-1.348zM11.31 11.039h0.081l2.669-1.601c0.081 0 0.162-0.084 0.243-0.169l2.588-1.517 10.030 5.983v6.236h-19.817v-6.489l4.206-2.444zM11.633 30.758v-7.079h3.883v7.079h-3.883zM26.921 30.758h-10.839v-7.416c0-0.169-0.162-0.337-0.324-0.337h-4.449c-0.162 0-0.323 0.168-0.323 0.337v7.416h-3.883v-10.028h19.817v10.028z"/>
      <path fill="#000" style="fill: var(--color3, #000)" d="M15.031 27.893h-1.699c-0.162 0-0.243 0.084-0.243 0.253s0.081 0.253 0.243 0.253h1.699c0.162 0 0.243-0.084 0.243-0.253s-0.162-0.253-0.243-0.253z"/>
    </symbol>
    <symbol id="icon-33" viewBox="0 0 34 32">
      <path fill="#fff" style="fill: var(--color1, #fff); stroke: var(--color3, #000)" stroke="#000" stroke-linejoin="round" stroke-linecap="round" stroke-miterlimit="1.5" stroke-width="0.4848" d="M5.619 7.159l22.669 0.047 2.692 9.917-28.052-0.142 2.692-9.823z"/>
      <path fill="#0aa700" style="fill: var(--color2, #0aa700); stroke: var(--color3, #000)" stroke="#000" stroke-linejoin="round" stroke-linecap="round" stroke-miterlimit="1.5" stroke-width="0.4848" d="M8.405 12.259l-0.048 4.75 7.509-0.075-0.094-4.675-3.684-2.409-3.684 2.409z"/>
      <path fill="#0aa700" style="fill: var(--color2, #0aa700); stroke: var(--color3, #000)" stroke="#000" stroke-linejoin="round" stroke-linecap="round" stroke-miterlimit="1.5" stroke-width="0.4848" d="M18.511 12.071l-0.048 4.75 7.509-0.075-0.094-4.675-3.684-2.409-3.684 2.409z"/>
      <path fill="#fff" style="fill: var(--color1, #fff); stroke: var(--color3, #000)" stroke="#000" stroke-linejoin="round" stroke-linecap="round" stroke-miterlimit="1.5" stroke-width="0.4848" d="M9.916 13.062v2.22l3.825-0.047 0.142-2.22-3.967 0.047z"/>
      <path fill="#fff" style="fill: var(--color1, #fff); stroke: var(--color3, #000)" stroke="#000" stroke-linejoin="round" stroke-linecap="round" stroke-miterlimit="1.5" stroke-width="0.4848" d="M20.117 13.11v2.22l3.825-0.047 0.142-2.22-3.967 0.047z"/>
      <path fill="#fff" style="fill: var(--color1, #fff); stroke: var(--color3, #000)" stroke="#000" stroke-linejoin="round" stroke-linecap="round" stroke-miterlimit="1.5" stroke-width="0.5576" d="M10.011 4.892v2.22l2.732-0.047 0.101-2.22-2.834 0.047z"/>
      <path fill="#0aa700" style="fill: var(--color2, #0aa700); stroke: var(--color3, #000)" stroke="#000" stroke-linejoin="round" stroke-linecap="round" stroke-miterlimit="1.5" stroke-width="0.4848" d="M5.242 16.994l0.188 14.014 23.282 0.094-0.142-14.026-23.329-0.083z"/>
      <path fill="#000" style="fill: var(--color3, #000)" d="M11.296 4.474c-0.076 0-0.151-0.038-0.189-0.075-0.113-0.113-0.302-0.34-0.34-0.679-0.038-0.226 0-0.604 0.34-0.943 0.453-0.453 0.528-0.717 0.151-1.471-0.076-0.151-0.038-0.302 0.113-0.377s0.302-0.038 0.377 0.113c0.49 0.943 0.415 1.471-0.226 2.15-0.34 0.34-0.151 0.641 0 0.792 0.113 0.113 0.113 0.302 0 0.415-0.075 0.075-0.151 0.075-0.226 0.075z"/>
      <path fill="#000" style="fill: var(--color3, #000)" d="M10.503 3.116c-0.113-0.038-0.151-0.113-0.151-0.189 0.038-0.113 0.076-0.226 0.151-0.339 0.113-0.226 0.226-0.415 0.188-0.868-0.113-0.755 0.151-1.32 0.189-1.358 0.038-0.076 0.113-0.113 0.189-0.076s0.113 0.113 0.076 0.189c0 0-0.226 0.528-0.151 1.207 0.075 0.528-0.076 0.83-0.189 1.056-0.038 0.113-0.113 0.188-0.113 0.264-0.038 0.076-0.113 0.113-0.188 0.113z"/>
      <path fill="#000" style="fill: var(--color3, #000)" d="M13.354 7.303h-1.029v-1.887h-1.801v2.401h-1.029v-3.259h3.859v2.744z"/>
      <path fill="#000" style="fill: var(--color3, #000)" d="M24.073 12.791h-3.945c-0.171 0-0.343 0.171-0.343 0.343v2.315c0 0.172 0.171 0.343 0.343 0.343h3.945c0.171 0 0.343-0.171 0.343-0.343v-2.315c0-0.171-0.171-0.343-0.343-0.343zM20.471 13.392h1.372v1.715h-1.372v-1.715zM23.815 15.107h-1.372v-1.715h1.372v1.715z"/>
      <path fill="#000" style="fill: var(--color3, #000)" d="M13.868 12.791h-3.945c-0.171 0-0.343 0.171-0.343 0.343v2.315c0 0.172 0.171 0.343 0.343 0.343h3.945c0.172 0 0.343-0.171 0.343-0.343v-2.315c-0.086-0.171-0.257-0.343-0.343-0.343zM10.181 13.392h1.372v1.715h-1.372v-1.715zM13.525 15.107h-1.372v-1.715h1.372v1.715z"/>
      <path fill="#fff" style="fill: var(--color1, #fff)" d="M8.122 21.741v3.931l4.099-0.084 0.152-3.931-4.25 0.084z"/>
      <path fill="#fff" style="fill: var(--color1, #fff)" d="M21.675 21.788v3.931l4.099-0.084 0.152-3.931-4.25 0.084z"/>
      <path fill="#fff" style="fill: var(--color1, #fff)" d="M15.017 21.684v5.688l4.099-0.121 0.152-5.688-4.25 0.121z"/>
      <path fill="#fff" style="fill: var(--color1, #fff)" d="M13.836 27.463v2.081l6.102-0.044 0.226-2.081-6.328 0.044z"/>
      <path fill="#fff" style="fill: var(--color1, #fff)" d="M13.175 29.116v2.081l7.56-0.044 0.28-2.081-7.84 0.044z"/>
      <path fill="#fff" style="fill: var(--color1, #fff)" d="M5.524 17.121v2.081l22.223-0.044 0.823-2.081-23.046 0.044z"/>
      <path fill="#000" style="fill: var(--color3, #000)" d="M25.788 21.452h-3.945c-0.172 0-0.343 0.172-0.343 0.343v3.773c0 0.171 0.171 0.343 0.343 0.343h3.945c0.171 0 0.343-0.172 0.343-0.343v-3.773c-0.086-0.171-0.171-0.343-0.343-0.343zM22.1 22.138h1.372v3.173h-1.372v-3.173zM25.445 25.311h-1.372v-3.173h1.372v3.173z"/>
      <path fill="#000" style="fill: var(--color3, #000)" d="M12.239 21.452h-3.945c-0.171 0-0.343 0.172-0.343 0.343v3.773c0 0.171 0.171 0.343 0.343 0.343h3.945c0.171 0 0.343-0.172 0.343-0.343v-3.773c0-0.171-0.171-0.343-0.343-0.343zM8.552 22.138h1.372v3.173h-1.372v-3.173zM11.896 25.311h-1.372v-3.173h1.372v3.173z"/>
      <path fill="#000" style="fill: var(--color3, #000)" d="M31.533 17.165l-2.573-9.947c-0.086-0.257-0.257-0.429-0.515-0.429h-22.896c-0.257 0-0.429 0.171-0.515 0.429l-2.658 9.947c0 0.171 0 0.343 0.086 0.429 0.086 0.172 0.257 0.172 0.429 0.172h1.801v13.549c0 0.257 0.257 0.515 0.515 0.515h23.239c0.257 0 0.515-0.257 0.515-0.515v-13.463h1.972c0.171 0 0.343-0.086 0.429-0.171 0.171-0.257 0.171-0.429 0.171-0.515zM18.585 27.112h-3.087v-5.059h3.087v5.059zM14.211 27.97h5.488v0.943h-5.488v-0.943zM13.697 29.77h6.86v1.115h-6.946l0.086-1.115zM27.846 30.885h-6.26v-1.544c0-0.257-0.172-0.429-0.429-0.429h-0.515v-1.372c0-0.257-0.171-0.429-0.429-0.429h-0.686v-5.574c0-0.257-0.171-0.429-0.429-0.429h-4.116c-0.257 0-0.429 0.171-0.429 0.429v5.574h-0.943c-0.257 0-0.429 0.171-0.429 0.429v1.372h-0.257c-0.257 0-0.429 0.172-0.429 0.429v1.544h-6.517v-11.062h21.867v11.062zM27.846 18.708h-21.867v-0.943h21.867v0.943zM8.895 16.736v-4.202l3.173-1.972 3.173 1.972 0.086 4.202h-6.431zM25.359 16.736h-6.346v-4.202l3.087-1.972 3.259 1.972v4.202zM26.474 16.736v-4.459c0-0.172-0.086-0.257-0.172-0.343l-3.945-2.573c-0.171-0.086-0.343-0.086-0.429 0l-3.859 2.573c-0.086 0.086-0.171 0.171-0.171 0.343v4.459h-1.544v-4.459c0-0.172-0.086-0.257-0.171-0.343l-3.945-2.573c-0.172-0.086-0.343-0.086-0.429 0l-3.859 2.573c-0.086 0.086-0.172 0.171-0.172 0.343v4.459h-4.202l2.401-8.832h22.038l2.315 8.832h-3.859z"/>
      <path fill="#000" style="fill: var(--color3, #000)" d="M1.606 30.628c-0.343 0-0.686 0.257-0.686 0.686s0.343 0.686 0.686 0.686h31.3c0.343 0 0.686-0.257 0.686-0.686s-0.343-0.6-0.686-0.6h-3.859l-27.441-0.086z"/>
    </symbol>
  </defs>
  </svg>